M48
;GenerationSoftware,Autodesk,EAGLE,9.7.0*%
;CreationDate,2026-06-23T13:18:50Z*%
FMAT,2
ICI,OFF
METRIC,TZ,000.000
T8C0.660
T7C0.710
T6C0.813
T5C0.850
T4C1.000
T3C1.016
T2C1.219
T1C3.200
%
G90
M71
T1
X3000Y3000
X145000Y3000
X145000Y87000
X3000Y87000
T2
X85868Y56892
X60722Y81276
X72914Y58416
X81576Y56256
X110252Y55368
X62185Y33093
X108932Y42972
X115586Y43938
T3
X18812Y39366
X22622Y40128
X9906Y40890
X38116Y79498
X40656Y79498
X43196Y79498
X86884Y68202
X79010Y53590
X105680Y79244
X105680Y76704
X76470Y53590
X86884Y64258
X89424Y64258
X4000Y75180
X103140Y39137
X103140Y36597
X117364Y74875
X117364Y72335
X91710Y79244
X91710Y76704
X110760Y72310
X110760Y74850
X126508Y82546
X123968Y82546
X32782Y82546
X32782Y80006
X55134Y79752
X55134Y77212
X4000Y72640
X4000Y80260
X4000Y77720
X77486Y81784
X18812Y36518
X21352Y36518
X59960Y65782
X59960Y68322
X41697Y53615
X39157Y53615
X80026Y81784
X89424Y68202
T4
X29734Y50034
X29734Y39874
X34560Y39874
X34560Y50034
X71390Y68982
X71390Y79142
X66056Y79142
X66056Y68982
X131588Y76704
X131588Y86864
X136922Y86864
X136922Y76704
T5
X48784Y77212
X68596Y84070
X16526Y27428
X19066Y27428
X48784Y79752
X12970Y52320
X17034Y76450
X17034Y78990
X117618Y82038
X117618Y84578
X53610Y45208
X51070Y45208
X97806Y36597
X97806Y39137
X138954Y62734
X136414Y62734
X27194Y80006
X27194Y82546
X12970Y54860
X68596Y81530
X76470Y59432
X79010Y59432
T6
X43810Y10050
X43810Y12590
X43810Y17670
X43810Y15130
X43810Y25290
X43810Y27830
X36190Y27830
X36190Y25290
X36190Y22750
X36190Y20210
X36190Y17670
X36190Y15130
X36190Y12590
X36190Y10050
X36190Y7510
X36190Y4970
X83810Y4970
X83810Y7510
X83810Y20210
X83810Y22750
X83810Y10050
X83810Y12590
X83810Y17670
X83810Y15130
X83810Y25290
X83810Y27830
X76190Y27830
X76190Y25290
X76190Y22750
X76190Y20210
X76190Y17670
X76190Y15130
X76190Y12590
X76190Y10050
X76190Y7510
X76190Y4970
X123810Y4970
X123810Y7510
X123810Y20210
X123810Y22750
X123810Y10050
X123810Y12590
X123810Y17670
X123810Y15130
X123810Y25290
X123810Y27830
X116190Y27830
X116190Y25290
X116190Y22750
X116190Y20210
X116190Y17670
X116190Y15130
X116190Y12590
X116190Y10050
X116190Y7510
X116190Y4970
X71914Y11147
X24400Y26158
X24400Y23618
X24400Y21078
X24400Y18538
X24400Y15998
X24400Y13458
X24400Y10918
X24400Y8378
X24400Y5838
X32020Y5838
X32020Y8378
X32020Y10918
X32020Y13458
X43810Y4970
X32020Y18538
X32020Y21078
X32020Y23618
X32020Y26158
X64294Y26387
X64294Y23847
X64294Y21307
X64294Y18767
X64294Y16227
X64294Y13687
X64294Y11147
X64294Y8607
X64294Y6067
X71914Y6067
X71914Y8607
X71914Y13687
X71914Y16227
X71914Y18767
X71914Y21307
X71914Y23847
X71914Y26387
X104204Y25904
X104204Y23364
X104204Y20824
X104204Y18284
X32020Y15998
X104204Y13204
X104204Y10664
X104204Y8124
X104204Y5584
X111824Y5584
X111824Y8124
X111824Y10664
X111824Y13204
X111824Y15744
X111824Y18284
X111824Y20824
X111824Y23364
X111824Y25904
X43810Y7510
X43810Y20210
X43810Y22750
X104204Y15744
T7
X57182Y34032
X57182Y31492
X95568Y31238
X95568Y28698
X95568Y26158
X9922Y36572
X9922Y34032
X9922Y31492
X57182Y36572
T8
X15764Y71180
X15764Y63940
X134064Y57375
X141304Y57375
X134064Y73656
X141304Y73656
X141299Y68703
X134059Y68703
X93206Y21117
X93206Y13877
X97778Y21127
X97778Y13887
X60150Y50796
X67390Y50796
X19574Y3742
X19574Y10982
X15002Y10982
X15002Y3742
X60230Y5774
X60230Y13014
X55912Y13014
X55912Y5774
X21098Y84134
X21098Y76894
X99886Y5012
X99886Y12252
X95568Y12252
X95568Y5012
X8906Y79046
X131559Y73974
X23828Y63979
X31068Y63979
X20336Y63940
X20336Y71180
X46244Y66226
X46244Y73466
X50816Y73466
X50816Y66226
X8906Y71806
X49479Y63060
X56719Y63060
X55388Y66226
X55388Y73466
X42205Y56295
X42205Y63535
X38395Y63535
X38395Y56295
X13410Y41337
X13410Y48577
X8809Y51791
X8809Y44551
X17224Y52828
X24464Y52828
X27194Y72640
X29734Y70100
X27194Y67560
X19320Y22225
X19320Y14985
X11172Y26793
X3932Y26793
X12716Y80832
X12716Y73592
X84509Y71903
X91749Y71903
X100934Y74354
X100934Y81594
X94440Y65274
X131559Y66734
X101680Y65274
X94440Y69846
X101680Y69846
X96456Y74325
X96456Y81565
X106252Y84324
X99012Y84324
X87138Y83880
X87138Y76640
X89868Y84324
X97108Y84324
X48720Y50796
X55960Y50796
X67326Y48828
X67326Y41588
X11192Y71180
X11192Y63940
X57102Y45208
X64342Y45208
X53118Y22158
X53118Y14918
X57944Y22158
X57944Y14918
X23702Y32508
X16462Y32508
X119884Y60194
X112644Y60194
X121576Y56800
X128816Y56800
X112652Y67890
X119892Y67890
X110227Y60384
X110227Y67624
X131588Y64068
X131588Y56828
X112652Y64156
X119892Y64156
X71936Y41626
X71936Y48866
M30