G04 EAGLE Gerber RS-274X export*
G75*
%MOMM*%
%FSLAX34Y34*%
%LPD*%
%INTop Copper*%
%IPPOS*%
%AMOC8*
5,1,8,0,0,1.08239X$1,22.5*%
G01*
G04 Define Apertures*
%ADD10R,0.381000X0.025400*%
%ADD11R,0.304800X0.025400*%
%ADD12R,0.330200X0.025400*%
%ADD13R,1.016000X0.025400*%
%ADD14R,0.482600X0.025400*%
%ADD15R,0.584200X0.025400*%
%ADD16R,0.533400X0.025400*%
%ADD17R,1.219200X0.025400*%
%ADD18R,0.736600X0.025400*%
%ADD19R,0.558800X0.025400*%
%ADD20R,0.685800X0.025400*%
%ADD21R,1.295400X0.025400*%
%ADD22R,0.838200X0.025400*%
%ADD23R,0.609600X0.025400*%
%ADD24R,0.787400X0.025400*%
%ADD25R,1.346200X0.025400*%
%ADD26R,0.939800X0.025400*%
%ADD27R,0.635000X0.025400*%
%ADD28R,0.889000X0.025400*%
%ADD29R,1.422400X0.025400*%
%ADD30R,0.990600X0.025400*%
%ADD31R,0.660400X0.025400*%
%ADD32R,0.965200X0.025400*%
%ADD33R,1.447800X0.025400*%
%ADD34R,1.041400X0.025400*%
%ADD35R,1.473200X0.025400*%
%ADD36R,1.092200X0.025400*%
%ADD37R,0.711200X0.025400*%
%ADD38R,1.524000X0.025400*%
%ADD39R,1.143000X0.025400*%
%ADD40R,1.193800X0.025400*%
%ADD41R,1.549400X0.025400*%
%ADD42R,1.244600X0.025400*%
%ADD43R,1.574800X0.025400*%
%ADD44R,0.762000X0.025400*%
%ADD45R,1.600200X0.025400*%
%ADD46R,0.457200X0.025400*%
%ADD47R,0.431800X0.025400*%
%ADD48R,0.050800X0.025400*%
%ADD49R,0.508000X0.025400*%
%ADD50R,0.406400X0.025400*%
%ADD51R,1.066800X0.025400*%
%ADD52R,1.117600X0.025400*%
%ADD53R,0.863600X0.025400*%
%ADD54R,1.498600X0.025400*%
%ADD55R,1.371600X0.025400*%
%ADD56R,1.270000X0.025400*%
%ADD57R,1.320800X0.025400*%
%ADD58R,1.168400X0.025400*%
%ADD59R,0.355600X0.025400*%
%ADD60R,0.914400X0.025400*%
%ADD61R,0.279400X0.025400*%
%ADD62R,0.228600X0.025400*%
%ADD63R,0.177800X0.025400*%
%ADD64R,0.101600X0.025400*%
%ADD65R,0.254000X0.025400*%
%ADD66R,0.203200X0.025400*%
%ADD67R,0.127000X0.025400*%
%ADD68R,0.812800X0.025400*%
%ADD69R,1.397000X0.025400*%
%ADD70C,1.524000*%
%ADD71C,1.450000*%
%ADD72C,1.879600*%
%ADD73C,1.508000*%
%ADD74C,1.320800*%
%ADD75C,1.260000*%
%ADD76C,1.168000*%
%ADD77R,1.968500X0.599100*%
%ADD78R,0.599100X1.968500*%
%ADD79R,1.218000X1.218000*%
%ADD80C,1.218000*%
%ADD81C,1.016000*%
%ADD82C,0.812800*%
%ADD83C,1.828800*%
%ADD84C,0.482600*%
%ADD85C,1.524000*%
G36*
X1321252Y67078D02*
X1321144Y67078D01*
X1320457Y67095D01*
X1319779Y67134D01*
X1319109Y67193D01*
X1318448Y67272D01*
X1317795Y67373D01*
X1317151Y67494D01*
X1316516Y67635D01*
X1315889Y67798D01*
X1315271Y67981D01*
X1314662Y68184D01*
X1314061Y68409D01*
X1313468Y68654D01*
X1312885Y68919D01*
X1312309Y69205D01*
X1311743Y69512D01*
X1311185Y69840D01*
X1310638Y70186D01*
X1310106Y70546D01*
X1309588Y70922D01*
X1309084Y71313D01*
X1308595Y71719D01*
X1308119Y72141D01*
X1307658Y72577D01*
X1307211Y73029D01*
X1306779Y73495D01*
X1306360Y73977D01*
X1305956Y74474D01*
X1305566Y74987D01*
X1305191Y75514D01*
X1304829Y76056D01*
X1304482Y76614D01*
X1304149Y77187D01*
X1303833Y77772D01*
X1303538Y78367D01*
X1303261Y78972D01*
X1303005Y79586D01*
X1302769Y80210D01*
X1302553Y80843D01*
X1302356Y81486D01*
X1302180Y82139D01*
X1302023Y82801D01*
X1301886Y83474D01*
X1301769Y84155D01*
X1301672Y84847D01*
X1301595Y85548D01*
X1301538Y86258D01*
X1301500Y86978D01*
X1301483Y87708D01*
X1301500Y88438D01*
X1301537Y89158D01*
X1301593Y89868D01*
X1301670Y90568D01*
X1301765Y91258D01*
X1301881Y91938D01*
X1302016Y92609D01*
X1302172Y93270D01*
X1302346Y93921D01*
X1302541Y94562D01*
X1302755Y95193D01*
X1302989Y95814D01*
X1303242Y96426D01*
X1303516Y97028D01*
X1303809Y97620D01*
X1304121Y98202D01*
X1304451Y98771D01*
X1304795Y99326D01*
X1305153Y99865D01*
X1305525Y100389D01*
X1305912Y100898D01*
X1306313Y101392D01*
X1306728Y101871D01*
X1307157Y102334D01*
X1307601Y102783D01*
X1308059Y103216D01*
X1308531Y103634D01*
X1309017Y104037D01*
X1309518Y104425D01*
X1310033Y104797D01*
X1310562Y105155D01*
X1311105Y105497D01*
X1311660Y105821D01*
X1312224Y106125D01*
X1312796Y106409D01*
X1313377Y106672D01*
X1313967Y106915D01*
X1314566Y107137D01*
X1315173Y107338D01*
X1315790Y107519D01*
X1316415Y107680D01*
X1317048Y107820D01*
X1317691Y107940D01*
X1318343Y108039D01*
X1319003Y108118D01*
X1319672Y108176D01*
X1320349Y108214D01*
X1321036Y108231D01*
X1321144Y108231D01*
X1321831Y108214D01*
X1322509Y108175D01*
X1323179Y108116D01*
X1323840Y108037D01*
X1324492Y107936D01*
X1325136Y107815D01*
X1325772Y107674D01*
X1326398Y107511D01*
X1327016Y107328D01*
X1327626Y107125D01*
X1328227Y106900D01*
X1328819Y106655D01*
X1329403Y106390D01*
X1329978Y106104D01*
X1330545Y105797D01*
X1331103Y105469D01*
X1331649Y105123D01*
X1332182Y104763D01*
X1332700Y104387D01*
X1333203Y103996D01*
X1333693Y103590D01*
X1334168Y103168D01*
X1334629Y102732D01*
X1335076Y102280D01*
X1335509Y101814D01*
X1335927Y101332D01*
X1336331Y100835D01*
X1336721Y100322D01*
X1337097Y99795D01*
X1337458Y99252D01*
X1337805Y98695D01*
X1338138Y98122D01*
X1338454Y97537D01*
X1338750Y96942D01*
X1339026Y96337D01*
X1339282Y95723D01*
X1339519Y95099D01*
X1339735Y94466D01*
X1339931Y93823D01*
X1340108Y93170D01*
X1340265Y92508D01*
X1340402Y91835D01*
X1340518Y91154D01*
X1340616Y90462D01*
X1340693Y89761D01*
X1340750Y89051D01*
X1340787Y88331D01*
X1340805Y87601D01*
X1340788Y86871D01*
X1340751Y86151D01*
X1340694Y85441D01*
X1340618Y84741D01*
X1340522Y84051D01*
X1340406Y83371D01*
X1340271Y82700D01*
X1340116Y82039D01*
X1339941Y81388D01*
X1339747Y80747D01*
X1339533Y80116D01*
X1339299Y79495D01*
X1339045Y78883D01*
X1338772Y78281D01*
X1338479Y77689D01*
X1338166Y77107D01*
X1337837Y76538D01*
X1337493Y75983D01*
X1337134Y75444D01*
X1336762Y74920D01*
X1336375Y74411D01*
X1335975Y73917D01*
X1335559Y73438D01*
X1335130Y72975D01*
X1334687Y72526D01*
X1334229Y72093D01*
X1333757Y71675D01*
X1333270Y71272D01*
X1332770Y70884D01*
X1332255Y70512D01*
X1331726Y70154D01*
X1331182Y69812D01*
X1330628Y69488D01*
X1330064Y69184D01*
X1329492Y68900D01*
X1328911Y68637D01*
X1328321Y68394D01*
X1327722Y68172D01*
X1327114Y67971D01*
X1326498Y67790D01*
X1325873Y67629D01*
X1325239Y67489D01*
X1324596Y67369D01*
X1323945Y67270D01*
X1323285Y67191D01*
X1322616Y67133D01*
X1321938Y67095D01*
X1321252Y67078D01*
G37*
%LPC*%
G36*
X1321144Y79785D02*
X1321573Y79798D01*
X1321995Y79828D01*
X1322409Y79873D01*
X1322815Y79934D01*
X1323214Y80012D01*
X1323604Y80106D01*
X1323987Y80215D01*
X1324362Y80341D01*
X1324729Y80483D01*
X1325088Y80641D01*
X1325439Y80815D01*
X1325783Y81006D01*
X1326119Y81212D01*
X1326447Y81435D01*
X1326767Y81673D01*
X1327079Y81928D01*
X1327378Y82197D01*
X1327659Y82478D01*
X1327922Y82772D01*
X1328166Y83077D01*
X1328391Y83396D01*
X1328599Y83726D01*
X1328787Y84069D01*
X1328958Y84424D01*
X1329110Y84791D01*
X1329244Y85171D01*
X1329359Y85563D01*
X1329456Y85968D01*
X1329534Y86384D01*
X1329594Y86813D01*
X1329636Y87255D01*
X1329659Y87708D01*
X1329636Y88157D01*
X1329595Y88593D01*
X1329536Y89017D01*
X1329459Y89429D01*
X1329363Y89828D01*
X1329249Y90215D01*
X1329117Y90590D01*
X1328967Y90953D01*
X1328799Y91304D01*
X1328613Y91642D01*
X1328408Y91968D01*
X1328185Y92282D01*
X1327944Y92584D01*
X1327685Y92873D01*
X1327408Y93150D01*
X1327113Y93415D01*
X1326804Y93666D01*
X1326488Y93901D01*
X1326165Y94120D01*
X1325833Y94323D01*
X1325494Y94510D01*
X1325147Y94682D01*
X1324792Y94837D01*
X1324430Y94977D01*
X1324060Y95101D01*
X1323682Y95209D01*
X1323296Y95301D01*
X1322903Y95377D01*
X1322501Y95438D01*
X1322093Y95482D01*
X1321676Y95511D01*
X1321252Y95524D01*
X1321144Y95524D01*
X1320714Y95511D01*
X1320292Y95481D01*
X1319878Y95436D01*
X1319472Y95375D01*
X1319074Y95297D01*
X1318684Y95203D01*
X1318301Y95094D01*
X1317926Y94968D01*
X1317559Y94826D01*
X1317200Y94668D01*
X1316848Y94494D01*
X1316505Y94303D01*
X1316169Y94097D01*
X1315841Y93874D01*
X1315521Y93636D01*
X1315208Y93381D01*
X1314909Y93112D01*
X1314628Y92831D01*
X1314366Y92537D01*
X1314122Y92232D01*
X1313896Y91913D01*
X1313689Y91583D01*
X1313500Y91240D01*
X1313330Y90885D01*
X1313178Y90518D01*
X1313044Y90138D01*
X1312929Y89746D01*
X1312832Y89341D01*
X1312753Y88925D01*
X1312693Y88496D01*
X1312651Y88054D01*
X1312628Y87601D01*
X1312651Y87152D01*
X1312692Y86716D01*
X1312752Y86292D01*
X1312829Y85880D01*
X1312925Y85481D01*
X1313038Y85094D01*
X1313170Y84719D01*
X1313320Y84356D01*
X1313489Y84005D01*
X1313675Y83667D01*
X1313880Y83341D01*
X1314102Y83027D01*
X1314343Y82725D01*
X1314602Y82436D01*
X1314879Y82159D01*
X1315175Y81894D01*
X1315483Y81643D01*
X1315799Y81408D01*
X1316123Y81189D01*
X1316454Y80986D01*
X1316794Y80799D01*
X1317141Y80627D01*
X1317495Y80472D01*
X1317858Y80332D01*
X1318228Y80208D01*
X1318606Y80100D01*
X1318992Y80008D01*
X1319385Y79932D01*
X1319786Y79871D01*
X1320195Y79827D01*
X1320612Y79798D01*
X1321036Y79785D01*
X1321144Y79785D01*
G37*
%LPD*%
G36*
X1321252Y152859D02*
X1321144Y152859D01*
X1320457Y152877D01*
X1319779Y152915D01*
X1319109Y152974D01*
X1318448Y153054D01*
X1317795Y153154D01*
X1317151Y153275D01*
X1316516Y153417D01*
X1315889Y153579D01*
X1315271Y153762D01*
X1314662Y153965D01*
X1314061Y154190D01*
X1313468Y154435D01*
X1312885Y154700D01*
X1312309Y154987D01*
X1311743Y155294D01*
X1311185Y155621D01*
X1310638Y155967D01*
X1310106Y156327D01*
X1309588Y156703D01*
X1309084Y157094D01*
X1308595Y157500D01*
X1308119Y157922D01*
X1307658Y158358D01*
X1307211Y158810D01*
X1306779Y159277D01*
X1306360Y159759D01*
X1305956Y160256D01*
X1305566Y160768D01*
X1305191Y161295D01*
X1304829Y161838D01*
X1304482Y162395D01*
X1304149Y162968D01*
X1303833Y163554D01*
X1303538Y164148D01*
X1303261Y164753D01*
X1303005Y165367D01*
X1302769Y165991D01*
X1302553Y166624D01*
X1302356Y167268D01*
X1302180Y167920D01*
X1302023Y168583D01*
X1301886Y169255D01*
X1301769Y169936D01*
X1301672Y170628D01*
X1301595Y171329D01*
X1301538Y172039D01*
X1301500Y172760D01*
X1301483Y173490D01*
X1301500Y174219D01*
X1301537Y174939D01*
X1301593Y175649D01*
X1301670Y176349D01*
X1301765Y177039D01*
X1301881Y177720D01*
X1302016Y178390D01*
X1302172Y179051D01*
X1302346Y179702D01*
X1302541Y180343D01*
X1302755Y180974D01*
X1302989Y181596D01*
X1303242Y182207D01*
X1303516Y182809D01*
X1303809Y183401D01*
X1304121Y183983D01*
X1304451Y184553D01*
X1304795Y185107D01*
X1305153Y185646D01*
X1305525Y186170D01*
X1305912Y186679D01*
X1306313Y187173D01*
X1306728Y187652D01*
X1307157Y188116D01*
X1307601Y188564D01*
X1308059Y188997D01*
X1308531Y189415D01*
X1309017Y189818D01*
X1309518Y190206D01*
X1310033Y190578D01*
X1310562Y190936D01*
X1311105Y191278D01*
X1311660Y191603D01*
X1312224Y191907D01*
X1312796Y192190D01*
X1313377Y192453D01*
X1313967Y192696D01*
X1314566Y192918D01*
X1315173Y193119D01*
X1315790Y193301D01*
X1316415Y193461D01*
X1317048Y193601D01*
X1317691Y193721D01*
X1318343Y193820D01*
X1319003Y193899D01*
X1319672Y193957D01*
X1320349Y193995D01*
X1321036Y194013D01*
X1321144Y194013D01*
X1321831Y193995D01*
X1322509Y193957D01*
X1323179Y193898D01*
X1323840Y193818D01*
X1324492Y193718D01*
X1325136Y193597D01*
X1325772Y193455D01*
X1326398Y193293D01*
X1327016Y193110D01*
X1327626Y192906D01*
X1328227Y192682D01*
X1328819Y192437D01*
X1329403Y192171D01*
X1329978Y191885D01*
X1330545Y191578D01*
X1331103Y191250D01*
X1331649Y190905D01*
X1332182Y190544D01*
X1332700Y190168D01*
X1333203Y189777D01*
X1333693Y189371D01*
X1334168Y188950D01*
X1334629Y188513D01*
X1335076Y188062D01*
X1335509Y187595D01*
X1335927Y187113D01*
X1336331Y186616D01*
X1336721Y186104D01*
X1337097Y185576D01*
X1337458Y185034D01*
X1337805Y184476D01*
X1338138Y183903D01*
X1338454Y183318D01*
X1338750Y182723D01*
X1339026Y182119D01*
X1339282Y181504D01*
X1339519Y180881D01*
X1339735Y180247D01*
X1339931Y179604D01*
X1340108Y178951D01*
X1340265Y178289D01*
X1340402Y177617D01*
X1340518Y176935D01*
X1340616Y176244D01*
X1340693Y175543D01*
X1340750Y174832D01*
X1340787Y174112D01*
X1340805Y173382D01*
X1340788Y172652D01*
X1340751Y171933D01*
X1340694Y171223D01*
X1340618Y170523D01*
X1340522Y169832D01*
X1340406Y169152D01*
X1340271Y168481D01*
X1340116Y167821D01*
X1339941Y167170D01*
X1339747Y166529D01*
X1339533Y165897D01*
X1339299Y165276D01*
X1339045Y164664D01*
X1338772Y164062D01*
X1338479Y163471D01*
X1338166Y162888D01*
X1337837Y162319D01*
X1337493Y161764D01*
X1337134Y161225D01*
X1336762Y160701D01*
X1336375Y160192D01*
X1335975Y159698D01*
X1335559Y159219D01*
X1335130Y158756D01*
X1334687Y158308D01*
X1334229Y157874D01*
X1333757Y157456D01*
X1333270Y157053D01*
X1332770Y156666D01*
X1332255Y156293D01*
X1331726Y155936D01*
X1331182Y155593D01*
X1330628Y155269D01*
X1330064Y154965D01*
X1329492Y154681D01*
X1328911Y154418D01*
X1328321Y154176D01*
X1327722Y153954D01*
X1327114Y153752D01*
X1326498Y153571D01*
X1325873Y153410D01*
X1325239Y153270D01*
X1324596Y153150D01*
X1323945Y153051D01*
X1323285Y152972D01*
X1322616Y152914D01*
X1321938Y152876D01*
X1321252Y152859D01*
G37*
%LPC*%
G36*
X1321144Y165567D02*
X1321573Y165580D01*
X1321995Y165609D01*
X1322409Y165654D01*
X1322815Y165716D01*
X1323214Y165793D01*
X1323604Y165887D01*
X1323987Y165997D01*
X1324362Y166122D01*
X1324729Y166264D01*
X1325088Y166422D01*
X1325439Y166597D01*
X1325783Y166787D01*
X1326119Y166993D01*
X1326447Y167216D01*
X1326767Y167454D01*
X1327079Y167709D01*
X1327378Y167978D01*
X1327659Y168259D01*
X1327922Y168553D01*
X1328166Y168859D01*
X1328391Y169177D01*
X1328599Y169507D01*
X1328787Y169850D01*
X1328958Y170205D01*
X1329110Y170573D01*
X1329244Y170952D01*
X1329359Y171345D01*
X1329456Y171749D01*
X1329534Y172166D01*
X1329594Y172595D01*
X1329636Y173036D01*
X1329659Y173490D01*
X1329636Y173938D01*
X1329595Y174374D01*
X1329536Y174798D01*
X1329459Y175210D01*
X1329363Y175609D01*
X1329249Y175997D01*
X1329117Y176372D01*
X1328967Y176734D01*
X1328799Y177085D01*
X1328613Y177423D01*
X1328408Y177749D01*
X1328185Y178063D01*
X1327944Y178365D01*
X1327685Y178654D01*
X1327408Y178931D01*
X1327113Y179196D01*
X1326804Y179447D01*
X1326488Y179682D01*
X1326165Y179901D01*
X1325833Y180104D01*
X1325494Y180291D01*
X1325147Y180463D01*
X1324792Y180619D01*
X1324430Y180758D01*
X1324060Y180882D01*
X1323682Y180990D01*
X1323296Y181082D01*
X1322903Y181159D01*
X1322501Y181219D01*
X1322093Y181263D01*
X1321676Y181292D01*
X1321252Y181305D01*
X1321144Y181305D01*
X1320714Y181292D01*
X1320292Y181263D01*
X1319878Y181217D01*
X1319472Y181156D01*
X1319074Y181078D01*
X1318684Y180985D01*
X1318301Y180875D01*
X1317926Y180749D01*
X1317559Y180607D01*
X1317200Y180449D01*
X1316848Y180275D01*
X1316505Y180085D01*
X1316169Y179878D01*
X1315841Y179656D01*
X1315521Y179417D01*
X1315208Y179162D01*
X1314909Y178894D01*
X1314628Y178612D01*
X1314366Y178319D01*
X1314122Y178013D01*
X1313896Y177695D01*
X1313689Y177364D01*
X1313500Y177021D01*
X1313330Y176666D01*
X1313178Y176299D01*
X1313044Y175919D01*
X1312929Y175527D01*
X1312832Y175123D01*
X1312753Y174706D01*
X1312693Y174277D01*
X1312651Y173836D01*
X1312628Y173382D01*
X1312651Y172933D01*
X1312692Y172497D01*
X1312752Y172073D01*
X1312829Y171662D01*
X1312925Y171262D01*
X1313038Y170875D01*
X1313170Y170500D01*
X1313320Y170137D01*
X1313489Y169786D01*
X1313675Y169448D01*
X1313880Y169122D01*
X1314102Y168808D01*
X1314343Y168507D01*
X1314602Y168217D01*
X1314879Y167940D01*
X1315175Y167675D01*
X1315483Y167425D01*
X1315799Y167190D01*
X1316123Y166971D01*
X1316454Y166767D01*
X1316794Y166580D01*
X1317141Y166409D01*
X1317495Y166253D01*
X1317858Y166113D01*
X1318228Y165989D01*
X1318606Y165881D01*
X1318992Y165789D01*
X1319385Y165713D01*
X1319786Y165653D01*
X1320195Y165608D01*
X1320612Y165579D01*
X1321036Y165567D01*
X1321144Y165567D01*
G37*
%LPD*%
G36*
X1339997Y111690D02*
X1302291Y111690D01*
X1302291Y123482D01*
X1318935Y136903D01*
X1302291Y136903D01*
X1302291Y149395D01*
X1339997Y149395D01*
X1339997Y138195D01*
X1322598Y124182D01*
X1339997Y124182D01*
X1339997Y111690D01*
G37*
G36*
X1323087Y229179D02*
X1302291Y229179D01*
X1302291Y241994D01*
X1322925Y241994D01*
X1323354Y242006D01*
X1323769Y242030D01*
X1324169Y242066D01*
X1324554Y242114D01*
X1324924Y242174D01*
X1325279Y242246D01*
X1325620Y242330D01*
X1325946Y242426D01*
X1326257Y242535D01*
X1326554Y242655D01*
X1326836Y242788D01*
X1327103Y242932D01*
X1327355Y243089D01*
X1327592Y243258D01*
X1327815Y243439D01*
X1328023Y243632D01*
X1328399Y244045D01*
X1328724Y244490D01*
X1328998Y244966D01*
X1329221Y245474D01*
X1329393Y246013D01*
X1329460Y246294D01*
X1329515Y246583D01*
X1329557Y246879D01*
X1329586Y247184D01*
X1329602Y247496D01*
X1329606Y247816D01*
X1329603Y248136D01*
X1329589Y248449D01*
X1329523Y249050D01*
X1329410Y249620D01*
X1329248Y250159D01*
X1329038Y250666D01*
X1328779Y251142D01*
X1328472Y251587D01*
X1328117Y252001D01*
X1327920Y252194D01*
X1327708Y252375D01*
X1327482Y252543D01*
X1327241Y252700D01*
X1326985Y252845D01*
X1326714Y252977D01*
X1326428Y253098D01*
X1326128Y253206D01*
X1325813Y253302D01*
X1325483Y253387D01*
X1325139Y253459D01*
X1324779Y253519D01*
X1324405Y253567D01*
X1324016Y253603D01*
X1323613Y253626D01*
X1323194Y253638D01*
X1302291Y253638D01*
X1302291Y266454D01*
X1322817Y266454D01*
X1323992Y266420D01*
X1325126Y266348D01*
X1326218Y266237D01*
X1327268Y266088D01*
X1328276Y265901D01*
X1329242Y265675D01*
X1330167Y265411D01*
X1331050Y265108D01*
X1331891Y264767D01*
X1332691Y264388D01*
X1333449Y263970D01*
X1334165Y263513D01*
X1334839Y263019D01*
X1335471Y262485D01*
X1336062Y261914D01*
X1336611Y261304D01*
X1337123Y260661D01*
X1337600Y259990D01*
X1338044Y259292D01*
X1338455Y258566D01*
X1338831Y257813D01*
X1339174Y257032D01*
X1339483Y256224D01*
X1339759Y255388D01*
X1340001Y254524D01*
X1340209Y253633D01*
X1340384Y252715D01*
X1340524Y251769D01*
X1340632Y250795D01*
X1340705Y249794D01*
X1340745Y248765D01*
X1340751Y247708D01*
X1340743Y246654D01*
X1340701Y245628D01*
X1340626Y244630D01*
X1340517Y243660D01*
X1340375Y242719D01*
X1340199Y241805D01*
X1339990Y240920D01*
X1339748Y240063D01*
X1339472Y239234D01*
X1339163Y238433D01*
X1338820Y237661D01*
X1338444Y236916D01*
X1338034Y236200D01*
X1337591Y235512D01*
X1337115Y234853D01*
X1336605Y234221D01*
X1336058Y233622D01*
X1335472Y233062D01*
X1334845Y232539D01*
X1334180Y232054D01*
X1333474Y231606D01*
X1332728Y231197D01*
X1331943Y230825D01*
X1331118Y230491D01*
X1330253Y230194D01*
X1329349Y229936D01*
X1328405Y229715D01*
X1327421Y229532D01*
X1326397Y229387D01*
X1325333Y229280D01*
X1324230Y229211D01*
X1323087Y229179D01*
G37*
G36*
X1334344Y29034D02*
X1326318Y35766D01*
X1326880Y36544D01*
X1327402Y37331D01*
X1327884Y38128D01*
X1328327Y38933D01*
X1328730Y39747D01*
X1329093Y40569D01*
X1329416Y41401D01*
X1329699Y42242D01*
X1329946Y43086D01*
X1330160Y43930D01*
X1330340Y44772D01*
X1330486Y45613D01*
X1330599Y46452D01*
X1330678Y47291D01*
X1330724Y48128D01*
X1330737Y48965D01*
X1330729Y49373D01*
X1330708Y49752D01*
X1330675Y50103D01*
X1330628Y50426D01*
X1330569Y50720D01*
X1330496Y50985D01*
X1330411Y51223D01*
X1330312Y51432D01*
X1330202Y51614D01*
X1330081Y51771D01*
X1329948Y51904D01*
X1329805Y52013D01*
X1329650Y52097D01*
X1329484Y52156D01*
X1329308Y52190D01*
X1329120Y52200D01*
X1329012Y52200D01*
X1328819Y52194D01*
X1328634Y52151D01*
X1328455Y52070D01*
X1328284Y51951D01*
X1328120Y51795D01*
X1327963Y51601D01*
X1327814Y51370D01*
X1327672Y51101D01*
X1327533Y50785D01*
X1327393Y50411D01*
X1327252Y49981D01*
X1327110Y49493D01*
X1326823Y48346D01*
X1326533Y46970D01*
X1326321Y45909D01*
X1326093Y44869D01*
X1325849Y43852D01*
X1325590Y42856D01*
X1325315Y41882D01*
X1325024Y40930D01*
X1324718Y40000D01*
X1324395Y39091D01*
X1324049Y38216D01*
X1323670Y37384D01*
X1323259Y36597D01*
X1322814Y35854D01*
X1322338Y35154D01*
X1321829Y34499D01*
X1321287Y33888D01*
X1320713Y33321D01*
X1320411Y33056D01*
X1320097Y32809D01*
X1319771Y32578D01*
X1319433Y32363D01*
X1319082Y32165D01*
X1318719Y31984D01*
X1318343Y31819D01*
X1317955Y31670D01*
X1317555Y31539D01*
X1317142Y31424D01*
X1316717Y31325D01*
X1316280Y31243D01*
X1315830Y31178D01*
X1315368Y31129D01*
X1314894Y31097D01*
X1314407Y31081D01*
X1314299Y31081D01*
X1313620Y31100D01*
X1312956Y31150D01*
X1312307Y31233D01*
X1311673Y31347D01*
X1311055Y31492D01*
X1310452Y31669D01*
X1309864Y31878D01*
X1309291Y32118D01*
X1308734Y32390D01*
X1308192Y32694D01*
X1307665Y33029D01*
X1307153Y33396D01*
X1306657Y33795D01*
X1306175Y34225D01*
X1305709Y34687D01*
X1305259Y35180D01*
X1304829Y35704D01*
X1304426Y36258D01*
X1304049Y36840D01*
X1303700Y37452D01*
X1303377Y38093D01*
X1303081Y38763D01*
X1302812Y39463D01*
X1302569Y40192D01*
X1302353Y40950D01*
X1302164Y41738D01*
X1302001Y42554D01*
X1301866Y43401D01*
X1301757Y44276D01*
X1301675Y45180D01*
X1301619Y46114D01*
X1301591Y47078D01*
X1301611Y48415D01*
X1301671Y49714D01*
X1301772Y50973D01*
X1301914Y52194D01*
X1302095Y53375D01*
X1302317Y54516D01*
X1302580Y55619D01*
X1302883Y56682D01*
X1303226Y57711D01*
X1303609Y58711D01*
X1304033Y59682D01*
X1304498Y60623D01*
X1305003Y61536D01*
X1305548Y62420D01*
X1306133Y63275D01*
X1306759Y64100D01*
X1315269Y57962D01*
X1314803Y57280D01*
X1314369Y56590D01*
X1313967Y55893D01*
X1313597Y55187D01*
X1313259Y54474D01*
X1312954Y53752D01*
X1312681Y53023D01*
X1312440Y52285D01*
X1312229Y51549D01*
X1312047Y50821D01*
X1311893Y50102D01*
X1311768Y49393D01*
X1311671Y48693D01*
X1311602Y48001D01*
X1311562Y47319D01*
X1311551Y46646D01*
X1311560Y46305D01*
X1311582Y45987D01*
X1311618Y45692D01*
X1311666Y45420D01*
X1311727Y45172D01*
X1311801Y44946D01*
X1311889Y44743D01*
X1311989Y44564D01*
X1312099Y44406D01*
X1312219Y44270D01*
X1312346Y44155D01*
X1312483Y44061D01*
X1312628Y43988D01*
X1312781Y43936D01*
X1312943Y43906D01*
X1313114Y43896D01*
X1313221Y43896D01*
X1313407Y43899D01*
X1313586Y43937D01*
X1313759Y44010D01*
X1313926Y44119D01*
X1314087Y44263D01*
X1314243Y44442D01*
X1314392Y44657D01*
X1314535Y44907D01*
X1314675Y45204D01*
X1314815Y45559D01*
X1314954Y45973D01*
X1315093Y46444D01*
X1315232Y46974D01*
X1315371Y47561D01*
X1315647Y48911D01*
X1315804Y49816D01*
X1315974Y50698D01*
X1316154Y51556D01*
X1316347Y52391D01*
X1316551Y53202D01*
X1316766Y53990D01*
X1316993Y54754D01*
X1317231Y55495D01*
X1317481Y56213D01*
X1317743Y56907D01*
X1318016Y57578D01*
X1318300Y58225D01*
X1318597Y58849D01*
X1318904Y59449D01*
X1319223Y60026D01*
X1319554Y60579D01*
X1319902Y61104D01*
X1320272Y61597D01*
X1320665Y62056D01*
X1321080Y62482D01*
X1321518Y62875D01*
X1321979Y63234D01*
X1322462Y63561D01*
X1322968Y63855D01*
X1323496Y64116D01*
X1324047Y64343D01*
X1324620Y64538D01*
X1325217Y64700D01*
X1325835Y64828D01*
X1326476Y64924D01*
X1327140Y64986D01*
X1327827Y65015D01*
X1327934Y65015D01*
X1328673Y64987D01*
X1329392Y64925D01*
X1330089Y64829D01*
X1330766Y64699D01*
X1331423Y64535D01*
X1332059Y64337D01*
X1332674Y64105D01*
X1333269Y63839D01*
X1333843Y63539D01*
X1334396Y63206D01*
X1334929Y62838D01*
X1335441Y62437D01*
X1335933Y62001D01*
X1336404Y61532D01*
X1336855Y61029D01*
X1337285Y60492D01*
X1337691Y59925D01*
X1338072Y59333D01*
X1338427Y58715D01*
X1338757Y58072D01*
X1339060Y57403D01*
X1339338Y56709D01*
X1339590Y55990D01*
X1339816Y55245D01*
X1340017Y54475D01*
X1340191Y53679D01*
X1340340Y52858D01*
X1340463Y52012D01*
X1340560Y51140D01*
X1340632Y50243D01*
X1340677Y49320D01*
X1340697Y48372D01*
X1340690Y47652D01*
X1340671Y46939D01*
X1340640Y46233D01*
X1340596Y45532D01*
X1340539Y44839D01*
X1340470Y44151D01*
X1340389Y43470D01*
X1340295Y42796D01*
X1340070Y41466D01*
X1339795Y40162D01*
X1339470Y38883D01*
X1339095Y37631D01*
X1338671Y36411D01*
X1338199Y35233D01*
X1337678Y34097D01*
X1337108Y33001D01*
X1336490Y31947D01*
X1335823Y30935D01*
X1335108Y29964D01*
X1334344Y29034D01*
G37*
G36*
X1339997Y267268D02*
X1320821Y280035D01*
X1302291Y267807D01*
X1302291Y282135D01*
X1311287Y287576D01*
X1302291Y293070D01*
X1302291Y307129D01*
X1320659Y294902D01*
X1339997Y307668D01*
X1339997Y293340D01*
X1330193Y287360D01*
X1339997Y281328D01*
X1339997Y267268D01*
G37*
G36*
X1302291Y320286D02*
X1302291Y334399D01*
X1323460Y341725D01*
X1302291Y349051D01*
X1302291Y362948D01*
X1340266Y347650D01*
X1340266Y335584D01*
X1302291Y320286D01*
G37*
G36*
X1339997Y197471D02*
X1302291Y197471D01*
X1302291Y210071D01*
X1329228Y210071D01*
X1329228Y227796D01*
X1339997Y227796D01*
X1339997Y197471D01*
G37*
G36*
X1305092Y361916D02*
X1302022Y373174D01*
X1302022Y382705D01*
X1339997Y382705D01*
X1339997Y370321D01*
X1313064Y370321D01*
X1314411Y364179D01*
X1305092Y361916D01*
G37*
G36*
X1378040Y146921D02*
X1377985Y146921D01*
X1377385Y146942D01*
X1376810Y146991D01*
X1376258Y147068D01*
X1375730Y147173D01*
X1375225Y147307D01*
X1374745Y147468D01*
X1374288Y147658D01*
X1373856Y147876D01*
X1373448Y148117D01*
X1373065Y148376D01*
X1372708Y148653D01*
X1372376Y148949D01*
X1372070Y149262D01*
X1371789Y149593D01*
X1371533Y149943D01*
X1371303Y150310D01*
X1371100Y150690D01*
X1370923Y151079D01*
X1370773Y151475D01*
X1370650Y151879D01*
X1370555Y152291D01*
X1370486Y152711D01*
X1370444Y153139D01*
X1370430Y153575D01*
X1370446Y153978D01*
X1370480Y154363D01*
X1370534Y154731D01*
X1370606Y155082D01*
X1370696Y155416D01*
X1370806Y155733D01*
X1370934Y156032D01*
X1371081Y156315D01*
X1371410Y156840D01*
X1371775Y157318D01*
X1372175Y157749D01*
X1372610Y158133D01*
X1365410Y158133D01*
X1365410Y162277D01*
X1385322Y162277D01*
X1385322Y158133D01*
X1383224Y158133D01*
X1383721Y157738D01*
X1384169Y157298D01*
X1384569Y156814D01*
X1384751Y156555D01*
X1384920Y156284D01*
X1385074Y156000D01*
X1385208Y155701D01*
X1385322Y155386D01*
X1385416Y155055D01*
X1385490Y154709D01*
X1385545Y154347D01*
X1385580Y153969D01*
X1385595Y153575D01*
X1385580Y153145D01*
X1385539Y152723D01*
X1385470Y152307D01*
X1385374Y151898D01*
X1385252Y151497D01*
X1385102Y151102D01*
X1384925Y150715D01*
X1384722Y150334D01*
X1384492Y149966D01*
X1384236Y149616D01*
X1383955Y149284D01*
X1383649Y148969D01*
X1383317Y148672D01*
X1382960Y148393D01*
X1382577Y148132D01*
X1382169Y147888D01*
X1381737Y147668D01*
X1381280Y147476D01*
X1380800Y147312D01*
X1380295Y147177D01*
X1379767Y147070D01*
X1379215Y146992D01*
X1378639Y146942D01*
X1378040Y146921D01*
G37*
%LPC*%
G36*
X1378040Y151064D02*
X1378489Y151090D01*
X1378915Y151146D01*
X1379317Y151233D01*
X1379696Y151350D01*
X1380050Y151498D01*
X1380381Y151677D01*
X1380687Y151886D01*
X1380970Y152125D01*
X1381225Y152388D01*
X1381446Y152665D01*
X1381634Y152957D01*
X1381789Y153264D01*
X1381912Y153585D01*
X1382000Y153922D01*
X1382056Y154273D01*
X1382079Y154640D01*
X1382056Y155006D01*
X1382000Y155356D01*
X1381912Y155692D01*
X1381789Y156012D01*
X1381634Y156317D01*
X1381446Y156607D01*
X1381225Y156881D01*
X1380970Y157141D01*
X1380687Y157377D01*
X1380381Y157584D01*
X1380050Y157760D01*
X1379696Y157906D01*
X1379317Y158022D01*
X1378915Y158107D01*
X1378489Y158163D01*
X1378040Y158188D01*
X1377985Y158188D01*
X1377535Y158163D01*
X1377110Y158107D01*
X1376707Y158022D01*
X1376329Y157906D01*
X1375975Y157760D01*
X1375644Y157584D01*
X1375338Y157377D01*
X1375055Y157141D01*
X1374800Y156881D01*
X1374579Y156607D01*
X1374391Y156317D01*
X1374235Y156012D01*
X1374113Y155692D01*
X1374024Y155356D01*
X1373969Y155006D01*
X1373946Y154640D01*
X1373968Y154273D01*
X1374023Y153922D01*
X1374111Y153585D01*
X1374232Y153264D01*
X1374385Y152957D01*
X1374572Y152665D01*
X1374792Y152388D01*
X1375044Y152125D01*
X1375326Y151886D01*
X1375632Y151677D01*
X1375962Y151498D01*
X1376318Y151350D01*
X1376698Y151233D01*
X1377102Y151146D01*
X1377531Y151090D01*
X1377985Y151064D01*
X1378040Y151064D01*
G37*
%LPD*%
G36*
X1378094Y312304D02*
X1378040Y312304D01*
X1377515Y312325D01*
X1377003Y312377D01*
X1376503Y312460D01*
X1376017Y312575D01*
X1375543Y312722D01*
X1375082Y312899D01*
X1374634Y313108D01*
X1374199Y313349D01*
X1373781Y313617D01*
X1373385Y313909D01*
X1373011Y314224D01*
X1372659Y314563D01*
X1372328Y314926D01*
X1372020Y315313D01*
X1371733Y315724D01*
X1371469Y316158D01*
X1371231Y316612D01*
X1371023Y317082D01*
X1370847Y317568D01*
X1370702Y318071D01*
X1370587Y318589D01*
X1370504Y319124D01*
X1370451Y319674D01*
X1370430Y320241D01*
X1370451Y320804D01*
X1370503Y321351D01*
X1370585Y321883D01*
X1370698Y322398D01*
X1370841Y322897D01*
X1371015Y323380D01*
X1371220Y323847D01*
X1371455Y324298D01*
X1371716Y324729D01*
X1371999Y325136D01*
X1372304Y325520D01*
X1372631Y325881D01*
X1372980Y326218D01*
X1373351Y326531D01*
X1373744Y326820D01*
X1374158Y327086D01*
X1374591Y327325D01*
X1375036Y327533D01*
X1375494Y327709D01*
X1375966Y327854D01*
X1376451Y327968D01*
X1376949Y328051D01*
X1377461Y328103D01*
X1377985Y328123D01*
X1378040Y328123D01*
X1378565Y328103D01*
X1379077Y328051D01*
X1379576Y327967D01*
X1380063Y327852D01*
X1380536Y327706D01*
X1380997Y327528D01*
X1381445Y327319D01*
X1381881Y327078D01*
X1382298Y326810D01*
X1382694Y326519D01*
X1383068Y326203D01*
X1383421Y325864D01*
X1383751Y325501D01*
X1384059Y325114D01*
X1384346Y324704D01*
X1384611Y324269D01*
X1384849Y323815D01*
X1385056Y323345D01*
X1385232Y322859D01*
X1385378Y322357D01*
X1385492Y321838D01*
X1385575Y321304D01*
X1385628Y320753D01*
X1385649Y320186D01*
X1385628Y319623D01*
X1385577Y319076D01*
X1385494Y318545D01*
X1385382Y318030D01*
X1385238Y317530D01*
X1385064Y317047D01*
X1384860Y316580D01*
X1384625Y316129D01*
X1384363Y315698D01*
X1384080Y315291D01*
X1383775Y314907D01*
X1383448Y314546D01*
X1383099Y314210D01*
X1382728Y313896D01*
X1382336Y313607D01*
X1381921Y313341D01*
X1381489Y313102D01*
X1381043Y312895D01*
X1380585Y312718D01*
X1380113Y312573D01*
X1379628Y312459D01*
X1379130Y312376D01*
X1378619Y312324D01*
X1378094Y312304D01*
G37*
%LPC*%
G36*
X1378040Y316393D02*
X1378449Y316415D01*
X1378842Y316469D01*
X1379219Y316554D01*
X1379580Y316671D01*
X1379926Y316820D01*
X1380256Y317001D01*
X1380570Y317213D01*
X1380868Y317457D01*
X1381141Y317728D01*
X1381379Y318021D01*
X1381582Y318335D01*
X1381751Y318672D01*
X1381885Y319031D01*
X1381984Y319413D01*
X1382049Y319816D01*
X1382079Y320241D01*
X1382050Y320677D01*
X1381987Y321088D01*
X1381891Y321474D01*
X1381760Y321835D01*
X1381595Y322171D01*
X1381396Y322482D01*
X1381162Y322768D01*
X1380895Y323028D01*
X1380603Y323261D01*
X1380294Y323463D01*
X1379968Y323635D01*
X1379626Y323776D01*
X1379268Y323886D01*
X1378893Y323966D01*
X1378502Y324016D01*
X1378094Y324035D01*
X1378040Y324035D01*
X1377631Y324012D01*
X1377238Y323959D01*
X1376860Y323873D01*
X1376499Y323756D01*
X1376153Y323607D01*
X1375824Y323426D01*
X1375510Y323214D01*
X1375211Y322970D01*
X1374939Y322699D01*
X1374700Y322407D01*
X1374497Y322092D01*
X1374328Y321755D01*
X1374194Y321396D01*
X1374095Y321015D01*
X1374030Y320612D01*
X1374000Y320186D01*
X1374029Y319750D01*
X1374092Y319339D01*
X1374189Y318953D01*
X1374320Y318592D01*
X1374485Y318256D01*
X1374684Y317945D01*
X1374917Y317660D01*
X1375184Y317399D01*
X1375477Y317166D01*
X1375786Y316964D01*
X1376111Y316792D01*
X1376453Y316651D01*
X1376811Y316541D01*
X1377186Y316461D01*
X1377577Y316411D01*
X1377985Y316393D01*
X1378040Y316393D01*
G37*
%LPD*%
G36*
X1378094Y330429D02*
X1378040Y330429D01*
X1377515Y330450D01*
X1377003Y330502D01*
X1376503Y330585D01*
X1376017Y330700D01*
X1375543Y330847D01*
X1375082Y331024D01*
X1374634Y331233D01*
X1374199Y331474D01*
X1373781Y331742D01*
X1373385Y332034D01*
X1373011Y332349D01*
X1372659Y332688D01*
X1372328Y333051D01*
X1372020Y333438D01*
X1371733Y333849D01*
X1371469Y334283D01*
X1371231Y334737D01*
X1371023Y335207D01*
X1370847Y335693D01*
X1370702Y336196D01*
X1370587Y336714D01*
X1370504Y337249D01*
X1370451Y337799D01*
X1370430Y338366D01*
X1370451Y338929D01*
X1370503Y339476D01*
X1370585Y340008D01*
X1370698Y340523D01*
X1370841Y341022D01*
X1371015Y341505D01*
X1371220Y341972D01*
X1371455Y342423D01*
X1371716Y342854D01*
X1371999Y343261D01*
X1372304Y343645D01*
X1372631Y344006D01*
X1372980Y344343D01*
X1373351Y344656D01*
X1373744Y344945D01*
X1374158Y345211D01*
X1374591Y345450D01*
X1375036Y345658D01*
X1375494Y345834D01*
X1375966Y345979D01*
X1376451Y346093D01*
X1376949Y346176D01*
X1377461Y346228D01*
X1377985Y346248D01*
X1378040Y346248D01*
X1378565Y346228D01*
X1379077Y346176D01*
X1379576Y346092D01*
X1380063Y345977D01*
X1380536Y345831D01*
X1380997Y345653D01*
X1381445Y345444D01*
X1381881Y345203D01*
X1382298Y344935D01*
X1382694Y344644D01*
X1383068Y344328D01*
X1383421Y343989D01*
X1383751Y343626D01*
X1384059Y343239D01*
X1384346Y342829D01*
X1384611Y342394D01*
X1384849Y341940D01*
X1385056Y341470D01*
X1385232Y340984D01*
X1385378Y340482D01*
X1385492Y339963D01*
X1385575Y339429D01*
X1385628Y338878D01*
X1385649Y338311D01*
X1385628Y337748D01*
X1385577Y337201D01*
X1385494Y336670D01*
X1385382Y336155D01*
X1385238Y335655D01*
X1385064Y335172D01*
X1384860Y334705D01*
X1384625Y334254D01*
X1384363Y333823D01*
X1384080Y333416D01*
X1383775Y333032D01*
X1383448Y332671D01*
X1383099Y332335D01*
X1382728Y332021D01*
X1382336Y331732D01*
X1381921Y331466D01*
X1381489Y331227D01*
X1381043Y331020D01*
X1380585Y330843D01*
X1380113Y330698D01*
X1379628Y330584D01*
X1379130Y330501D01*
X1378619Y330449D01*
X1378094Y330429D01*
G37*
%LPC*%
G36*
X1378040Y334518D02*
X1378449Y334540D01*
X1378842Y334594D01*
X1379219Y334679D01*
X1379580Y334796D01*
X1379926Y334945D01*
X1380256Y335126D01*
X1380570Y335338D01*
X1380868Y335582D01*
X1381141Y335853D01*
X1381379Y336146D01*
X1381582Y336460D01*
X1381751Y336797D01*
X1381885Y337156D01*
X1381984Y337538D01*
X1382049Y337941D01*
X1382079Y338366D01*
X1382050Y338802D01*
X1381987Y339213D01*
X1381891Y339599D01*
X1381760Y339960D01*
X1381595Y340296D01*
X1381396Y340607D01*
X1381162Y340893D01*
X1380895Y341153D01*
X1380603Y341386D01*
X1380294Y341588D01*
X1379968Y341760D01*
X1379626Y341901D01*
X1379268Y342011D01*
X1378893Y342091D01*
X1378502Y342141D01*
X1378094Y342160D01*
X1378040Y342160D01*
X1377631Y342137D01*
X1377238Y342084D01*
X1376860Y341998D01*
X1376499Y341881D01*
X1376153Y341732D01*
X1375824Y341551D01*
X1375510Y341339D01*
X1375211Y341095D01*
X1374939Y340824D01*
X1374700Y340532D01*
X1374497Y340217D01*
X1374328Y339880D01*
X1374194Y339521D01*
X1374095Y339140D01*
X1374030Y338737D01*
X1374000Y338311D01*
X1374029Y337875D01*
X1374092Y337464D01*
X1374189Y337078D01*
X1374320Y336717D01*
X1374485Y336381D01*
X1374684Y336070D01*
X1374917Y335785D01*
X1375184Y335524D01*
X1375477Y335291D01*
X1375786Y335089D01*
X1376111Y334917D01*
X1376453Y334776D01*
X1376811Y334666D01*
X1377186Y334586D01*
X1377577Y334536D01*
X1377985Y334518D01*
X1378040Y334518D01*
G37*
%LPD*%
G36*
X1385322Y32293D02*
X1366229Y32293D01*
X1366229Y36491D01*
X1374575Y36491D01*
X1366229Y44239D01*
X1366229Y49313D01*
X1374330Y41538D01*
X1385322Y49668D01*
X1385322Y44621D01*
X1377194Y38701D01*
X1379485Y36491D01*
X1385322Y36491D01*
X1385322Y32293D01*
G37*
G36*
X1385322Y222575D02*
X1366229Y222575D01*
X1366229Y226772D01*
X1374575Y226772D01*
X1366229Y234520D01*
X1366229Y239595D01*
X1374330Y231820D01*
X1385322Y239949D01*
X1385322Y234902D01*
X1377194Y228982D01*
X1379485Y226772D01*
X1385322Y226772D01*
X1385322Y222575D01*
G37*
G36*
X1381123Y83703D02*
X1381068Y83703D01*
X1380775Y83714D01*
X1380491Y83738D01*
X1380217Y83774D01*
X1379953Y83822D01*
X1379453Y83954D01*
X1378993Y84136D01*
X1378571Y84366D01*
X1378188Y84645D01*
X1377844Y84972D01*
X1377539Y85349D01*
X1377272Y85766D01*
X1377040Y86215D01*
X1376844Y86697D01*
X1376684Y87211D01*
X1376560Y87758D01*
X1376473Y88337D01*
X1376421Y88949D01*
X1376405Y89593D01*
X1376417Y90125D01*
X1376448Y90628D01*
X1376500Y91101D01*
X1376571Y91545D01*
X1376659Y91968D01*
X1376761Y92380D01*
X1376876Y92780D01*
X1377004Y93169D01*
X1376759Y93169D01*
X1376444Y93156D01*
X1376149Y93119D01*
X1375872Y93057D01*
X1375615Y92970D01*
X1375376Y92859D01*
X1375157Y92723D01*
X1374957Y92563D01*
X1374775Y92378D01*
X1374614Y92168D01*
X1374474Y91935D01*
X1374356Y91677D01*
X1374258Y91396D01*
X1374182Y91090D01*
X1374128Y90761D01*
X1374094Y90407D01*
X1374082Y90030D01*
X1374097Y89461D01*
X1374137Y88919D01*
X1374203Y88405D01*
X1374294Y87918D01*
X1374408Y87443D01*
X1374543Y86964D01*
X1374699Y86480D01*
X1374875Y85992D01*
X1371711Y84956D01*
X1371456Y85555D01*
X1371229Y86172D01*
X1371030Y86809D01*
X1370859Y87465D01*
X1370722Y88162D01*
X1370623Y88922D01*
X1370562Y89745D01*
X1370539Y90630D01*
X1370547Y91048D01*
X1370568Y91450D01*
X1370602Y91839D01*
X1370649Y92212D01*
X1370709Y92571D01*
X1370782Y92915D01*
X1370869Y93245D01*
X1370968Y93560D01*
X1371080Y93861D01*
X1371203Y94148D01*
X1371337Y94420D01*
X1371482Y94678D01*
X1371638Y94922D01*
X1371806Y95151D01*
X1371984Y95367D01*
X1372174Y95568D01*
X1372386Y95765D01*
X1372608Y95948D01*
X1372842Y96118D01*
X1373087Y96275D01*
X1373343Y96418D01*
X1373611Y96548D01*
X1373889Y96664D01*
X1374179Y96767D01*
X1374789Y96935D01*
X1375435Y97055D01*
X1375773Y97097D01*
X1376119Y97126D01*
X1376475Y97144D01*
X1376840Y97149D01*
X1385322Y97149D01*
X1385322Y93142D01*
X1383742Y93142D01*
X1384144Y92746D01*
X1384503Y92309D01*
X1384817Y91830D01*
X1385087Y91309D01*
X1385204Y91032D01*
X1385305Y90742D01*
X1385391Y90438D01*
X1385462Y90121D01*
X1385518Y89790D01*
X1385559Y89447D01*
X1385585Y89090D01*
X1385595Y88720D01*
X1385575Y88200D01*
X1385520Y87703D01*
X1385429Y87227D01*
X1385303Y86774D01*
X1385141Y86342D01*
X1384944Y85932D01*
X1384711Y85544D01*
X1384443Y85178D01*
X1384141Y84844D01*
X1383807Y84553D01*
X1383440Y84305D01*
X1383041Y84099D01*
X1382610Y83936D01*
X1382147Y83816D01*
X1381651Y83738D01*
X1381123Y83703D01*
G37*
%LPC*%
G36*
X1380959Y87710D02*
X1381164Y87723D01*
X1381358Y87755D01*
X1381539Y87806D01*
X1381709Y87875D01*
X1381866Y87964D01*
X1382011Y88071D01*
X1382145Y88196D01*
X1382266Y88341D01*
X1382374Y88501D01*
X1382468Y88674D01*
X1382548Y88859D01*
X1382614Y89057D01*
X1382665Y89268D01*
X1382702Y89491D01*
X1382725Y89727D01*
X1382734Y89975D01*
X1382718Y90335D01*
X1382681Y90675D01*
X1382623Y90997D01*
X1382544Y91301D01*
X1382443Y91585D01*
X1382321Y91851D01*
X1382178Y92098D01*
X1382014Y92326D01*
X1381831Y92532D01*
X1381635Y92711D01*
X1381426Y92863D01*
X1381202Y92989D01*
X1380964Y93087D01*
X1380712Y93160D01*
X1380447Y93205D01*
X1380167Y93224D01*
X1379430Y93224D01*
X1379312Y92947D01*
X1379206Y92653D01*
X1379114Y92341D01*
X1379034Y92012D01*
X1378969Y91670D01*
X1378923Y91316D01*
X1378894Y90951D01*
X1378884Y90576D01*
X1378893Y90249D01*
X1378917Y89941D01*
X1378958Y89651D01*
X1379015Y89379D01*
X1379088Y89126D01*
X1379177Y88892D01*
X1379282Y88675D01*
X1379403Y88477D01*
X1379539Y88300D01*
X1379690Y88146D01*
X1379855Y88015D01*
X1380036Y87908D01*
X1380231Y87823D01*
X1380441Y87762D01*
X1380665Y87724D01*
X1380904Y87710D01*
X1380959Y87710D01*
G37*
%LPD*%
G36*
X1381123Y113546D02*
X1381068Y113546D01*
X1380775Y113558D01*
X1380491Y113582D01*
X1380217Y113617D01*
X1379953Y113665D01*
X1379453Y113798D01*
X1378993Y113980D01*
X1378571Y114210D01*
X1378188Y114488D01*
X1377844Y114816D01*
X1377539Y115192D01*
X1377272Y115609D01*
X1377040Y116059D01*
X1376844Y116541D01*
X1376684Y117055D01*
X1376560Y117602D01*
X1376473Y118181D01*
X1376421Y118793D01*
X1376405Y119437D01*
X1376417Y119969D01*
X1376448Y120472D01*
X1376500Y120945D01*
X1376571Y121389D01*
X1376659Y121812D01*
X1376761Y122224D01*
X1376876Y122624D01*
X1377004Y123013D01*
X1376759Y123013D01*
X1376444Y123000D01*
X1376149Y122963D01*
X1375872Y122901D01*
X1375615Y122814D01*
X1375376Y122703D01*
X1375157Y122567D01*
X1374957Y122406D01*
X1374775Y122221D01*
X1374614Y122012D01*
X1374474Y121778D01*
X1374356Y121521D01*
X1374258Y121239D01*
X1374182Y120934D01*
X1374128Y120604D01*
X1374094Y120251D01*
X1374082Y119874D01*
X1374097Y119304D01*
X1374137Y118763D01*
X1374203Y118248D01*
X1374294Y117762D01*
X1374408Y117287D01*
X1374543Y116808D01*
X1374699Y116324D01*
X1374875Y115836D01*
X1371711Y114800D01*
X1371456Y115398D01*
X1371229Y116016D01*
X1371030Y116653D01*
X1370859Y117309D01*
X1370722Y118006D01*
X1370623Y118766D01*
X1370562Y119589D01*
X1370539Y120474D01*
X1370547Y120891D01*
X1370568Y121294D01*
X1370602Y121682D01*
X1370649Y122056D01*
X1370709Y122415D01*
X1370782Y122759D01*
X1370869Y123089D01*
X1370968Y123404D01*
X1371080Y123705D01*
X1371203Y123991D01*
X1371337Y124264D01*
X1371482Y124522D01*
X1371638Y124766D01*
X1371806Y124995D01*
X1371984Y125211D01*
X1372174Y125412D01*
X1372386Y125608D01*
X1372608Y125792D01*
X1372842Y125962D01*
X1373087Y126119D01*
X1373343Y126262D01*
X1373611Y126392D01*
X1373889Y126508D01*
X1374179Y126611D01*
X1374789Y126779D01*
X1375435Y126899D01*
X1375773Y126941D01*
X1376119Y126970D01*
X1376475Y126987D01*
X1376840Y126993D01*
X1385322Y126993D01*
X1385322Y122986D01*
X1383742Y122986D01*
X1384144Y122590D01*
X1384503Y122153D01*
X1384817Y121674D01*
X1385087Y121153D01*
X1385204Y120876D01*
X1385305Y120585D01*
X1385391Y120282D01*
X1385462Y119964D01*
X1385518Y119634D01*
X1385559Y119290D01*
X1385585Y118934D01*
X1385595Y118563D01*
X1385575Y118044D01*
X1385520Y117546D01*
X1385429Y117071D01*
X1385303Y116617D01*
X1385141Y116186D01*
X1384944Y115776D01*
X1384711Y115388D01*
X1384443Y115022D01*
X1384141Y114688D01*
X1383807Y114397D01*
X1383440Y114149D01*
X1383041Y113943D01*
X1382610Y113780D01*
X1382147Y113659D01*
X1381651Y113581D01*
X1381123Y113546D01*
G37*
%LPC*%
G36*
X1380959Y117553D02*
X1381164Y117567D01*
X1381358Y117599D01*
X1381539Y117650D01*
X1381709Y117719D01*
X1381866Y117807D01*
X1382011Y117914D01*
X1382145Y118040D01*
X1382266Y118185D01*
X1382374Y118345D01*
X1382468Y118517D01*
X1382548Y118703D01*
X1382614Y118901D01*
X1382665Y119111D01*
X1382702Y119335D01*
X1382725Y119570D01*
X1382734Y119819D01*
X1382718Y120178D01*
X1382681Y120519D01*
X1382623Y120841D01*
X1382544Y121144D01*
X1382443Y121429D01*
X1382321Y121695D01*
X1382178Y121942D01*
X1382014Y122170D01*
X1381831Y122376D01*
X1381635Y122555D01*
X1381426Y122707D01*
X1381202Y122832D01*
X1380964Y122931D01*
X1380712Y123003D01*
X1380447Y123049D01*
X1380167Y123067D01*
X1379430Y123067D01*
X1379312Y122791D01*
X1379206Y122496D01*
X1379114Y122185D01*
X1379034Y121856D01*
X1378969Y121513D01*
X1378923Y121160D01*
X1378894Y120795D01*
X1378884Y120420D01*
X1378893Y120093D01*
X1378917Y119785D01*
X1378958Y119495D01*
X1379015Y119223D01*
X1379088Y118970D01*
X1379177Y118735D01*
X1379282Y118519D01*
X1379403Y118321D01*
X1379539Y118144D01*
X1379690Y117990D01*
X1379855Y117859D01*
X1380036Y117752D01*
X1380231Y117667D01*
X1380441Y117606D01*
X1380665Y117568D01*
X1380904Y117553D01*
X1380959Y117553D01*
G37*
%LPD*%
G36*
X1381123Y240890D02*
X1381068Y240890D01*
X1380775Y240902D01*
X1380491Y240925D01*
X1380217Y240961D01*
X1379953Y241009D01*
X1379453Y241142D01*
X1378993Y241323D01*
X1378571Y241553D01*
X1378188Y241832D01*
X1377844Y242160D01*
X1377539Y242536D01*
X1377272Y242953D01*
X1377040Y243402D01*
X1376844Y243884D01*
X1376684Y244399D01*
X1376560Y244945D01*
X1376473Y245525D01*
X1376421Y246136D01*
X1376405Y246781D01*
X1376417Y247313D01*
X1376448Y247815D01*
X1376500Y248289D01*
X1376571Y248732D01*
X1376659Y249156D01*
X1376761Y249568D01*
X1376876Y249968D01*
X1377004Y250357D01*
X1376759Y250357D01*
X1376444Y250344D01*
X1376149Y250307D01*
X1375872Y250245D01*
X1375615Y250158D01*
X1375376Y250047D01*
X1375157Y249911D01*
X1374957Y249750D01*
X1374775Y249565D01*
X1374614Y249356D01*
X1374474Y249122D01*
X1374356Y248865D01*
X1374258Y248583D01*
X1374182Y248278D01*
X1374128Y247948D01*
X1374094Y247595D01*
X1374082Y247217D01*
X1374097Y246648D01*
X1374137Y246106D01*
X1374203Y245592D01*
X1374294Y245106D01*
X1374408Y244631D01*
X1374543Y244151D01*
X1374699Y243668D01*
X1374875Y243180D01*
X1371711Y242144D01*
X1371456Y242742D01*
X1371229Y243360D01*
X1371030Y243996D01*
X1370859Y244652D01*
X1370722Y245350D01*
X1370623Y246110D01*
X1370562Y246932D01*
X1370539Y247818D01*
X1370547Y248235D01*
X1370568Y248638D01*
X1370602Y249026D01*
X1370649Y249400D01*
X1370709Y249759D01*
X1370782Y250103D01*
X1370869Y250433D01*
X1370968Y250748D01*
X1371080Y251049D01*
X1371203Y251335D01*
X1371337Y251607D01*
X1371482Y251866D01*
X1371638Y252109D01*
X1371806Y252339D01*
X1371984Y252554D01*
X1372174Y252755D01*
X1372386Y252952D01*
X1372608Y253136D01*
X1372842Y253306D01*
X1373087Y253462D01*
X1373343Y253606D01*
X1373611Y253735D01*
X1373889Y253852D01*
X1374179Y253955D01*
X1374789Y254123D01*
X1375435Y254243D01*
X1375773Y254284D01*
X1376119Y254314D01*
X1376475Y254331D01*
X1376840Y254336D01*
X1385322Y254336D01*
X1385322Y250329D01*
X1383742Y250329D01*
X1384144Y249934D01*
X1384503Y249496D01*
X1384817Y249017D01*
X1385087Y248497D01*
X1385204Y248220D01*
X1385305Y247929D01*
X1385391Y247625D01*
X1385462Y247308D01*
X1385518Y246978D01*
X1385559Y246634D01*
X1385585Y246277D01*
X1385595Y245907D01*
X1385575Y245388D01*
X1385520Y244890D01*
X1385429Y244415D01*
X1385303Y243961D01*
X1385141Y243529D01*
X1384944Y243120D01*
X1384711Y242732D01*
X1384443Y242366D01*
X1384141Y242032D01*
X1383807Y241741D01*
X1383440Y241492D01*
X1383041Y241287D01*
X1382610Y241124D01*
X1382147Y241003D01*
X1381651Y240925D01*
X1381123Y240890D01*
G37*
%LPC*%
G36*
X1380959Y244897D02*
X1381164Y244910D01*
X1381358Y244943D01*
X1381539Y244993D01*
X1381709Y245063D01*
X1381866Y245151D01*
X1382011Y245258D01*
X1382145Y245384D01*
X1382266Y245528D01*
X1382374Y245688D01*
X1382468Y245861D01*
X1382548Y246046D01*
X1382614Y246244D01*
X1382665Y246455D01*
X1382702Y246678D01*
X1382725Y246914D01*
X1382734Y247163D01*
X1382718Y247522D01*
X1382681Y247863D01*
X1382623Y248185D01*
X1382544Y248488D01*
X1382443Y248773D01*
X1382321Y249038D01*
X1382178Y249285D01*
X1382014Y249514D01*
X1381831Y249719D01*
X1381635Y249898D01*
X1381426Y250051D01*
X1381202Y250176D01*
X1380964Y250275D01*
X1380712Y250347D01*
X1380447Y250392D01*
X1380167Y250411D01*
X1379430Y250411D01*
X1379312Y250134D01*
X1379206Y249840D01*
X1379114Y249529D01*
X1379034Y249200D01*
X1378969Y248857D01*
X1378923Y248503D01*
X1378894Y248139D01*
X1378884Y247763D01*
X1378893Y247437D01*
X1378917Y247128D01*
X1378958Y246838D01*
X1379015Y246567D01*
X1379088Y246314D01*
X1379177Y246079D01*
X1379282Y245863D01*
X1379403Y245665D01*
X1379539Y245488D01*
X1379690Y245334D01*
X1379855Y245203D01*
X1380036Y245095D01*
X1380231Y245011D01*
X1380441Y244950D01*
X1380665Y244912D01*
X1380904Y244897D01*
X1380959Y244897D01*
G37*
%LPD*%
G36*
X1381123Y265296D02*
X1381068Y265296D01*
X1380775Y265308D01*
X1380491Y265332D01*
X1380217Y265367D01*
X1379953Y265415D01*
X1379453Y265548D01*
X1378993Y265730D01*
X1378571Y265960D01*
X1378188Y266238D01*
X1377844Y266566D01*
X1377539Y266942D01*
X1377272Y267359D01*
X1377040Y267809D01*
X1376844Y268291D01*
X1376684Y268805D01*
X1376560Y269352D01*
X1376473Y269931D01*
X1376421Y270543D01*
X1376405Y271187D01*
X1376417Y271719D01*
X1376448Y272222D01*
X1376500Y272695D01*
X1376571Y273139D01*
X1376659Y273562D01*
X1376761Y273974D01*
X1376876Y274374D01*
X1377004Y274763D01*
X1376759Y274763D01*
X1376444Y274750D01*
X1376149Y274713D01*
X1375872Y274651D01*
X1375615Y274564D01*
X1375376Y274453D01*
X1375157Y274317D01*
X1374957Y274156D01*
X1374775Y273971D01*
X1374614Y273762D01*
X1374474Y273528D01*
X1374356Y273271D01*
X1374258Y272989D01*
X1374182Y272684D01*
X1374128Y272354D01*
X1374094Y272001D01*
X1374082Y271624D01*
X1374097Y271054D01*
X1374137Y270513D01*
X1374203Y269998D01*
X1374294Y269512D01*
X1374408Y269037D01*
X1374543Y268558D01*
X1374699Y268074D01*
X1374875Y267586D01*
X1371711Y266550D01*
X1371456Y267148D01*
X1371229Y267766D01*
X1371030Y268403D01*
X1370859Y269059D01*
X1370722Y269756D01*
X1370623Y270516D01*
X1370562Y271339D01*
X1370539Y272224D01*
X1370547Y272641D01*
X1370568Y273044D01*
X1370602Y273432D01*
X1370649Y273806D01*
X1370709Y274165D01*
X1370782Y274509D01*
X1370869Y274839D01*
X1370968Y275154D01*
X1371080Y275455D01*
X1371203Y275741D01*
X1371337Y276014D01*
X1371482Y276272D01*
X1371638Y276516D01*
X1371806Y276745D01*
X1371984Y276961D01*
X1372174Y277162D01*
X1372386Y277358D01*
X1372608Y277542D01*
X1372842Y277712D01*
X1373087Y277869D01*
X1373343Y278012D01*
X1373611Y278142D01*
X1373889Y278258D01*
X1374179Y278361D01*
X1374789Y278529D01*
X1375435Y278649D01*
X1375773Y278691D01*
X1376119Y278720D01*
X1376475Y278737D01*
X1376840Y278743D01*
X1385322Y278743D01*
X1385322Y274736D01*
X1383742Y274736D01*
X1384144Y274340D01*
X1384503Y273903D01*
X1384817Y273424D01*
X1385087Y272903D01*
X1385204Y272626D01*
X1385305Y272335D01*
X1385391Y272032D01*
X1385462Y271714D01*
X1385518Y271384D01*
X1385559Y271040D01*
X1385585Y270684D01*
X1385595Y270313D01*
X1385575Y269794D01*
X1385520Y269296D01*
X1385429Y268821D01*
X1385303Y268367D01*
X1385141Y267936D01*
X1384944Y267526D01*
X1384711Y267138D01*
X1384443Y266772D01*
X1384141Y266438D01*
X1383807Y266147D01*
X1383440Y265899D01*
X1383041Y265693D01*
X1382610Y265530D01*
X1382147Y265409D01*
X1381651Y265331D01*
X1381123Y265296D01*
G37*
%LPC*%
G36*
X1380959Y269303D02*
X1381164Y269317D01*
X1381358Y269349D01*
X1381539Y269400D01*
X1381709Y269469D01*
X1381866Y269557D01*
X1382011Y269664D01*
X1382145Y269790D01*
X1382266Y269935D01*
X1382374Y270095D01*
X1382468Y270267D01*
X1382548Y270453D01*
X1382614Y270651D01*
X1382665Y270861D01*
X1382702Y271085D01*
X1382725Y271320D01*
X1382734Y271569D01*
X1382718Y271928D01*
X1382681Y272269D01*
X1382623Y272591D01*
X1382544Y272894D01*
X1382443Y273179D01*
X1382321Y273445D01*
X1382178Y273692D01*
X1382014Y273920D01*
X1381831Y274126D01*
X1381635Y274305D01*
X1381426Y274457D01*
X1381202Y274582D01*
X1380964Y274681D01*
X1380712Y274753D01*
X1380447Y274799D01*
X1380167Y274817D01*
X1379430Y274817D01*
X1379312Y274541D01*
X1379206Y274246D01*
X1379114Y273935D01*
X1379034Y273606D01*
X1378969Y273263D01*
X1378923Y272910D01*
X1378894Y272545D01*
X1378884Y272170D01*
X1378893Y271843D01*
X1378917Y271535D01*
X1378958Y271245D01*
X1379015Y270973D01*
X1379088Y270720D01*
X1379177Y270485D01*
X1379282Y270269D01*
X1379403Y270071D01*
X1379539Y269894D01*
X1379690Y269740D01*
X1379855Y269609D01*
X1380036Y269502D01*
X1380231Y269417D01*
X1380441Y269356D01*
X1380665Y269318D01*
X1380904Y269303D01*
X1380959Y269303D01*
G37*
%LPD*%
G36*
X1381123Y383734D02*
X1381068Y383734D01*
X1380775Y383745D01*
X1380491Y383769D01*
X1380217Y383805D01*
X1379953Y383853D01*
X1379453Y383986D01*
X1378993Y384167D01*
X1378571Y384397D01*
X1378188Y384676D01*
X1377844Y385004D01*
X1377539Y385380D01*
X1377272Y385797D01*
X1377040Y386246D01*
X1376844Y386728D01*
X1376684Y387242D01*
X1376560Y387789D01*
X1376473Y388368D01*
X1376421Y388980D01*
X1376405Y389624D01*
X1376417Y390156D01*
X1376448Y390659D01*
X1376500Y391132D01*
X1376571Y391576D01*
X1376659Y392000D01*
X1376761Y392411D01*
X1376876Y392812D01*
X1377004Y393200D01*
X1376759Y393200D01*
X1376444Y393188D01*
X1376149Y393150D01*
X1375872Y393088D01*
X1375615Y393002D01*
X1375376Y392890D01*
X1375157Y392754D01*
X1374957Y392594D01*
X1374775Y392409D01*
X1374614Y392199D01*
X1374474Y391966D01*
X1374356Y391708D01*
X1374258Y391427D01*
X1374182Y391121D01*
X1374128Y390792D01*
X1374094Y390439D01*
X1374082Y390061D01*
X1374097Y389492D01*
X1374137Y388950D01*
X1374203Y388436D01*
X1374294Y387949D01*
X1374408Y387474D01*
X1374543Y386995D01*
X1374699Y386512D01*
X1374875Y386023D01*
X1371711Y384988D01*
X1371456Y385586D01*
X1371229Y386203D01*
X1371030Y386840D01*
X1370859Y387496D01*
X1370722Y388193D01*
X1370623Y388953D01*
X1370562Y389776D01*
X1370539Y390662D01*
X1370547Y391079D01*
X1370568Y391482D01*
X1370602Y391870D01*
X1370649Y392243D01*
X1370709Y392602D01*
X1370782Y392947D01*
X1370869Y393276D01*
X1370968Y393592D01*
X1371080Y393892D01*
X1371203Y394179D01*
X1371337Y394451D01*
X1371482Y394709D01*
X1371638Y394953D01*
X1371806Y395183D01*
X1371984Y395398D01*
X1372174Y395599D01*
X1372386Y395796D01*
X1372608Y395979D01*
X1372842Y396149D01*
X1373087Y396306D01*
X1373343Y396449D01*
X1373611Y396579D01*
X1373889Y396695D01*
X1374179Y396798D01*
X1374789Y396967D01*
X1375435Y397086D01*
X1375773Y397128D01*
X1376119Y397158D01*
X1376475Y397175D01*
X1376840Y397180D01*
X1385322Y397180D01*
X1385322Y393173D01*
X1383742Y393173D01*
X1384144Y392777D01*
X1384503Y392340D01*
X1384817Y391861D01*
X1385087Y391341D01*
X1385204Y391063D01*
X1385305Y390773D01*
X1385391Y390469D01*
X1385462Y390152D01*
X1385518Y389822D01*
X1385559Y389478D01*
X1385585Y389121D01*
X1385595Y388751D01*
X1385575Y388231D01*
X1385520Y387734D01*
X1385429Y387258D01*
X1385303Y386805D01*
X1385141Y386373D01*
X1384944Y385963D01*
X1384711Y385575D01*
X1384443Y385209D01*
X1384141Y384876D01*
X1383807Y384585D01*
X1383440Y384336D01*
X1383041Y384130D01*
X1382610Y383967D01*
X1382147Y383847D01*
X1381651Y383769D01*
X1381123Y383734D01*
G37*
%LPC*%
G36*
X1380959Y387741D02*
X1381164Y387754D01*
X1381358Y387786D01*
X1381539Y387837D01*
X1381709Y387907D01*
X1381866Y387995D01*
X1382011Y388102D01*
X1382145Y388228D01*
X1382266Y388372D01*
X1382374Y388532D01*
X1382468Y388705D01*
X1382548Y388890D01*
X1382614Y389088D01*
X1382665Y389299D01*
X1382702Y389522D01*
X1382725Y389758D01*
X1382734Y390007D01*
X1382718Y390366D01*
X1382681Y390707D01*
X1382623Y391029D01*
X1382544Y391332D01*
X1382443Y391616D01*
X1382321Y391882D01*
X1382178Y392129D01*
X1382014Y392358D01*
X1381831Y392563D01*
X1381635Y392742D01*
X1381426Y392894D01*
X1381202Y393020D01*
X1380964Y393119D01*
X1380712Y393191D01*
X1380447Y393236D01*
X1380167Y393255D01*
X1379430Y393255D01*
X1379312Y392978D01*
X1379206Y392684D01*
X1379114Y392372D01*
X1379034Y392044D01*
X1378969Y391701D01*
X1378923Y391347D01*
X1378894Y390983D01*
X1378884Y390607D01*
X1378893Y390280D01*
X1378917Y389972D01*
X1378958Y389682D01*
X1379015Y389411D01*
X1379088Y389158D01*
X1379177Y388923D01*
X1379282Y388706D01*
X1379403Y388509D01*
X1379539Y388331D01*
X1379690Y388177D01*
X1379855Y388047D01*
X1380036Y387939D01*
X1380231Y387855D01*
X1380441Y387794D01*
X1380665Y387756D01*
X1380904Y387741D01*
X1380959Y387741D01*
G37*
%LPD*%
G36*
X1385322Y130576D02*
X1370703Y130576D01*
X1370703Y134719D01*
X1372774Y134719D01*
X1372315Y135088D01*
X1371890Y135496D01*
X1371499Y135944D01*
X1371142Y136432D01*
X1370982Y136694D01*
X1370842Y136973D01*
X1370723Y137270D01*
X1370624Y137583D01*
X1370545Y137913D01*
X1370486Y138260D01*
X1370448Y138624D01*
X1370430Y139005D01*
X1370458Y139580D01*
X1370530Y140122D01*
X1370646Y140629D01*
X1370806Y141103D01*
X1371010Y141544D01*
X1371258Y141950D01*
X1371549Y142323D01*
X1371885Y142662D01*
X1372260Y142964D01*
X1372669Y143227D01*
X1373114Y143450D01*
X1373593Y143633D01*
X1374106Y143776D01*
X1374655Y143880D01*
X1375238Y143943D01*
X1375855Y143967D01*
X1385322Y143967D01*
X1385322Y139824D01*
X1377165Y139824D01*
X1376808Y139812D01*
X1376473Y139779D01*
X1376161Y139727D01*
X1375872Y139654D01*
X1375605Y139561D01*
X1375361Y139448D01*
X1375140Y139315D01*
X1374942Y139162D01*
X1374766Y138990D01*
X1374614Y138801D01*
X1374485Y138596D01*
X1374380Y138373D01*
X1374298Y138133D01*
X1374239Y137876D01*
X1374203Y137603D01*
X1374191Y137312D01*
X1374203Y137020D01*
X1374239Y136744D01*
X1374298Y136483D01*
X1374380Y136239D01*
X1374485Y136011D01*
X1374614Y135799D01*
X1374766Y135602D01*
X1374942Y135422D01*
X1375140Y135260D01*
X1375361Y135119D01*
X1375605Y135000D01*
X1375872Y134901D01*
X1376161Y134824D01*
X1376473Y134768D01*
X1376808Y134733D01*
X1377165Y134719D01*
X1385322Y134719D01*
X1385322Y130576D01*
G37*
G36*
X1385322Y282326D02*
X1370703Y282326D01*
X1370703Y286469D01*
X1372774Y286469D01*
X1372315Y286838D01*
X1371890Y287246D01*
X1371499Y287694D01*
X1371142Y288182D01*
X1370982Y288444D01*
X1370842Y288723D01*
X1370723Y289020D01*
X1370624Y289333D01*
X1370545Y289663D01*
X1370486Y290010D01*
X1370448Y290374D01*
X1370430Y290755D01*
X1370458Y291330D01*
X1370530Y291872D01*
X1370646Y292379D01*
X1370806Y292853D01*
X1371010Y293294D01*
X1371258Y293700D01*
X1371549Y294073D01*
X1371885Y294412D01*
X1372260Y294714D01*
X1372669Y294977D01*
X1373114Y295200D01*
X1373593Y295383D01*
X1374106Y295526D01*
X1374655Y295630D01*
X1375238Y295693D01*
X1375855Y295717D01*
X1385322Y295717D01*
X1385322Y291574D01*
X1377165Y291574D01*
X1376808Y291562D01*
X1376473Y291529D01*
X1376161Y291477D01*
X1375872Y291404D01*
X1375605Y291311D01*
X1375361Y291198D01*
X1375140Y291065D01*
X1374942Y290912D01*
X1374766Y290740D01*
X1374614Y290551D01*
X1374485Y290346D01*
X1374380Y290123D01*
X1374298Y289883D01*
X1374239Y289626D01*
X1374203Y289353D01*
X1374191Y289062D01*
X1374203Y288770D01*
X1374239Y288494D01*
X1374298Y288233D01*
X1374380Y287989D01*
X1374485Y287761D01*
X1374614Y287549D01*
X1374766Y287352D01*
X1374942Y287172D01*
X1375140Y287010D01*
X1375361Y286869D01*
X1375605Y286750D01*
X1375872Y286651D01*
X1376161Y286574D01*
X1376473Y286518D01*
X1376808Y286483D01*
X1377165Y286469D01*
X1385322Y286469D01*
X1385322Y282326D01*
G37*
G36*
X1380169Y165873D02*
X1370703Y165873D01*
X1370703Y170016D01*
X1378860Y170016D01*
X1379217Y170028D01*
X1379552Y170061D01*
X1379864Y170113D01*
X1380153Y170186D01*
X1380420Y170279D01*
X1380664Y170392D01*
X1380885Y170525D01*
X1381083Y170678D01*
X1381259Y170850D01*
X1381411Y171039D01*
X1381540Y171244D01*
X1381645Y171467D01*
X1381727Y171707D01*
X1381786Y171963D01*
X1381821Y172237D01*
X1381833Y172528D01*
X1381821Y172820D01*
X1381786Y173096D01*
X1381727Y173357D01*
X1381645Y173601D01*
X1381540Y173829D01*
X1381411Y174041D01*
X1381259Y174238D01*
X1381083Y174418D01*
X1380885Y174580D01*
X1380664Y174721D01*
X1380420Y174840D01*
X1380153Y174938D01*
X1379864Y175016D01*
X1379552Y175072D01*
X1379217Y175107D01*
X1378860Y175121D01*
X1370703Y175121D01*
X1370703Y179264D01*
X1385322Y179264D01*
X1385322Y175121D01*
X1383251Y175121D01*
X1383710Y174752D01*
X1384135Y174344D01*
X1384526Y173896D01*
X1384883Y173408D01*
X1385043Y173146D01*
X1385183Y172867D01*
X1385302Y172570D01*
X1385401Y172257D01*
X1385480Y171927D01*
X1385539Y171580D01*
X1385577Y171216D01*
X1385595Y170835D01*
X1385567Y170260D01*
X1385495Y169718D01*
X1385379Y169211D01*
X1385219Y168737D01*
X1385015Y168296D01*
X1384767Y167890D01*
X1384476Y167517D01*
X1384140Y167178D01*
X1383765Y166876D01*
X1383355Y166613D01*
X1382911Y166390D01*
X1382432Y166207D01*
X1381918Y166064D01*
X1381370Y165960D01*
X1380787Y165897D01*
X1380169Y165873D01*
G37*
G36*
X1370703Y367610D02*
X1370703Y372001D01*
X1380660Y375329D01*
X1370703Y378520D01*
X1370703Y382829D01*
X1385680Y377211D01*
X1386212Y377006D01*
X1386705Y376792D01*
X1387158Y376569D01*
X1387573Y376338D01*
X1387948Y376097D01*
X1388284Y375848D01*
X1388581Y375589D01*
X1388839Y375322D01*
X1389062Y375038D01*
X1389254Y374732D01*
X1389416Y374403D01*
X1389548Y374050D01*
X1389649Y373675D01*
X1389719Y373276D01*
X1389759Y372855D01*
X1389769Y372410D01*
X1389750Y371867D01*
X1389699Y371352D01*
X1389616Y370865D01*
X1389500Y370406D01*
X1389354Y369967D01*
X1389182Y369541D01*
X1388985Y369128D01*
X1388760Y368728D01*
X1385762Y370119D01*
X1385990Y370550D01*
X1386171Y371006D01*
X1386241Y371237D01*
X1386291Y371462D01*
X1386323Y371680D01*
X1386335Y371892D01*
X1386326Y372141D01*
X1386289Y372367D01*
X1386225Y372569D01*
X1386134Y372748D01*
X1386008Y372910D01*
X1385840Y373062D01*
X1385631Y373205D01*
X1385380Y373338D01*
X1370703Y367610D01*
G37*
G36*
X1366229Y66235D02*
X1366229Y71146D01*
X1373893Y75700D01*
X1366229Y80336D01*
X1366229Y85111D01*
X1377712Y77772D01*
X1385322Y77772D01*
X1385322Y73574D01*
X1377794Y73574D01*
X1366229Y66235D01*
G37*
G36*
X1370099Y190242D02*
X1366229Y190242D01*
X1366229Y206061D01*
X1370099Y206061D01*
X1370099Y200251D01*
X1385322Y200251D01*
X1385322Y196053D01*
X1370099Y196053D01*
X1370099Y190242D01*
G37*
G36*
X1383387Y99586D02*
X1380660Y101358D01*
X1381064Y101957D01*
X1381416Y102554D01*
X1381716Y103149D01*
X1381963Y103744D01*
X1382156Y104329D01*
X1382295Y104894D01*
X1382378Y105441D01*
X1382399Y105707D01*
X1382406Y105968D01*
X1382385Y106388D01*
X1382328Y106748D01*
X1382235Y107050D01*
X1382106Y107293D01*
X1381947Y107479D01*
X1381762Y107612D01*
X1381551Y107691D01*
X1381436Y107710D01*
X1381315Y107716D01*
X1381260Y107716D01*
X1381102Y107693D01*
X1380954Y107644D01*
X1380815Y107570D01*
X1380685Y107469D01*
X1380565Y107342D01*
X1380454Y107189D01*
X1380352Y107010D01*
X1380261Y106804D01*
X1380086Y106345D01*
X1379913Y105838D01*
X1379568Y104685D01*
X1379412Y104165D01*
X1379231Y103651D01*
X1379025Y103145D01*
X1378793Y102645D01*
X1378525Y102169D01*
X1378210Y101737D01*
X1377849Y101347D01*
X1377441Y100999D01*
X1377217Y100846D01*
X1376976Y100712D01*
X1376718Y100598D01*
X1376443Y100504D01*
X1376151Y100429D01*
X1375843Y100374D01*
X1375517Y100338D01*
X1375174Y100323D01*
X1375119Y100323D01*
X1374576Y100360D01*
X1374065Y100442D01*
X1373587Y100570D01*
X1373141Y100743D01*
X1372729Y100962D01*
X1372349Y101226D01*
X1372002Y101535D01*
X1371687Y101890D01*
X1371408Y102280D01*
X1371165Y102692D01*
X1370959Y103129D01*
X1370791Y103590D01*
X1370659Y104074D01*
X1370564Y104581D01*
X1370506Y105113D01*
X1370484Y105668D01*
X1370493Y106021D01*
X1370515Y106374D01*
X1370550Y106727D01*
X1370599Y107081D01*
X1370738Y107790D01*
X1370931Y108499D01*
X1371174Y109195D01*
X1371462Y109865D01*
X1371795Y110507D01*
X1372174Y111123D01*
X1375038Y109542D01*
X1374735Y108999D01*
X1374467Y108464D01*
X1374235Y107938D01*
X1374038Y107422D01*
X1373881Y106922D01*
X1373767Y106450D01*
X1373698Y106005D01*
X1373673Y105586D01*
X1373695Y105230D01*
X1373750Y104921D01*
X1373840Y104658D01*
X1373963Y104442D01*
X1374113Y104274D01*
X1374283Y104154D01*
X1374473Y104081D01*
X1374683Y104057D01*
X1374737Y104057D01*
X1374883Y104079D01*
X1375022Y104127D01*
X1375154Y104200D01*
X1375279Y104299D01*
X1375398Y104424D01*
X1375509Y104574D01*
X1375615Y104750D01*
X1375713Y104951D01*
X1375904Y105402D01*
X1376096Y105900D01*
X1376484Y107033D01*
X1376659Y107554D01*
X1376857Y108071D01*
X1377076Y108582D01*
X1377318Y109087D01*
X1377592Y109569D01*
X1377907Y110009D01*
X1378263Y110405D01*
X1378661Y110759D01*
X1378878Y110916D01*
X1379111Y111052D01*
X1379358Y111169D01*
X1379621Y111265D01*
X1379899Y111341D01*
X1380192Y111397D01*
X1380500Y111434D01*
X1380823Y111450D01*
X1380878Y111450D01*
X1381464Y111413D01*
X1382011Y111330D01*
X1382517Y111199D01*
X1382984Y111021D01*
X1383411Y110797D01*
X1383798Y110525D01*
X1384146Y110207D01*
X1384453Y109841D01*
X1384723Y109439D01*
X1384956Y109009D01*
X1385153Y108552D01*
X1385314Y108068D01*
X1385439Y107556D01*
X1385527Y107018D01*
X1385579Y106452D01*
X1385595Y105859D01*
X1385588Y105469D01*
X1385564Y105077D01*
X1385523Y104683D01*
X1385465Y104287D01*
X1385390Y103889D01*
X1385298Y103488D01*
X1385189Y103086D01*
X1385063Y102681D01*
X1384920Y102277D01*
X1384758Y101878D01*
X1384576Y101484D01*
X1384376Y101095D01*
X1384157Y100710D01*
X1383920Y100331D01*
X1383663Y99956D01*
X1383387Y99586D01*
G37*
G36*
X1383387Y298180D02*
X1380660Y299952D01*
X1381064Y300550D01*
X1381416Y301147D01*
X1381716Y301743D01*
X1381963Y302338D01*
X1382156Y302922D01*
X1382295Y303488D01*
X1382378Y304034D01*
X1382399Y304301D01*
X1382406Y304562D01*
X1382385Y304981D01*
X1382328Y305342D01*
X1382235Y305644D01*
X1382106Y305886D01*
X1381947Y306073D01*
X1381762Y306205D01*
X1381551Y306284D01*
X1381436Y306304D01*
X1381315Y306310D01*
X1381260Y306310D01*
X1381102Y306287D01*
X1380954Y306238D01*
X1380815Y306163D01*
X1380685Y306063D01*
X1380565Y305936D01*
X1380454Y305783D01*
X1380352Y305603D01*
X1380261Y305398D01*
X1380086Y304938D01*
X1379913Y304432D01*
X1379568Y303279D01*
X1379412Y302759D01*
X1379231Y302245D01*
X1379025Y301739D01*
X1378793Y301239D01*
X1378525Y300763D01*
X1378210Y300330D01*
X1377849Y299940D01*
X1377441Y299593D01*
X1377217Y299439D01*
X1376976Y299306D01*
X1376718Y299192D01*
X1376443Y299097D01*
X1376151Y299023D01*
X1375843Y298968D01*
X1375517Y298932D01*
X1375174Y298916D01*
X1375119Y298916D01*
X1374576Y298954D01*
X1374065Y299036D01*
X1373587Y299164D01*
X1373141Y299337D01*
X1372729Y299556D01*
X1372349Y299820D01*
X1372002Y300129D01*
X1371687Y300484D01*
X1371408Y300873D01*
X1371165Y301286D01*
X1370959Y301723D01*
X1370791Y302183D01*
X1370659Y302667D01*
X1370564Y303175D01*
X1370506Y303706D01*
X1370484Y304262D01*
X1370493Y304615D01*
X1370515Y304968D01*
X1370550Y305321D01*
X1370599Y305675D01*
X1370738Y306383D01*
X1370931Y307093D01*
X1371174Y307789D01*
X1371462Y308458D01*
X1371795Y309101D01*
X1372174Y309717D01*
X1375038Y308136D01*
X1374735Y307592D01*
X1374467Y307058D01*
X1374235Y306532D01*
X1374038Y306015D01*
X1373881Y305516D01*
X1373767Y305044D01*
X1373698Y304598D01*
X1373673Y304180D01*
X1373695Y303824D01*
X1373750Y303514D01*
X1373840Y303252D01*
X1373963Y303036D01*
X1374113Y302868D01*
X1374283Y302747D01*
X1374473Y302675D01*
X1374683Y302650D01*
X1374737Y302650D01*
X1374883Y302673D01*
X1375022Y302720D01*
X1375154Y302794D01*
X1375279Y302893D01*
X1375398Y303017D01*
X1375509Y303168D01*
X1375615Y303343D01*
X1375713Y303545D01*
X1375904Y303996D01*
X1376096Y304494D01*
X1376484Y305627D01*
X1376659Y306148D01*
X1376857Y306664D01*
X1377076Y307175D01*
X1377318Y307681D01*
X1377592Y308163D01*
X1377907Y308602D01*
X1378263Y308999D01*
X1378661Y309353D01*
X1378878Y309510D01*
X1379111Y309646D01*
X1379358Y309762D01*
X1379621Y309859D01*
X1379899Y309935D01*
X1380192Y309991D01*
X1380500Y310027D01*
X1380823Y310044D01*
X1380878Y310044D01*
X1381464Y310007D01*
X1382011Y309923D01*
X1382517Y309793D01*
X1382984Y309615D01*
X1383411Y309391D01*
X1383798Y309119D01*
X1384146Y308801D01*
X1384453Y308435D01*
X1384723Y308033D01*
X1384956Y307603D01*
X1385153Y307146D01*
X1385314Y306662D01*
X1385439Y306150D01*
X1385527Y305612D01*
X1385579Y305046D01*
X1385595Y304453D01*
X1385588Y304063D01*
X1385564Y303671D01*
X1385523Y303277D01*
X1385465Y302881D01*
X1385390Y302483D01*
X1385298Y302082D01*
X1385189Y301679D01*
X1385063Y301274D01*
X1384920Y300871D01*
X1384758Y300472D01*
X1384576Y300078D01*
X1384376Y299689D01*
X1384157Y299304D01*
X1383920Y298925D01*
X1383663Y298550D01*
X1383387Y298180D01*
G37*
G36*
X1385322Y258110D02*
X1365407Y258110D01*
X1365407Y262254D01*
X1385322Y262254D01*
X1385322Y258110D01*
G37*
G36*
X1385322Y349263D02*
X1370703Y349263D01*
X1370703Y353406D01*
X1373647Y353406D01*
X1373273Y353568D01*
X1372921Y353746D01*
X1372589Y353938D01*
X1372278Y354147D01*
X1371987Y354371D01*
X1371718Y354610D01*
X1371469Y354865D01*
X1371241Y355135D01*
X1371038Y355425D01*
X1370864Y355736D01*
X1370719Y356070D01*
X1370603Y356426D01*
X1370516Y356804D01*
X1370458Y357204D01*
X1370430Y357627D01*
X1370430Y358072D01*
X1374764Y358072D01*
X1374764Y357853D01*
X1374783Y357346D01*
X1374842Y356867D01*
X1374940Y356417D01*
X1375079Y355996D01*
X1375257Y355603D01*
X1375476Y355239D01*
X1375734Y354904D01*
X1376033Y354597D01*
X1376372Y354322D01*
X1376754Y354083D01*
X1377177Y353881D01*
X1377642Y353714D01*
X1378149Y353583D01*
X1378698Y353488D01*
X1379289Y353429D01*
X1379922Y353406D01*
X1385322Y353406D01*
X1385322Y349263D01*
G37*
G36*
X1385322Y360860D02*
X1370703Y360860D01*
X1370703Y365004D01*
X1385322Y365004D01*
X1385322Y360860D01*
G37*
G36*
X1385322Y51599D02*
X1380960Y51599D01*
X1380960Y56016D01*
X1385322Y56016D01*
X1385322Y51599D01*
G37*
G36*
X1385322Y205974D02*
X1380960Y205974D01*
X1380960Y210391D01*
X1385322Y210391D01*
X1385322Y205974D01*
G37*
G36*
X1369090Y360751D02*
X1365410Y360751D01*
X1365410Y365113D01*
X1369090Y365113D01*
X1369090Y360751D01*
G37*
D10*
X1002502Y479746D03*
D11*
X1017107Y479746D03*
D12*
X1029172Y479746D03*
D13*
X964021Y480000D03*
D14*
X979642Y480000D03*
X991326Y480000D03*
D15*
X1002502Y480000D03*
D14*
X1017234Y480000D03*
D16*
X1029172Y480000D03*
D14*
X1041872Y480000D03*
D17*
X964783Y480254D03*
D14*
X979642Y480254D03*
X991326Y480254D03*
D18*
X1002502Y480254D03*
D19*
X1017107Y480254D03*
D20*
X1029172Y480254D03*
D14*
X1041872Y480254D03*
D21*
X965164Y480508D03*
D14*
X979642Y480508D03*
X991326Y480508D03*
D22*
X1002502Y480508D03*
D23*
X1016853Y480508D03*
D24*
X1029172Y480508D03*
D14*
X1041872Y480508D03*
D25*
X965418Y480762D03*
D14*
X979642Y480762D03*
X991326Y480762D03*
D26*
X1002502Y480762D03*
D27*
X1016726Y480762D03*
D28*
X1029172Y480762D03*
D14*
X1041872Y480762D03*
D29*
X965799Y481016D03*
D14*
X979642Y481016D03*
X991326Y481016D03*
D30*
X1002502Y481016D03*
D31*
X1016599Y481016D03*
D32*
X1029045Y481016D03*
D14*
X1041872Y481016D03*
D33*
X965926Y481270D03*
D14*
X979642Y481270D03*
X991326Y481270D03*
D34*
X1002502Y481270D03*
D20*
X1016472Y481270D03*
D34*
X1029172Y481270D03*
D14*
X1041872Y481270D03*
D35*
X966053Y481524D03*
D14*
X979642Y481524D03*
X991326Y481524D03*
D36*
X1002502Y481524D03*
D37*
X1016345Y481524D03*
D36*
X1029172Y481524D03*
D14*
X1041872Y481524D03*
D38*
X966307Y481778D03*
D14*
X979642Y481778D03*
X991326Y481778D03*
D39*
X1002502Y481778D03*
D37*
X1016345Y481778D03*
D39*
X1029172Y481778D03*
D14*
X1041872Y481778D03*
D38*
X966307Y482032D03*
D14*
X979642Y482032D03*
X991326Y482032D03*
D40*
X1002502Y482032D03*
D18*
X1016218Y482032D03*
D40*
X1029172Y482032D03*
D14*
X1041872Y482032D03*
D41*
X966434Y482286D03*
D14*
X979642Y482286D03*
X991326Y482286D03*
D40*
X1002502Y482286D03*
D18*
X1016218Y482286D03*
D42*
X1029172Y482286D03*
D14*
X1041872Y482286D03*
D43*
X966561Y482540D03*
D14*
X979642Y482540D03*
X991326Y482540D03*
D42*
X1002502Y482540D03*
D44*
X1016091Y482540D03*
D21*
X1029172Y482540D03*
D14*
X1041872Y482540D03*
D45*
X966688Y482794D03*
D14*
X979642Y482794D03*
X991326Y482794D03*
X998692Y482794D03*
X1006312Y482794D03*
D44*
X1016091Y482794D03*
D25*
X1029172Y482794D03*
D14*
X1041872Y482794D03*
D45*
X966688Y483048D03*
D14*
X979642Y483048D03*
X991326Y483048D03*
D46*
X998311Y483048D03*
D14*
X1006566Y483048D03*
D44*
X1016091Y483048D03*
D23*
X1025489Y483048D03*
X1032855Y483048D03*
D14*
X1041872Y483048D03*
D45*
X966688Y483302D03*
D14*
X979642Y483302D03*
X991326Y483302D03*
D47*
X998184Y483302D03*
D46*
X1006693Y483302D03*
D19*
X1015075Y483302D03*
D48*
X1019647Y483302D03*
D16*
X1024854Y483302D03*
X1033490Y483302D03*
D14*
X1041872Y483302D03*
D15*
X961608Y483556D03*
D20*
X971514Y483556D03*
D14*
X979642Y483556D03*
X991326Y483556D03*
D47*
X998184Y483556D03*
D46*
X1006693Y483556D03*
D16*
X1014694Y483556D03*
X1024600Y483556D03*
X1033744Y483556D03*
D14*
X1041872Y483556D03*
D19*
X961481Y483810D03*
D23*
X971895Y483810D03*
D14*
X979642Y483810D03*
X991326Y483810D03*
D46*
X998057Y483810D03*
X1006693Y483810D03*
D49*
X1014567Y483810D03*
X1024473Y483810D03*
X1033871Y483810D03*
D14*
X1041872Y483810D03*
D19*
X961481Y484064D03*
D23*
X972149Y484064D03*
D14*
X979642Y484064D03*
X991326Y484064D03*
D47*
X997930Y484064D03*
D14*
X1006820Y484064D03*
X1014440Y484064D03*
D49*
X1024219Y484064D03*
X1034125Y484064D03*
D14*
X1041872Y484064D03*
D19*
X961481Y484318D03*
D15*
X972276Y484318D03*
D14*
X979642Y484318D03*
X991326Y484318D03*
D50*
X998057Y484318D03*
D14*
X1006820Y484318D03*
X1014440Y484318D03*
X1024092Y484318D03*
X1034252Y484318D03*
X1041872Y484318D03*
D19*
X961481Y484572D03*
X972403Y484572D03*
D14*
X979642Y484572D03*
X991326Y484572D03*
X1006820Y484572D03*
X1014440Y484572D03*
X1024092Y484572D03*
D46*
X1034379Y484572D03*
D14*
X1041872Y484572D03*
D19*
X961481Y484826D03*
X972403Y484826D03*
D14*
X979642Y484826D03*
X991326Y484826D03*
D49*
X1006693Y484826D03*
D14*
X1014440Y484826D03*
X1023838Y484826D03*
X1034506Y484826D03*
X1041872Y484826D03*
D19*
X961481Y485080D03*
X972403Y485080D03*
D14*
X979642Y485080D03*
X991326Y485080D03*
D16*
X1006566Y485080D03*
D14*
X1014440Y485080D03*
X1023838Y485080D03*
X1034506Y485080D03*
X1041872Y485080D03*
D19*
X961481Y485334D03*
D16*
X972530Y485334D03*
D14*
X979642Y485334D03*
X991326Y485334D03*
D19*
X1006185Y485334D03*
D14*
X1014440Y485334D03*
X1023838Y485334D03*
D46*
X1034633Y485334D03*
D14*
X1041872Y485334D03*
D19*
X961481Y485588D03*
D16*
X972530Y485588D03*
D14*
X979642Y485588D03*
X991326Y485588D03*
D20*
X1005550Y485588D03*
D14*
X1014440Y485588D03*
X1023838Y485588D03*
X1034760Y485588D03*
X1041872Y485588D03*
D19*
X961481Y485842D03*
D16*
X972530Y485842D03*
D14*
X979642Y485842D03*
X991326Y485842D03*
D22*
X1004788Y485842D03*
D14*
X1014440Y485842D03*
X1023584Y485842D03*
X1034760Y485842D03*
X1041872Y485842D03*
D19*
X961481Y486096D03*
D16*
X972530Y486096D03*
D14*
X979642Y486096D03*
X991326Y486096D03*
D32*
X1004153Y486096D03*
D14*
X1014440Y486096D03*
X1023584Y486096D03*
X1034760Y486096D03*
X1041872Y486096D03*
D19*
X961481Y486350D03*
D16*
X972530Y486350D03*
D14*
X979642Y486350D03*
X991326Y486350D03*
D13*
X1003645Y486350D03*
D14*
X1014440Y486350D03*
X1023584Y486350D03*
X1034760Y486350D03*
X1041872Y486350D03*
D19*
X961481Y486604D03*
D16*
X972530Y486604D03*
D14*
X979642Y486604D03*
X991326Y486604D03*
D51*
X1003391Y486604D03*
D14*
X1014440Y486604D03*
X1023584Y486604D03*
X1034760Y486604D03*
X1041872Y486604D03*
D19*
X961481Y486858D03*
D16*
X972530Y486858D03*
D14*
X979642Y486858D03*
X991326Y486858D03*
D36*
X1003010Y486858D03*
D14*
X1014440Y486858D03*
X1023584Y486858D03*
X1034760Y486858D03*
X1041872Y486858D03*
D19*
X961481Y487112D03*
D49*
X972403Y487112D03*
D14*
X979642Y487112D03*
X991326Y487112D03*
D36*
X1002756Y487112D03*
D14*
X1014440Y487112D03*
X1023584Y487112D03*
X1034760Y487112D03*
X1041872Y487112D03*
D19*
X961481Y487366D03*
D16*
X972276Y487366D03*
D14*
X979642Y487366D03*
X991326Y487366D03*
D52*
X1002629Y487366D03*
D14*
X1014440Y487366D03*
X1023584Y487366D03*
X1034760Y487366D03*
X1041872Y487366D03*
D19*
X961481Y487620D03*
D16*
X972276Y487620D03*
D14*
X979642Y487620D03*
X991326Y487620D03*
D52*
X1002375Y487620D03*
D14*
X1014440Y487620D03*
X1023584Y487620D03*
X1034760Y487620D03*
X1041872Y487620D03*
D19*
X961481Y487874D03*
D16*
X972022Y487874D03*
D14*
X979642Y487874D03*
X991326Y487874D03*
D36*
X1001994Y487874D03*
D14*
X1014440Y487874D03*
X1023584Y487874D03*
X1034760Y487874D03*
X1041872Y487874D03*
D19*
X961481Y488128D03*
D16*
X971768Y488128D03*
D14*
X979642Y488128D03*
X991326Y488128D03*
D51*
X1001867Y488128D03*
D14*
X1014440Y488128D03*
X1023584Y488128D03*
X1034760Y488128D03*
X1041872Y488128D03*
D19*
X961481Y488382D03*
X971641Y488382D03*
D49*
X979769Y488382D03*
D14*
X991326Y488382D03*
D34*
X1001486Y488382D03*
D14*
X1014440Y488382D03*
X1023584Y488382D03*
X1034760Y488382D03*
X1041872Y488382D03*
D15*
X961608Y488636D03*
X971260Y488636D03*
D49*
X979769Y488636D03*
D14*
X991326Y488636D03*
D32*
X1001105Y488636D03*
D14*
X1014440Y488636D03*
X1023584Y488636D03*
X1034760Y488636D03*
X1041872Y488636D03*
D38*
X966307Y488890D03*
D16*
X979896Y488890D03*
D14*
X991326Y488890D03*
D53*
X1000597Y488890D03*
D14*
X1014440Y488890D03*
D46*
X1023711Y488890D03*
D14*
X1034760Y488890D03*
X1041872Y488890D03*
D54*
X966180Y489144D03*
D16*
X979896Y489144D03*
D14*
X991326Y489144D03*
D44*
X999835Y489144D03*
D14*
X1014440Y489144D03*
X1023838Y489144D03*
X1034760Y489144D03*
X1041872Y489144D03*
D35*
X966053Y489398D03*
D19*
X980023Y489398D03*
D14*
X991326Y489398D03*
D15*
X998946Y489398D03*
D14*
X1014440Y489398D03*
X1023838Y489398D03*
X1034506Y489398D03*
X1041872Y489398D03*
D29*
X965799Y489652D03*
D15*
X980150Y489652D03*
D14*
X991326Y489652D03*
D49*
X998565Y489652D03*
D14*
X1014440Y489652D03*
X1023838Y489652D03*
X1034506Y489652D03*
X1041872Y489652D03*
D55*
X965545Y489906D03*
D27*
X980404Y489906D03*
D14*
X991326Y489906D03*
D46*
X998311Y489906D03*
D14*
X1014440Y489906D03*
D46*
X1023965Y489906D03*
D14*
X1034506Y489906D03*
X1041872Y489906D03*
D21*
X965164Y490160D03*
D37*
X980785Y490160D03*
D14*
X991326Y490160D03*
D47*
X998184Y490160D03*
D14*
X1014440Y490160D03*
X1024092Y490160D03*
X1034252Y490160D03*
X1041872Y490160D03*
D56*
X965037Y490414D03*
D53*
X981547Y490414D03*
D14*
X991326Y490414D03*
D47*
X998184Y490414D03*
D14*
X1014440Y490414D03*
X1024092Y490414D03*
X1034252Y490414D03*
X1041872Y490414D03*
D21*
X965164Y490668D03*
D32*
X982055Y490668D03*
D14*
X991326Y490668D03*
D47*
X998184Y490668D03*
X1006566Y490668D03*
D14*
X1014440Y490668D03*
X1024346Y490668D03*
X1033998Y490668D03*
X1041872Y490668D03*
D57*
X965291Y490922D03*
D32*
X982055Y490922D03*
D14*
X991326Y490922D03*
D47*
X998184Y490922D03*
X1006566Y490922D03*
D14*
X1014440Y490922D03*
D49*
X1024473Y490922D03*
X1033871Y490922D03*
D14*
X1041872Y490922D03*
D55*
X965545Y491176D03*
D32*
X982055Y491176D03*
D14*
X991326Y491176D03*
D47*
X998184Y491176D03*
X1006312Y491176D03*
D14*
X1014440Y491176D03*
D49*
X1024727Y491176D03*
D16*
X1033744Y491176D03*
D14*
X1041872Y491176D03*
D29*
X965799Y491430D03*
D32*
X982055Y491430D03*
D14*
X991326Y491430D03*
D47*
X998438Y491430D03*
X1006312Y491430D03*
D16*
X1014440Y491430D03*
D19*
X1024981Y491430D03*
X1033363Y491430D03*
D14*
X1041872Y491430D03*
D33*
X965926Y491684D03*
D32*
X982055Y491684D03*
D14*
X991326Y491684D03*
D46*
X998565Y491684D03*
X1006185Y491684D03*
D32*
X1015075Y491684D03*
D25*
X1029172Y491684D03*
D14*
X1041872Y491684D03*
D35*
X966053Y491938D03*
D32*
X982055Y491938D03*
D14*
X991326Y491938D03*
X998692Y491938D03*
X1005804Y491938D03*
D32*
X1015075Y491938D03*
D57*
X1029299Y491938D03*
D14*
X1041872Y491938D03*
D15*
X961608Y492192D03*
D19*
X970879Y492192D03*
D49*
X979769Y492192D03*
D47*
X984722Y492192D03*
D14*
X991326Y492192D03*
D58*
X1002375Y492192D03*
D32*
X1015075Y492192D03*
D56*
X1029299Y492192D03*
D14*
X1041872Y492192D03*
D19*
X961481Y492446D03*
D16*
X971260Y492446D03*
D14*
X979642Y492446D03*
D50*
X984849Y492446D03*
D14*
X991326Y492446D03*
D39*
X1002248Y492446D03*
D32*
X1015075Y492446D03*
D42*
X1029172Y492446D03*
D14*
X1041872Y492446D03*
D19*
X961481Y492700D03*
D49*
X971387Y492700D03*
D14*
X979642Y492700D03*
D10*
X984976Y492700D03*
D14*
X991326Y492700D03*
D52*
X1002375Y492700D03*
D32*
X1015075Y492700D03*
D58*
X1029299Y492700D03*
D14*
X1041872Y492700D03*
D19*
X961481Y492954D03*
D49*
X971641Y492954D03*
D14*
X979642Y492954D03*
D59*
X985103Y492954D03*
D14*
X991326Y492954D03*
D51*
X1002375Y492954D03*
D32*
X1015075Y492954D03*
D52*
X1029299Y492954D03*
D14*
X1041872Y492954D03*
D19*
X961481Y493208D03*
D49*
X971641Y493208D03*
D14*
X979642Y493208D03*
D59*
X985103Y493208D03*
D14*
X991326Y493208D03*
D13*
X1002375Y493208D03*
D32*
X1015075Y493208D03*
D51*
X1029299Y493208D03*
D14*
X1041872Y493208D03*
D19*
X961481Y493462D03*
D49*
X971895Y493462D03*
D14*
X979642Y493462D03*
D12*
X985230Y493462D03*
D14*
X991326Y493462D03*
D32*
X1002375Y493462D03*
X1015075Y493462D03*
D13*
X1029299Y493462D03*
D14*
X1041872Y493462D03*
D19*
X961481Y493716D03*
D49*
X971895Y493716D03*
D14*
X979642Y493716D03*
D11*
X985357Y493716D03*
D14*
X991326Y493716D03*
D60*
X1002375Y493716D03*
D32*
X1015075Y493716D03*
D60*
X1029299Y493716D03*
D14*
X1041872Y493716D03*
D19*
X961481Y493970D03*
D49*
X971895Y493970D03*
D14*
X979642Y493970D03*
D61*
X985484Y493970D03*
D14*
X991326Y493970D03*
D53*
X1002375Y493970D03*
D32*
X1015075Y493970D03*
D22*
X1029172Y493970D03*
D14*
X1041872Y493970D03*
D19*
X961481Y494224D03*
D49*
X971895Y494224D03*
D14*
X979642Y494224D03*
D62*
X985738Y494224D03*
D14*
X991326Y494224D03*
D44*
X1002375Y494224D03*
D32*
X1015075Y494224D03*
D44*
X1029299Y494224D03*
D14*
X1041872Y494224D03*
D19*
X961481Y494478D03*
D16*
X972022Y494478D03*
D14*
X979642Y494478D03*
D63*
X985992Y494478D03*
D14*
X991326Y494478D03*
D31*
X1002375Y494478D03*
D32*
X1015075Y494478D03*
D23*
X1029299Y494478D03*
D14*
X1041872Y494478D03*
D19*
X961481Y494732D03*
D16*
X972022Y494732D03*
D64*
X986373Y494732D03*
D49*
X1002375Y494732D03*
D16*
X1014440Y494732D03*
D14*
X1029172Y494732D03*
X1041872Y494732D03*
D19*
X961481Y494986D03*
D16*
X972022Y494986D03*
D65*
X1002375Y494986D03*
D14*
X1014440Y494986D03*
D66*
X1029299Y494986D03*
D14*
X1041872Y494986D03*
D19*
X961481Y495240D03*
D16*
X972022Y495240D03*
D14*
X1014440Y495240D03*
X1041872Y495240D03*
D19*
X961481Y495494D03*
X971895Y495494D03*
D14*
X1014440Y495494D03*
X1041872Y495494D03*
D19*
X961481Y495748D03*
D16*
X971768Y495748D03*
D14*
X1014440Y495748D03*
X1041872Y495748D03*
D19*
X961481Y496002D03*
X971641Y496002D03*
D14*
X1014440Y496002D03*
X1041872Y496002D03*
D19*
X961481Y496256D03*
D15*
X971514Y496256D03*
D14*
X1014440Y496256D03*
X1041872Y496256D03*
D15*
X961608Y496510D03*
D27*
X971260Y496510D03*
D14*
X1014440Y496510D03*
X1041872Y496510D03*
D41*
X966434Y496764D03*
D63*
X991326Y496764D03*
D14*
X1014440Y496764D03*
X1041872Y496764D03*
D41*
X966434Y497018D03*
D61*
X991326Y497018D03*
D14*
X1014440Y497018D03*
X1041872Y497018D03*
D41*
X966434Y497272D03*
D12*
X991326Y497272D03*
D14*
X1014440Y497272D03*
X1041872Y497272D03*
D38*
X966307Y497526D03*
D10*
X991326Y497526D03*
D14*
X1014440Y497526D03*
X1041872Y497526D03*
D54*
X966180Y497780D03*
D47*
X991326Y497780D03*
D14*
X1014440Y497780D03*
X1041872Y497780D03*
D54*
X966180Y498034D03*
D14*
X991326Y498034D03*
X1041872Y498034D03*
D35*
X966053Y498288D03*
D14*
X991326Y498288D03*
X1041872Y498288D03*
D33*
X965926Y498542D03*
D16*
X991326Y498542D03*
D14*
X1041872Y498542D03*
D29*
X965799Y498796D03*
D16*
X991326Y498796D03*
D14*
X1041872Y498796D03*
D55*
X965545Y499050D03*
D16*
X991326Y499050D03*
D14*
X1041872Y499050D03*
D25*
X965418Y499304D03*
D16*
X991326Y499304D03*
D14*
X1041872Y499304D03*
D21*
X965164Y499558D03*
D14*
X991326Y499558D03*
X1041872Y499558D03*
D17*
X964783Y499812D03*
D14*
X991326Y499812D03*
X1041872Y499812D03*
D52*
X964275Y500066D03*
D14*
X991326Y500066D03*
X1041872Y500066D03*
D47*
X991326Y500320D03*
D10*
X991326Y500574D03*
D12*
X991326Y500828D03*
D61*
X991326Y501082D03*
D67*
X991326Y501336D03*
D46*
X967323Y504130D03*
D31*
X967323Y504384D03*
D16*
X985230Y504384D03*
D15*
X997676Y504384D03*
D29*
X1013805Y504384D03*
D68*
X967323Y504638D03*
D16*
X985230Y504638D03*
D15*
X997676Y504638D03*
D29*
X1013805Y504638D03*
D26*
X967450Y504892D03*
D15*
X985230Y504892D03*
D23*
X997549Y504892D03*
D29*
X1013805Y504892D03*
D34*
X967450Y505146D03*
D15*
X985230Y505146D03*
D27*
X997676Y505146D03*
D29*
X1013805Y505146D03*
D52*
X967323Y505400D03*
D15*
X985230Y505400D03*
D27*
X997676Y505400D03*
D29*
X1013805Y505400D03*
D40*
X967450Y505654D03*
D15*
X985230Y505654D03*
D27*
X997676Y505654D03*
D29*
X1013805Y505654D03*
D56*
X967323Y505908D03*
D27*
X985230Y505908D03*
D31*
X997549Y505908D03*
D29*
X1013805Y505908D03*
D57*
X967323Y506162D03*
D27*
X985230Y506162D03*
D31*
X997549Y506162D03*
D29*
X1013805Y506162D03*
D55*
X967323Y506416D03*
D27*
X985230Y506416D03*
D20*
X997676Y506416D03*
D29*
X1013805Y506416D03*
X967323Y506670D03*
D27*
X985230Y506670D03*
D20*
X997676Y506670D03*
D29*
X1013805Y506670D03*
D35*
X967323Y506924D03*
D20*
X985230Y506924D03*
D37*
X997549Y506924D03*
D29*
X1013805Y506924D03*
D54*
X967450Y507178D03*
D20*
X985230Y507178D03*
D37*
X997549Y507178D03*
D29*
X1013805Y507178D03*
D38*
X967323Y507432D03*
D20*
X985230Y507432D03*
D18*
X997676Y507432D03*
D29*
X1013805Y507432D03*
D43*
X967323Y507686D03*
D20*
X985230Y507686D03*
D18*
X997676Y507686D03*
D29*
X1013805Y507686D03*
D45*
X967450Y507940D03*
D37*
X985357Y507940D03*
D44*
X997549Y507940D03*
D29*
X1013805Y507940D03*
D18*
X962878Y508194D03*
X971768Y508194D03*
X985230Y508194D03*
D44*
X997549Y508194D03*
D29*
X1013805Y508194D03*
D27*
X962370Y508448D03*
D31*
X972403Y508448D03*
D18*
X985230Y508448D03*
D24*
X997676Y508448D03*
D15*
X1009614Y508448D03*
X962116Y508702D03*
D23*
X972657Y508702D03*
D18*
X985230Y508702D03*
D24*
X997676Y508702D03*
D19*
X1009487Y508702D03*
D15*
X961862Y508956D03*
X972784Y508956D03*
D44*
X985357Y508956D03*
D68*
X997549Y508956D03*
D19*
X1009487Y508956D03*
X961735Y509210D03*
D15*
X973038Y509210D03*
D24*
X985230Y509210D03*
D68*
X997549Y509210D03*
D19*
X1009487Y509210D03*
D15*
X961608Y509464D03*
D19*
X973165Y509464D03*
D24*
X985230Y509464D03*
D68*
X997549Y509464D03*
D19*
X1009487Y509464D03*
X961481Y509718D03*
X973165Y509718D03*
D24*
X985230Y509718D03*
D22*
X997676Y509718D03*
D19*
X1009487Y509718D03*
X961481Y509972D03*
D15*
X973292Y509972D03*
D68*
X985357Y509972D03*
D53*
X997549Y509972D03*
D19*
X1009487Y509972D03*
D16*
X961354Y510226D03*
D19*
X973419Y510226D03*
D22*
X985230Y510226D03*
D53*
X997549Y510226D03*
D19*
X1009487Y510226D03*
D16*
X961354Y510480D03*
D19*
X973419Y510480D03*
D22*
X985230Y510480D03*
D53*
X997549Y510480D03*
D19*
X1009487Y510480D03*
X961227Y510734D03*
X973419Y510734D03*
D22*
X985230Y510734D03*
D28*
X997676Y510734D03*
D19*
X1009487Y510734D03*
X961227Y510988D03*
X973419Y510988D03*
D53*
X985357Y510988D03*
D28*
X997676Y510988D03*
D19*
X1009487Y510988D03*
X961227Y511242D03*
X973419Y511242D03*
D53*
X985357Y511242D03*
D60*
X997549Y511242D03*
D19*
X1009487Y511242D03*
X961227Y511496D03*
X973673Y511496D03*
D28*
X985230Y511496D03*
D60*
X997549Y511496D03*
D19*
X1009487Y511496D03*
X961227Y511750D03*
X973673Y511750D03*
D28*
X985230Y511750D03*
D26*
X997676Y511750D03*
D19*
X1009487Y511750D03*
X961227Y512004D03*
X973673Y512004D03*
D28*
X985230Y512004D03*
D26*
X997676Y512004D03*
D19*
X1009487Y512004D03*
X961227Y512258D03*
X973673Y512258D03*
D16*
X983452Y512258D03*
D59*
X988151Y512258D03*
D47*
X994882Y512258D03*
D14*
X999962Y512258D03*
D19*
X1009487Y512258D03*
X961227Y512512D03*
X973673Y512512D03*
D16*
X983198Y512512D03*
D12*
X988278Y512512D03*
D50*
X994755Y512512D03*
D46*
X1000089Y512512D03*
D15*
X1009614Y512512D03*
D19*
X961227Y512766D03*
X973673Y512766D03*
D49*
X983071Y512766D03*
D12*
X988278Y512766D03*
D50*
X994755Y512766D03*
D14*
X1000216Y512766D03*
D17*
X1012789Y512766D03*
D19*
X961227Y513020D03*
X973673Y513020D03*
D49*
X983071Y513020D03*
D12*
X988278Y513020D03*
D50*
X994755Y513020D03*
D14*
X1000216Y513020D03*
D17*
X1012789Y513020D03*
D19*
X961227Y513274D03*
X973673Y513274D03*
D49*
X983071Y513274D03*
D59*
X988405Y513274D03*
D50*
X994501Y513274D03*
D14*
X1000216Y513274D03*
D17*
X1012789Y513274D03*
D19*
X961227Y513528D03*
X973673Y513528D03*
D16*
X982944Y513528D03*
D12*
X988532Y513528D03*
D50*
X994501Y513528D03*
D14*
X1000216Y513528D03*
D17*
X1012789Y513528D03*
D19*
X961227Y513782D03*
X973673Y513782D03*
D16*
X982944Y513782D03*
D12*
X988532Y513782D03*
D50*
X994501Y513782D03*
D46*
X1000343Y513782D03*
D17*
X1012789Y513782D03*
D19*
X961227Y514036D03*
X973673Y514036D03*
D49*
X982817Y514036D03*
D12*
X988532Y514036D03*
D50*
X994501Y514036D03*
D14*
X1000470Y514036D03*
D17*
X1012789Y514036D03*
D19*
X961227Y514290D03*
X973673Y514290D03*
D49*
X982817Y514290D03*
D59*
X988659Y514290D03*
D50*
X994247Y514290D03*
D14*
X1000470Y514290D03*
D17*
X1012789Y514290D03*
D19*
X961227Y514544D03*
X973673Y514544D03*
D16*
X982690Y514544D03*
D12*
X988786Y514544D03*
D50*
X994247Y514544D03*
D14*
X1000470Y514544D03*
D17*
X1012789Y514544D03*
D19*
X961227Y514798D03*
X973673Y514798D03*
D16*
X982690Y514798D03*
D12*
X988786Y514798D03*
D50*
X994247Y514798D03*
D14*
X1000470Y514798D03*
D17*
X1012789Y514798D03*
D19*
X961227Y515052D03*
X973673Y515052D03*
D16*
X982690Y515052D03*
D12*
X988786Y515052D03*
D50*
X994247Y515052D03*
D14*
X1000724Y515052D03*
D17*
X1012789Y515052D03*
D19*
X961227Y515306D03*
X973673Y515306D03*
D49*
X982563Y515306D03*
D59*
X988913Y515306D03*
D47*
X994120Y515306D03*
D14*
X1000724Y515306D03*
D17*
X1012789Y515306D03*
D19*
X961227Y515560D03*
X973673Y515560D03*
D49*
X982563Y515560D03*
D59*
X988913Y515560D03*
D50*
X993993Y515560D03*
D14*
X1000724Y515560D03*
D17*
X1012789Y515560D03*
D19*
X961227Y515814D03*
X973673Y515814D03*
D16*
X982436Y515814D03*
D12*
X989040Y515814D03*
D50*
X993993Y515814D03*
D14*
X1000724Y515814D03*
D17*
X1012789Y515814D03*
D19*
X961227Y516068D03*
X973673Y516068D03*
D16*
X982436Y516068D03*
D12*
X989040Y516068D03*
D50*
X993993Y516068D03*
D14*
X1000978Y516068D03*
D17*
X1012789Y516068D03*
D19*
X961227Y516322D03*
X973673Y516322D03*
D16*
X982436Y516322D03*
D59*
X989167Y516322D03*
D47*
X993866Y516322D03*
D14*
X1000978Y516322D03*
D17*
X1012789Y516322D03*
D19*
X961227Y516576D03*
X973673Y516576D03*
D49*
X982309Y516576D03*
D59*
X989167Y516576D03*
D50*
X993739Y516576D03*
D14*
X1000978Y516576D03*
D15*
X1009614Y516576D03*
D19*
X961227Y516830D03*
X973673Y516830D03*
D16*
X982182Y516830D03*
D59*
X989167Y516830D03*
D50*
X993739Y516830D03*
D14*
X1000978Y516830D03*
D19*
X1009487Y516830D03*
X961227Y517084D03*
X973673Y517084D03*
D16*
X982182Y517084D03*
D59*
X989421Y517084D03*
D47*
X993612Y517084D03*
D14*
X1000978Y517084D03*
D19*
X1009487Y517084D03*
X961227Y517338D03*
X973673Y517338D03*
D16*
X982182Y517338D03*
D68*
X991707Y517338D03*
D14*
X1001232Y517338D03*
D19*
X1009487Y517338D03*
X961227Y517592D03*
X973673Y517592D03*
D16*
X982182Y517592D03*
D24*
X991580Y517592D03*
D14*
X1001232Y517592D03*
D19*
X1009487Y517592D03*
X961227Y517846D03*
X973673Y517846D03*
D16*
X981928Y517846D03*
D24*
X991580Y517846D03*
D14*
X1001232Y517846D03*
D19*
X1009487Y517846D03*
X961227Y518100D03*
X973673Y518100D03*
D16*
X981928Y518100D03*
D44*
X991707Y518100D03*
D14*
X1001232Y518100D03*
D19*
X1009487Y518100D03*
X961227Y518354D03*
X973673Y518354D03*
D16*
X981928Y518354D03*
D44*
X991707Y518354D03*
D49*
X1001359Y518354D03*
D19*
X1009487Y518354D03*
X961227Y518608D03*
X973673Y518608D03*
D16*
X981928Y518608D03*
D44*
X991707Y518608D03*
D14*
X1001486Y518608D03*
D19*
X1009487Y518608D03*
X961227Y518862D03*
X973673Y518862D03*
D16*
X981928Y518862D03*
D18*
X991580Y518862D03*
D14*
X1001486Y518862D03*
D19*
X1009487Y518862D03*
X961227Y519116D03*
X973673Y519116D03*
D16*
X981674Y519116D03*
D18*
X991580Y519116D03*
D14*
X1001486Y519116D03*
D19*
X1009487Y519116D03*
X961227Y519370D03*
X973673Y519370D03*
D16*
X981674Y519370D03*
D37*
X991707Y519370D03*
D49*
X1001613Y519370D03*
D19*
X1009487Y519370D03*
X961227Y519624D03*
X973673Y519624D03*
D16*
X981674Y519624D03*
D37*
X991707Y519624D03*
D14*
X1001740Y519624D03*
D19*
X1009487Y519624D03*
X961227Y519878D03*
X973673Y519878D03*
D16*
X981674Y519878D03*
D20*
X991580Y519878D03*
D14*
X1001740Y519878D03*
D19*
X1009487Y519878D03*
X961227Y520132D03*
X973673Y520132D03*
X981547Y520132D03*
D20*
X991580Y520132D03*
D14*
X1001740Y520132D03*
D19*
X1009487Y520132D03*
X961227Y520386D03*
X973673Y520386D03*
D16*
X981420Y520386D03*
D20*
X991580Y520386D03*
D49*
X1001867Y520386D03*
D15*
X1009614Y520386D03*
D19*
X961227Y520640D03*
X973673Y520640D03*
D16*
X981420Y520640D03*
D31*
X991707Y520640D03*
D49*
X1001867Y520640D03*
D69*
X1013678Y520640D03*
D19*
X961227Y520894D03*
X973673Y520894D03*
D16*
X981420Y520894D03*
D27*
X991580Y520894D03*
D14*
X1001994Y520894D03*
D69*
X1013678Y520894D03*
D19*
X961227Y521148D03*
X973673Y521148D03*
X981293Y521148D03*
D27*
X991580Y521148D03*
D14*
X1001994Y521148D03*
D69*
X1013678Y521148D03*
D19*
X961227Y521402D03*
X973673Y521402D03*
D16*
X981166Y521402D03*
D27*
X991580Y521402D03*
D14*
X1001994Y521402D03*
D69*
X1013678Y521402D03*
D19*
X961227Y521656D03*
X973673Y521656D03*
D16*
X981166Y521656D03*
D23*
X991707Y521656D03*
D49*
X1002121Y521656D03*
D69*
X1013678Y521656D03*
D19*
X961227Y521910D03*
X973673Y521910D03*
D16*
X981166Y521910D03*
D23*
X991707Y521910D03*
D49*
X1002121Y521910D03*
D69*
X1013678Y521910D03*
D19*
X961227Y522164D03*
X973673Y522164D03*
D16*
X981166Y522164D03*
D15*
X991580Y522164D03*
D14*
X1002248Y522164D03*
D69*
X1013678Y522164D03*
D19*
X961227Y522418D03*
X973673Y522418D03*
X981039Y522418D03*
D15*
X991580Y522418D03*
D14*
X1002248Y522418D03*
D69*
X1013678Y522418D03*
D19*
X961227Y522672D03*
X973673Y522672D03*
D16*
X980912Y522672D03*
D15*
X991580Y522672D03*
D49*
X1002375Y522672D03*
D69*
X1013678Y522672D03*
D19*
X961227Y522926D03*
X973673Y522926D03*
D16*
X980912Y522926D03*
D19*
X991707Y522926D03*
D49*
X1002375Y522926D03*
D69*
X1013678Y522926D03*
D19*
X961227Y523180D03*
X973673Y523180D03*
D16*
X980912Y523180D03*
X991580Y523180D03*
D14*
X1002502Y523180D03*
D69*
X1013678Y523180D03*
D19*
X961227Y523434D03*
X973673Y523434D03*
X980785Y523434D03*
D16*
X991580Y523434D03*
D14*
X1002502Y523434D03*
D69*
X1013678Y523434D03*
D19*
X961227Y523688D03*
X973673Y523688D03*
X980785Y523688D03*
D16*
X991580Y523688D03*
D49*
X1002629Y523688D03*
D69*
X1013678Y523688D03*
D19*
X961227Y523942D03*
X973673Y523942D03*
D16*
X980658Y523942D03*
X991580Y523942D03*
D49*
X1002629Y523942D03*
D69*
X1013678Y523942D03*
D19*
X961227Y524196D03*
X973673Y524196D03*
D16*
X980658Y524196D03*
D14*
X991580Y524196D03*
D49*
X1002629Y524196D03*
D69*
X1013678Y524196D03*
D19*
X961227Y524450D03*
X973673Y524450D03*
X980531Y524450D03*
D14*
X991580Y524450D03*
X1002756Y524450D03*
D69*
X1013678Y524450D03*
D70*
X381160Y787360D02*
X381160Y802600D01*
X406560Y802600D02*
X406560Y787360D01*
X431960Y787360D02*
X431960Y802600D01*
D71*
X170340Y764500D03*
X170340Y789900D03*
D72*
X1056800Y792440D03*
X1056800Y767040D03*
D71*
X1176180Y820380D03*
X1176180Y845780D03*
X536100Y452080D03*
X510700Y452080D03*
D72*
X1031400Y391374D03*
X1031400Y365974D03*
X1173640Y748752D03*
X1173640Y723352D03*
D71*
X978060Y365974D03*
X978060Y391374D03*
D72*
X1107600Y723098D03*
X1107600Y748498D03*
D71*
X1389540Y627340D03*
X1364140Y627340D03*
D72*
X327820Y825460D03*
X327820Y800060D03*
X551340Y797520D03*
X551340Y772120D03*
D71*
X271940Y800060D03*
X271940Y825460D03*
X487840Y772120D03*
X487840Y797520D03*
D72*
X188120Y365180D03*
X213520Y365180D03*
X599600Y657820D03*
X599600Y683220D03*
D71*
X190660Y274280D03*
X165260Y274280D03*
D72*
X416974Y536154D03*
X391574Y536154D03*
X800260Y817840D03*
X774860Y817840D03*
D71*
X129700Y523200D03*
X129700Y548600D03*
X685960Y815300D03*
X685960Y840700D03*
D72*
X894240Y682019D03*
X868840Y682019D03*
X790100Y535900D03*
X764700Y535900D03*
X868840Y642580D03*
X894240Y642580D03*
D71*
X764700Y594320D03*
X790100Y594320D03*
D72*
X917100Y792440D03*
X917100Y767040D03*
X1265080Y825460D03*
X1239680Y825460D03*
D73*
X297340Y500340D03*
X297340Y398740D03*
X345600Y398740D03*
X345600Y500340D03*
X713900Y689824D03*
X713900Y791424D03*
X660560Y791424D03*
X660560Y689824D03*
X1315880Y767040D03*
X1315880Y868640D03*
X1369220Y868640D03*
X1369220Y767040D03*
D74*
X444704Y49700D02*
X431496Y49700D01*
X431496Y75100D02*
X444704Y75100D01*
X444704Y202100D02*
X431496Y202100D01*
X431496Y227500D02*
X444704Y227500D01*
X444704Y100500D02*
X431496Y100500D01*
X431496Y125900D02*
X444704Y125900D01*
X444704Y176700D02*
X431496Y176700D01*
X431496Y151300D02*
X444704Y151300D01*
X444704Y252900D02*
X431496Y252900D01*
X431496Y278300D02*
X444704Y278300D01*
X368504Y278300D02*
X355296Y278300D01*
X355296Y252900D02*
X368504Y252900D01*
X368504Y227500D02*
X355296Y227500D01*
X355296Y202100D02*
X368504Y202100D01*
X368504Y176700D02*
X355296Y176700D01*
X355296Y151300D02*
X368504Y151300D01*
X368504Y125900D02*
X355296Y125900D01*
X355296Y100500D02*
X368504Y100500D01*
X368504Y75100D02*
X355296Y75100D01*
X355296Y49700D02*
X368504Y49700D01*
X831496Y49700D02*
X844704Y49700D01*
X844704Y75100D02*
X831496Y75100D01*
X831496Y202100D02*
X844704Y202100D01*
X844704Y227500D02*
X831496Y227500D01*
X831496Y100500D02*
X844704Y100500D01*
X844704Y125900D02*
X831496Y125900D01*
X831496Y176700D02*
X844704Y176700D01*
X844704Y151300D02*
X831496Y151300D01*
X831496Y252900D02*
X844704Y252900D01*
X844704Y278300D02*
X831496Y278300D01*
X768504Y278300D02*
X755296Y278300D01*
X755296Y252900D02*
X768504Y252900D01*
X768504Y227500D02*
X755296Y227500D01*
X755296Y202100D02*
X768504Y202100D01*
X768504Y176700D02*
X755296Y176700D01*
X755296Y151300D02*
X768504Y151300D01*
X768504Y125900D02*
X755296Y125900D01*
X755296Y100500D02*
X768504Y100500D01*
X768504Y75100D02*
X755296Y75100D01*
X755296Y49700D02*
X768504Y49700D01*
X1231496Y49700D02*
X1244704Y49700D01*
X1244704Y75100D02*
X1231496Y75100D01*
X1231496Y202100D02*
X1244704Y202100D01*
X1244704Y227500D02*
X1231496Y227500D01*
X1231496Y100500D02*
X1244704Y100500D01*
X1244704Y125900D02*
X1231496Y125900D01*
X1231496Y176700D02*
X1244704Y176700D01*
X1244704Y151300D02*
X1231496Y151300D01*
X1231496Y252900D02*
X1244704Y252900D01*
X1244704Y278300D02*
X1231496Y278300D01*
X1168504Y278300D02*
X1155296Y278300D01*
X1155296Y252900D02*
X1168504Y252900D01*
X1168504Y227500D02*
X1155296Y227500D01*
X1155296Y202100D02*
X1168504Y202100D01*
X1168504Y176700D02*
X1155296Y176700D01*
X1155296Y151300D02*
X1168504Y151300D01*
X1168504Y125900D02*
X1155296Y125900D01*
X1155296Y100500D02*
X1168504Y100500D01*
X1168504Y75100D02*
X1155296Y75100D01*
X1155296Y49700D02*
X1168504Y49700D01*
D75*
X89060Y790460D03*
X89060Y718060D03*
X494788Y630604D03*
X567188Y630604D03*
X553880Y662260D03*
X553880Y734660D03*
X422054Y562946D03*
X422054Y635346D03*
X383954Y635346D03*
X383954Y562946D03*
X134100Y413372D03*
X134100Y485772D03*
X88094Y517905D03*
X88094Y445505D03*
X172240Y528280D03*
X244640Y528280D03*
D76*
X271940Y726400D03*
X297340Y701000D03*
X271940Y675600D03*
D75*
X193200Y222252D03*
X193200Y149852D03*
X111720Y267930D03*
X39320Y267930D03*
X127160Y808320D03*
X127160Y735920D03*
X845086Y719034D03*
X917486Y719034D03*
X1009341Y743540D03*
X1009341Y815940D03*
X944400Y652740D03*
X1016800Y652740D03*
X944400Y698460D03*
X1016800Y698460D03*
X964559Y743254D03*
X964559Y815654D03*
X1062520Y843240D03*
X990120Y843240D03*
X871380Y838800D03*
X871380Y766400D03*
X898680Y843240D03*
X971080Y843240D03*
X487200Y507960D03*
X559600Y507960D03*
X673260Y488280D03*
X673260Y415880D03*
X111920Y711800D03*
X111920Y639400D03*
X571020Y452080D03*
X643420Y452080D03*
X531180Y221580D03*
X531180Y149180D03*
X579440Y221580D03*
X579440Y149180D03*
X237020Y325080D03*
X164620Y325080D03*
X1198844Y601940D03*
X1126444Y601940D03*
X1215762Y568004D03*
X1288162Y568004D03*
X1126520Y678900D03*
X1198920Y678900D03*
X1102266Y603840D03*
X1102266Y676240D03*
X1315880Y640680D03*
X1315880Y568280D03*
X1126518Y641564D03*
X1198918Y641564D03*
X157640Y711800D03*
X157640Y639400D03*
X1340640Y573746D03*
X1413040Y573746D03*
X1340640Y736560D03*
X1413040Y736560D03*
X1412988Y687030D03*
X1340588Y687030D03*
X932058Y211166D03*
X932058Y138766D03*
X977778Y211266D03*
X977778Y138866D03*
X601500Y507960D03*
X673900Y507960D03*
X195740Y37420D03*
X195740Y109820D03*
X150020Y109820D03*
X150020Y37420D03*
X602300Y57740D03*
X602300Y130140D03*
X559120Y130140D03*
X559120Y57740D03*
X210980Y841340D03*
X210980Y768940D03*
X998860Y50120D03*
X998860Y122520D03*
X955680Y122520D03*
X955680Y50120D03*
X1315594Y667340D03*
X1315594Y739740D03*
X238280Y639786D03*
X310680Y639786D03*
X203360Y639400D03*
X203360Y711800D03*
X462440Y662260D03*
X462440Y734660D03*
X508160Y734660D03*
X508160Y662260D03*
D77*
X379165Y737783D03*
X379165Y725083D03*
X379165Y712383D03*
X379165Y699683D03*
X379165Y686983D03*
X379165Y674283D03*
X379165Y661583D03*
X428633Y661583D03*
X428633Y674283D03*
X428633Y686983D03*
X428633Y699683D03*
X428633Y712383D03*
X428633Y725083D03*
X428633Y737783D03*
D78*
X246540Y474274D03*
X233840Y474274D03*
X221140Y474274D03*
X208440Y474274D03*
X195740Y474274D03*
X183040Y474274D03*
X170340Y474274D03*
X170340Y424806D03*
X183040Y424806D03*
X195740Y424806D03*
X208440Y424806D03*
X221140Y424806D03*
X233840Y424806D03*
X246540Y424806D03*
D77*
X764434Y779083D03*
X764434Y766383D03*
X764434Y753683D03*
X764434Y740983D03*
X764434Y728283D03*
X764434Y715583D03*
X764434Y702883D03*
X813902Y702883D03*
X813902Y715583D03*
X813902Y728283D03*
X813902Y740983D03*
X813902Y753683D03*
X813902Y766383D03*
X813902Y779083D03*
X752666Y492720D03*
X752666Y480020D03*
X752666Y467320D03*
X752666Y454620D03*
X752666Y441920D03*
X752666Y429220D03*
X752666Y416520D03*
X802134Y416520D03*
X802134Y429220D03*
X802134Y441920D03*
X802134Y454620D03*
X802134Y467320D03*
X802134Y480020D03*
X802134Y492720D03*
X1227646Y774660D03*
X1227646Y761960D03*
X1227646Y749260D03*
X1227646Y736560D03*
X1227646Y723860D03*
X1227646Y711160D03*
X1227646Y698460D03*
X1277114Y698460D03*
X1277114Y711160D03*
X1277114Y723860D03*
X1277114Y736560D03*
X1277114Y749260D03*
X1277114Y761960D03*
X1277114Y774660D03*
D78*
X1079660Y353686D03*
X1092360Y353686D03*
X1105060Y353686D03*
X1117760Y353686D03*
X1130460Y353686D03*
X1143160Y353686D03*
X1155860Y353686D03*
X1155860Y403154D03*
X1143160Y403154D03*
X1130460Y403154D03*
X1117760Y403154D03*
X1105060Y403154D03*
X1092360Y403154D03*
X1079660Y403154D03*
D74*
X250604Y261580D02*
X237396Y261580D01*
X237396Y236180D02*
X250604Y236180D01*
X250604Y210780D02*
X237396Y210780D01*
X237396Y185380D02*
X250604Y185380D01*
X250604Y159980D02*
X237396Y159980D01*
X237396Y134580D02*
X250604Y134580D01*
X250604Y109180D02*
X237396Y109180D01*
X237396Y83780D02*
X250604Y83780D01*
X250604Y58380D02*
X237396Y58380D01*
X313596Y58380D02*
X326804Y58380D01*
X326804Y83780D02*
X313596Y83780D01*
X313596Y109180D02*
X326804Y109180D01*
X326804Y134580D02*
X313596Y134580D01*
X313596Y159980D02*
X326804Y159980D01*
X326804Y185380D02*
X313596Y185380D01*
X313596Y210780D02*
X326804Y210780D01*
X326804Y236180D02*
X313596Y236180D01*
X313596Y261580D02*
X326804Y261580D01*
X636336Y263866D02*
X649544Y263866D01*
X649544Y238466D02*
X636336Y238466D01*
X636336Y213066D02*
X649544Y213066D01*
X649544Y187666D02*
X636336Y187666D01*
X636336Y162266D02*
X649544Y162266D01*
X649544Y136866D02*
X636336Y136866D01*
X636336Y111466D02*
X649544Y111466D01*
X649544Y86066D02*
X636336Y86066D01*
X636336Y60666D02*
X649544Y60666D01*
X712536Y60666D02*
X725744Y60666D01*
X725744Y86066D02*
X712536Y86066D01*
X712536Y111466D02*
X725744Y111466D01*
X725744Y136866D02*
X712536Y136866D01*
X712536Y162266D02*
X725744Y162266D01*
X725744Y187666D02*
X712536Y187666D01*
X712536Y213066D02*
X725744Y213066D01*
X725744Y238466D02*
X712536Y238466D01*
X712536Y263866D02*
X725744Y263866D01*
X1035436Y259038D02*
X1048644Y259038D01*
X1048644Y233638D02*
X1035436Y233638D01*
X1035436Y208238D02*
X1048644Y208238D01*
X1048644Y182838D02*
X1035436Y182838D01*
X1035436Y157438D02*
X1048644Y157438D01*
X1048644Y132038D02*
X1035436Y132038D01*
X1035436Y106638D02*
X1048644Y106638D01*
X1048644Y81238D02*
X1035436Y81238D01*
X1035436Y55838D02*
X1048644Y55838D01*
X1111636Y55838D02*
X1124844Y55838D01*
X1124844Y81238D02*
X1111636Y81238D01*
X1111636Y106638D02*
X1124844Y106638D01*
X1124844Y132038D02*
X1111636Y132038D01*
X1111636Y157438D02*
X1124844Y157438D01*
X1124844Y182838D02*
X1111636Y182838D01*
X1111636Y208238D02*
X1124844Y208238D01*
X1124844Y233638D02*
X1111636Y233638D01*
X1111636Y259038D02*
X1124844Y259038D01*
D79*
X99220Y365720D03*
D80*
X99220Y340320D03*
X99220Y314920D03*
D79*
X571820Y365720D03*
D80*
X571820Y340320D03*
X571820Y314920D03*
D79*
X955680Y312380D03*
D80*
X955680Y286980D03*
X955680Y261580D03*
D70*
X47620Y802600D02*
X32380Y802600D01*
X32380Y777200D02*
X47620Y777200D01*
X47620Y751800D02*
X32380Y751800D01*
X32380Y726400D02*
X47620Y726400D01*
D75*
X719358Y416258D03*
X719358Y488658D03*
D81*
X576740Y774660D02*
X553880Y797520D01*
X551340Y797520D01*
X1276733Y736941D02*
X1277114Y736560D01*
X1276733Y736941D02*
X1264023Y736941D01*
X1254920Y746044D01*
X1254920Y814837D01*
X1257968Y817885D01*
X1257968Y818348D01*
X1265080Y825460D01*
X919640Y858480D02*
X820580Y858480D01*
X800260Y838160D01*
X800260Y817840D01*
X429014Y700064D02*
X428633Y699683D01*
X576740Y736038D02*
X576740Y774660D01*
X576740Y736038D02*
X556005Y715304D01*
X456964Y715304D01*
X441724Y700064D01*
X429014Y700064D01*
X208440Y424806D02*
X208059Y424425D01*
X188120Y365180D02*
X160378Y365180D01*
X147430Y352232D01*
X208059Y385582D02*
X208059Y424425D01*
X195232Y372755D02*
X195232Y372292D01*
X188120Y365180D01*
X195232Y372755D02*
X208059Y385582D01*
X147430Y352232D02*
X147430Y198778D01*
X158306Y187902D01*
X202802Y187902D01*
X216010Y174694D01*
X216010Y143560D01*
X197460Y125010D01*
X813902Y740983D02*
X924526Y740983D01*
X943008Y759465D01*
X943008Y835112D02*
X919640Y858480D01*
X943008Y835112D02*
X943008Y759465D01*
X801753Y455001D02*
X802134Y454620D01*
X801753Y455001D02*
X789043Y455001D01*
X774860Y469184D01*
X774860Y520197D01*
X790332Y535668D01*
X790100Y535900D01*
D82*
X1117760Y424140D02*
X1117760Y403154D01*
D81*
X1079406Y454620D02*
X1031400Y406614D01*
X1031400Y391374D01*
X1079406Y454620D02*
X1102520Y454620D01*
X1117760Y439380D01*
X1117760Y424140D01*
D83*
X858680Y568920D03*
D81*
X881540Y546060D01*
X881540Y477480D01*
X967646Y391374D01*
X978060Y391374D01*
X197460Y125010D02*
X101250Y125010D01*
X63820Y162440D01*
X63820Y719251D01*
X64130Y719561D01*
X64130Y758639D01*
X45569Y777200D01*
X40000Y777200D01*
X406560Y794980D02*
X406560Y810220D01*
X431960Y835620D01*
X584360Y835620D01*
X379546Y700064D02*
X379165Y699683D01*
X379546Y700064D02*
X392256Y700064D01*
X721520Y454620D02*
X752666Y454620D01*
X721520Y454620D02*
X698660Y431760D01*
X398940Y706748D02*
X392256Y700064D01*
X398940Y787360D02*
X406560Y794980D01*
X398940Y787360D02*
X398940Y706748D01*
X208440Y588600D02*
X157640Y639400D01*
X208440Y588600D02*
X208440Y474274D01*
X584360Y835620D02*
X607220Y812760D01*
D83*
X607220Y812760D03*
D81*
X764434Y740983D02*
X779283Y740983D01*
X1227265Y736941D02*
X1227646Y736560D01*
D83*
X729140Y584160D03*
D81*
X744380Y629880D02*
X797720Y629880D01*
X744380Y629880D02*
X729140Y614640D01*
X729140Y584160D01*
X781972Y810728D02*
X774860Y817840D01*
X781972Y810728D02*
X781972Y810265D01*
X790100Y802137D01*
X790100Y751800D01*
X779283Y740983D01*
X594901Y428839D02*
X630670Y393070D01*
X594901Y428839D02*
X594901Y472259D01*
D83*
X815762Y562562D03*
D81*
X815762Y611838D01*
X797720Y629880D01*
X671932Y393070D02*
X630670Y393070D01*
X698660Y419798D02*
X698660Y431760D01*
X698660Y419798D02*
X671932Y393070D01*
X594901Y472259D02*
X645842Y523200D01*
X752000Y523200D01*
X764700Y535900D01*
X1211314Y736941D02*
X1227265Y736941D01*
X1181215Y767040D02*
X1158445Y767040D01*
X1181215Y767040D02*
X1211314Y736941D01*
X1158445Y767040D02*
X1141710Y750305D01*
X1141710Y593438D01*
X1102520Y554248D01*
D82*
X1117158Y371403D02*
X1117760Y371403D01*
X1117760Y353686D01*
D81*
X1117158Y371403D02*
X1113791Y374770D01*
X1068071Y374770D01*
X1059275Y365974D02*
X1031400Y365974D01*
X1059275Y365974D02*
X1068071Y374770D01*
X1102520Y553680D02*
X1102520Y554248D01*
D83*
X1102520Y553680D03*
D81*
X292900Y768940D02*
X210980Y768940D01*
X292900Y768940D02*
X348140Y713700D01*
D84*
X349458Y712383D01*
X379165Y712383D01*
D81*
X379165Y725083D02*
X379165Y737783D01*
X371000Y745947D01*
X371000Y784820D01*
X381160Y794980D01*
X132880Y660360D02*
X111920Y639400D01*
X132880Y660360D02*
X182400Y660360D01*
X203360Y639400D01*
X398686Y529042D02*
X398686Y528579D01*
X398686Y529042D02*
X391574Y536154D01*
X419305Y507960D02*
X487200Y507960D01*
X419305Y507960D02*
X398686Y528579D01*
D84*
X1102520Y351146D02*
X1105060Y353686D01*
X1102520Y351146D02*
X1102520Y332700D01*
X1110140Y325080D01*
X1125380Y325080D01*
X1133000Y332700D01*
X1133000Y351146D01*
X1130460Y353686D01*
X1102520Y332700D02*
X1094900Y325080D01*
X1026320Y340320D02*
X950120Y340320D01*
X1026320Y340320D02*
X1041560Y325080D01*
X1094900Y325080D01*
D81*
X932058Y138766D02*
X892020Y178804D01*
X892020Y409233D01*
D84*
X892020Y398420D02*
X950120Y340320D01*
D81*
X932980Y603840D02*
X894240Y642580D01*
X932980Y603840D02*
X1102266Y603840D01*
D84*
X818040Y467320D02*
X802134Y467320D01*
D81*
X833933Y467320D02*
X892020Y409233D01*
X833933Y467320D02*
X818040Y467320D01*
X887128Y635468D02*
X894240Y642580D01*
D84*
X892020Y409233D02*
X892020Y398420D01*
D81*
X833933Y467320D02*
X839630Y473017D01*
X839630Y576811D01*
X887128Y624309D01*
X887128Y635468D01*
D84*
X111920Y696560D02*
X111920Y711800D01*
X249080Y751800D02*
X279560Y751800D01*
X125260Y683220D02*
X111920Y696560D01*
X125260Y683220D02*
X155456Y683220D01*
X223217Y725937D02*
X249080Y751800D01*
X198173Y725937D02*
X155456Y683220D01*
X198173Y725937D02*
X223217Y725937D01*
X279560Y751800D02*
X344378Y686983D01*
X379165Y686983D01*
X324058Y674283D02*
X297340Y701000D01*
X324058Y674283D02*
X379165Y674283D01*
X379165Y661583D02*
X349363Y661583D01*
X327566Y639786D01*
X310680Y639786D01*
X379165Y661583D02*
X381630Y664048D01*
X392006Y664048D01*
X419694Y712383D02*
X428633Y712383D01*
X419694Y712383D02*
X411259Y703948D01*
X411259Y683302D01*
X392006Y664048D01*
X462440Y662260D02*
X462440Y622260D01*
X470060Y614640D01*
X591980Y614640D01*
X429014Y687364D02*
X428633Y686983D01*
X429014Y687364D02*
X446446Y687364D01*
X457923Y698841D01*
X615221Y690459D02*
X615221Y637881D01*
X591980Y614640D01*
X606839Y698841D02*
X457923Y698841D01*
X606839Y698841D02*
X615221Y690459D01*
X599600Y683220D02*
X594983Y687837D01*
X439580Y661583D02*
X428633Y661583D01*
X439580Y661583D02*
X444052Y661583D01*
X470307Y687837D02*
X594983Y687837D01*
X470307Y687837D02*
X444052Y661583D01*
X439580Y580472D02*
X422054Y562946D01*
X439580Y580472D02*
X439580Y661583D01*
X401480Y584160D02*
X422054Y563586D01*
X422054Y562946D01*
X221140Y533360D02*
X221140Y474274D01*
X221140Y533360D02*
X271940Y584160D01*
X401480Y584160D01*
X383954Y635346D02*
X422054Y635346D01*
X404947Y652453D01*
X404947Y659536D01*
X419694Y674283D01*
X428633Y674283D01*
X246540Y474274D02*
X250954Y469860D01*
X271940Y469860D01*
X297340Y444460D01*
X297340Y398740D01*
X345600Y398740D01*
X236306Y476740D02*
X233840Y474274D01*
X236306Y476740D02*
X236306Y485100D01*
X237322Y486116D01*
X237322Y486694D01*
X250967Y500340D01*
X297340Y500340D01*
X335440Y462240D01*
X363380Y462240D01*
X378620Y447000D01*
X378620Y401280D01*
X348140Y370800D01*
X302420Y370800D01*
X256700Y325080D01*
X237020Y325080D01*
X111920Y469331D02*
X88094Y445505D01*
X111920Y469331D02*
X111920Y485100D01*
X127160Y500340D01*
X180500Y500340D01*
X195740Y485100D01*
X195740Y474274D01*
X169251Y425895D02*
X170340Y424806D01*
X95041Y425895D02*
X79601Y410455D01*
X95041Y425895D02*
X169251Y425895D01*
X193200Y149852D02*
X132728Y149852D01*
X79601Y202979D02*
X79601Y410455D01*
X79601Y202979D02*
X132728Y149852D01*
X813902Y728283D02*
X835837Y728283D01*
X845086Y719034D01*
X865660Y698460D01*
X912020Y698460D01*
X919640Y690840D01*
X919640Y675600D01*
X910438Y666398D01*
X873920Y666398D01*
X868840Y661318D01*
X868840Y642580D01*
X863103Y779083D02*
X813902Y779083D01*
X863103Y779083D02*
X871380Y787360D01*
X871380Y838800D01*
X917100Y767040D02*
X903743Y753683D01*
X813902Y753683D01*
X871380Y766400D02*
X898680Y793700D01*
X898680Y843240D01*
X871380Y766400D02*
X813919Y766400D01*
X813902Y766383D01*
X813902Y715583D02*
X813902Y702883D01*
X836762Y680023D02*
X868840Y680023D01*
X836762Y680023D02*
X813902Y702883D01*
X868840Y682019D02*
X868840Y680023D01*
X813902Y715583D02*
X795837Y715583D01*
X783137Y728283D01*
X764434Y728283D01*
X720504Y683220D02*
X713900Y689824D01*
X720504Y683220D02*
X767846Y683220D01*
X781515Y696889D02*
X781515Y697495D01*
X782480Y698460D01*
X781515Y696889D02*
X767846Y683220D01*
X782480Y698460D02*
X782480Y707912D01*
X777275Y713118D02*
X775443Y713118D01*
X777275Y713118D02*
X782480Y707912D01*
X775443Y713118D02*
X772977Y715583D01*
X764434Y715583D01*
X601500Y532720D02*
X601500Y507960D01*
X601500Y532720D02*
X713900Y645120D01*
X713900Y689824D01*
X748368Y710010D02*
X748368Y726476D01*
X713900Y760944D01*
X713900Y791424D01*
X761386Y705931D02*
X764434Y702883D01*
X761386Y705931D02*
X752447Y705931D01*
X748368Y710010D01*
X559600Y544160D02*
X559600Y507960D01*
X559600Y544160D02*
X660560Y645120D01*
X660560Y689824D01*
X752666Y492720D02*
X752666Y480020D01*
X719358Y488658D02*
X698968Y488658D01*
X678447Y468137D01*
X719358Y488658D02*
X744028Y488658D01*
X752666Y480020D01*
X614840Y454620D02*
X614840Y431760D01*
X630720Y415880D01*
X673260Y415880D01*
X628357Y468137D02*
X614840Y454620D01*
X628357Y468137D02*
X678447Y468137D01*
X706520Y467320D02*
X752666Y467320D01*
X706520Y467320D02*
X691280Y452080D01*
X643420Y452080D01*
X752666Y429220D02*
X755132Y431686D01*
X765507Y431686D01*
X752666Y429220D02*
X752666Y416520D01*
X799086Y438872D02*
X802134Y441920D01*
X799086Y438872D02*
X772694Y438872D01*
X765507Y431686D01*
X579440Y149180D02*
X556510Y149180D01*
X512937Y192753D01*
X512937Y332237D01*
X706280Y401280D02*
X786894Y401280D01*
X802134Y416520D01*
X706280Y401280D02*
X683033Y378033D01*
X558733Y378033D02*
X512937Y332237D01*
X558733Y378033D02*
X683033Y378033D01*
X802134Y429220D02*
X823120Y429220D01*
D83*
X621850Y330930D03*
D84*
X677570Y330930D02*
X735010Y388371D01*
X677570Y330930D02*
X621850Y330930D01*
X735010Y388371D02*
X815291Y388371D01*
X828200Y401280D01*
X828200Y424140D01*
X823120Y429220D01*
X1227646Y761960D02*
X1227646Y774660D01*
X1107600Y772120D02*
X1107600Y748498D01*
X1107600Y772120D02*
X1133000Y797520D01*
X1204786Y797520D01*
X1227646Y774660D01*
X1177139Y748752D02*
X1173640Y748752D01*
X1177139Y748752D02*
X1202031Y723860D01*
X1227646Y723860D01*
X1178720Y661762D02*
X1198918Y641564D01*
X1178720Y661762D02*
X1178720Y690840D01*
X1199040Y711160D01*
X1227646Y711160D01*
X1215762Y628822D02*
X1215762Y568004D01*
X1215762Y628822D02*
X1227646Y640706D01*
X1227646Y698460D01*
X1414940Y546060D02*
X1433795Y564915D01*
X1433795Y740565D01*
X1414940Y546060D02*
X1262540Y546060D01*
X1252271Y673835D02*
X1227646Y698460D01*
X1252271Y673835D02*
X1252271Y556329D01*
X1262540Y546060D01*
X1307404Y749260D02*
X1310407Y752263D01*
X1422097Y752263D02*
X1433795Y740565D01*
X1422097Y752263D02*
X1310407Y752263D01*
X1307404Y749260D02*
X1277114Y749260D01*
X1277114Y761960D02*
X1310800Y761960D01*
X1315880Y767040D01*
X1300640Y798186D02*
X1277114Y774660D01*
X1300640Y798186D02*
X1300640Y850860D01*
X1315880Y866100D01*
X1315880Y868640D01*
X1277114Y711160D02*
X1277114Y698460D01*
X1278207Y699553D02*
X1400465Y699553D01*
X1278207Y699553D02*
X1277114Y698460D01*
X1400465Y699553D02*
X1412988Y687030D01*
X1105060Y421600D02*
X1105060Y403154D01*
D83*
X1089320Y429720D03*
D84*
X1096940Y429720D02*
X1105060Y421600D01*
X1096940Y429720D02*
X1089320Y429720D01*
X1340640Y730113D02*
X1340640Y736560D01*
X1340640Y730113D02*
X1321488Y710961D01*
X1309986Y710961D01*
X1297087Y723860D02*
X1277114Y723860D01*
X1297087Y723860D02*
X1309986Y710961D01*
X1092360Y403154D02*
X1079660Y403154D01*
X1130460Y403154D02*
X1130460Y391120D01*
X1126429Y387089D01*
X1099487Y387089D01*
X1095408Y400106D02*
X1092360Y403154D01*
X1095408Y400106D02*
X1095408Y391167D01*
X1099487Y387089D01*
X1193960Y401280D02*
X1193960Y325080D01*
X1193960Y401280D02*
X1178720Y416520D01*
X1163480Y416520D01*
X1155860Y408900D01*
X1155860Y403154D01*
X977778Y153122D02*
X977778Y138866D01*
X977778Y153122D02*
X958220Y172680D01*
X935360Y172680D01*
X904880Y203160D01*
X904880Y309840D01*
X920120Y325080D01*
X988700Y325080D01*
X1006253Y307527D01*
X1176407Y307527D02*
X1193960Y325080D01*
X1176407Y307527D02*
X1006253Y307527D01*
D83*
X1155860Y439380D03*
D84*
X1143160Y426680D01*
X1143160Y403154D01*
X802134Y480020D02*
X802134Y492720D01*
X1079660Y353686D02*
X1092360Y353686D01*
X1143160Y353686D02*
X1155860Y353686D01*
X170340Y474274D02*
X170340Y481894D01*
X162720Y489514D01*
X137842Y489514D01*
X134100Y485772D01*
X170340Y474274D02*
X183040Y474274D01*
X183040Y456279D01*
X187779Y451540D01*
X220759Y425187D02*
X221140Y424806D01*
X209169Y451540D02*
X187779Y451540D01*
X209169Y451540D02*
X220759Y439950D01*
X220759Y425187D01*
X233840Y424806D02*
X246540Y424806D01*
X195740Y424806D02*
X192692Y421758D01*
X192692Y407442D01*
X188120Y402870D01*
X188120Y393660D01*
D85*
X188120Y393660D03*
X226220Y401280D03*
D84*
X241460Y401280D01*
X246540Y406360D01*
X246540Y424806D01*
D85*
X99060Y408900D03*
D84*
X111920Y408900D01*
X127160Y393660D01*
X150020Y393660D01*
X157640Y401280D01*
X172880Y401280D01*
X183040Y411440D01*
X183040Y424806D01*
X752084Y441338D02*
X752666Y441920D01*
X719358Y418987D02*
X719358Y416258D01*
X719358Y418987D02*
X741708Y441338D01*
X752084Y441338D01*
X428633Y725083D02*
X428633Y737783D01*
X514408Y776032D02*
X514408Y812564D01*
X523425Y821581D01*
X531020Y734660D02*
X553880Y734660D01*
X531020Y734660D02*
X514410Y751270D01*
X462440Y751270D01*
X458353Y747183D01*
X457253Y747183D01*
X447852Y737783D02*
X428633Y737783D01*
X447852Y737783D02*
X457253Y747183D01*
X514408Y776032D02*
X553880Y736560D01*
X553880Y734660D01*
X573357Y821581D02*
X523425Y821581D01*
X573357Y821581D02*
X602610Y792329D01*
X641323Y792329D01*
X750117Y753683D02*
X764434Y753683D01*
X660560Y858480D02*
X641323Y839243D01*
X641323Y792329D01*
X660560Y858480D02*
X698660Y858480D01*
X736760Y820380D01*
X736760Y767040D01*
X750117Y753683D01*
X764434Y766383D02*
X764434Y779083D01*
X777240Y873720D02*
X1056800Y873720D01*
X777240Y873720D02*
X758223Y854703D01*
X758223Y785294D01*
X764434Y779083D01*
X1056800Y873720D02*
X1075043Y855477D01*
X1075043Y810683D01*
X1056800Y792440D01*
X1087280Y761960D02*
X1087280Y698460D01*
X1094900Y690840D01*
X1117760Y690840D01*
X1125380Y698460D01*
X1125380Y759420D01*
X1218707Y749260D02*
X1227646Y749260D01*
X1145319Y779359D02*
X1125380Y759420D01*
X1145319Y779359D02*
X1188608Y779359D01*
X1218707Y749260D01*
X1087280Y761960D02*
X1056800Y792440D01*
M02*
