G04 EAGLE Gerber RS-274X export*
G75*
%MOMM*%
%FSLAX34Y34*%
%LPD*%
%INBottom Copper*%
%IPPOS*%
%AMOC8*
5,1,8,0,0,1.08239X$1,22.5*%
G01*
G04 Define Apertures*
%ADD10C,1.524000*%
%ADD11C,1.450000*%
%ADD12C,1.879600*%
%ADD13C,1.508000*%
%ADD14C,1.320800*%
%ADD15C,1.260000*%
%ADD16C,1.168000*%
%ADD17R,1.218000X1.218000*%
%ADD18C,1.218000*%
%ADD19C,1.016000*%
%ADD20C,1.270000*%
%ADD21C,1.828800*%
%ADD22C,0.482600*%
%ADD23C,1.524000*%
D10*
X381160Y787360D02*
X381160Y802600D01*
X406560Y802600D02*
X406560Y787360D01*
X431960Y787360D02*
X431960Y802600D01*
D11*
X170340Y764500D03*
X170340Y789900D03*
D12*
X1056800Y792440D03*
X1056800Y767040D03*
D11*
X1176180Y820380D03*
X1176180Y845780D03*
X536100Y452080D03*
X510700Y452080D03*
D12*
X1031400Y391374D03*
X1031400Y365974D03*
X1173640Y748752D03*
X1173640Y723352D03*
D11*
X978060Y365974D03*
X978060Y391374D03*
D12*
X1107600Y723098D03*
X1107600Y748498D03*
D11*
X1389540Y627340D03*
X1364140Y627340D03*
D12*
X327820Y825460D03*
X327820Y800060D03*
X551340Y797520D03*
X551340Y772120D03*
D11*
X271940Y800060D03*
X271940Y825460D03*
X487840Y772120D03*
X487840Y797520D03*
D12*
X188120Y365180D03*
X213520Y365180D03*
X599600Y657820D03*
X599600Y683220D03*
D11*
X190660Y274280D03*
X165260Y274280D03*
D12*
X416974Y536154D03*
X391574Y536154D03*
X800260Y817840D03*
X774860Y817840D03*
D11*
X129700Y523200D03*
X129700Y548600D03*
X685960Y815300D03*
X685960Y840700D03*
D12*
X894240Y682019D03*
X868840Y682019D03*
X790100Y535900D03*
X764700Y535900D03*
X868840Y642580D03*
X894240Y642580D03*
D11*
X764700Y594320D03*
X790100Y594320D03*
D12*
X917100Y792440D03*
X917100Y767040D03*
X1265080Y825460D03*
X1239680Y825460D03*
D13*
X297340Y500340D03*
X297340Y398740D03*
X345600Y398740D03*
X345600Y500340D03*
X713900Y689824D03*
X713900Y791424D03*
X660560Y791424D03*
X660560Y689824D03*
X1315880Y767040D03*
X1315880Y868640D03*
X1369220Y868640D03*
X1369220Y767040D03*
D14*
X444704Y49700D02*
X431496Y49700D01*
X431496Y75100D02*
X444704Y75100D01*
X444704Y202100D02*
X431496Y202100D01*
X431496Y227500D02*
X444704Y227500D01*
X444704Y100500D02*
X431496Y100500D01*
X431496Y125900D02*
X444704Y125900D01*
X444704Y176700D02*
X431496Y176700D01*
X431496Y151300D02*
X444704Y151300D01*
X444704Y252900D02*
X431496Y252900D01*
X431496Y278300D02*
X444704Y278300D01*
X368504Y278300D02*
X355296Y278300D01*
X355296Y252900D02*
X368504Y252900D01*
X368504Y227500D02*
X355296Y227500D01*
X355296Y202100D02*
X368504Y202100D01*
X368504Y176700D02*
X355296Y176700D01*
X355296Y151300D02*
X368504Y151300D01*
X368504Y125900D02*
X355296Y125900D01*
X355296Y100500D02*
X368504Y100500D01*
X368504Y75100D02*
X355296Y75100D01*
X355296Y49700D02*
X368504Y49700D01*
X831496Y49700D02*
X844704Y49700D01*
X844704Y75100D02*
X831496Y75100D01*
X831496Y202100D02*
X844704Y202100D01*
X844704Y227500D02*
X831496Y227500D01*
X831496Y100500D02*
X844704Y100500D01*
X844704Y125900D02*
X831496Y125900D01*
X831496Y176700D02*
X844704Y176700D01*
X844704Y151300D02*
X831496Y151300D01*
X831496Y252900D02*
X844704Y252900D01*
X844704Y278300D02*
X831496Y278300D01*
X768504Y278300D02*
X755296Y278300D01*
X755296Y252900D02*
X768504Y252900D01*
X768504Y227500D02*
X755296Y227500D01*
X755296Y202100D02*
X768504Y202100D01*
X768504Y176700D02*
X755296Y176700D01*
X755296Y151300D02*
X768504Y151300D01*
X768504Y125900D02*
X755296Y125900D01*
X755296Y100500D02*
X768504Y100500D01*
X768504Y75100D02*
X755296Y75100D01*
X755296Y49700D02*
X768504Y49700D01*
X1231496Y49700D02*
X1244704Y49700D01*
X1244704Y75100D02*
X1231496Y75100D01*
X1231496Y202100D02*
X1244704Y202100D01*
X1244704Y227500D02*
X1231496Y227500D01*
X1231496Y100500D02*
X1244704Y100500D01*
X1244704Y125900D02*
X1231496Y125900D01*
X1231496Y176700D02*
X1244704Y176700D01*
X1244704Y151300D02*
X1231496Y151300D01*
X1231496Y252900D02*
X1244704Y252900D01*
X1244704Y278300D02*
X1231496Y278300D01*
X1168504Y278300D02*
X1155296Y278300D01*
X1155296Y252900D02*
X1168504Y252900D01*
X1168504Y227500D02*
X1155296Y227500D01*
X1155296Y202100D02*
X1168504Y202100D01*
X1168504Y176700D02*
X1155296Y176700D01*
X1155296Y151300D02*
X1168504Y151300D01*
X1168504Y125900D02*
X1155296Y125900D01*
X1155296Y100500D02*
X1168504Y100500D01*
X1168504Y75100D02*
X1155296Y75100D01*
X1155296Y49700D02*
X1168504Y49700D01*
D15*
X89060Y790460D03*
X89060Y718060D03*
X494788Y630604D03*
X567188Y630604D03*
X553880Y662260D03*
X553880Y734660D03*
X422054Y562946D03*
X422054Y635346D03*
X383954Y635346D03*
X383954Y562946D03*
X134100Y413372D03*
X134100Y485772D03*
X88094Y517905D03*
X88094Y445505D03*
X172240Y528280D03*
X244640Y528280D03*
D16*
X271940Y726400D03*
X297340Y701000D03*
X271940Y675600D03*
D15*
X193200Y222252D03*
X193200Y149852D03*
X111720Y267930D03*
X39320Y267930D03*
X127160Y808320D03*
X127160Y735920D03*
X845086Y719034D03*
X917486Y719034D03*
X1009341Y743540D03*
X1009341Y815940D03*
X944400Y652740D03*
X1016800Y652740D03*
X944400Y698460D03*
X1016800Y698460D03*
X964559Y743254D03*
X964559Y815654D03*
X1062520Y843240D03*
X990120Y843240D03*
X871380Y838800D03*
X871380Y766400D03*
X898680Y843240D03*
X971080Y843240D03*
X487200Y507960D03*
X559600Y507960D03*
X673260Y488280D03*
X673260Y415880D03*
X111920Y711800D03*
X111920Y639400D03*
X571020Y452080D03*
X643420Y452080D03*
X531180Y221580D03*
X531180Y149180D03*
X579440Y221580D03*
X579440Y149180D03*
X237020Y325080D03*
X164620Y325080D03*
X1198844Y601940D03*
X1126444Y601940D03*
X1215762Y568004D03*
X1288162Y568004D03*
X1126520Y678900D03*
X1198920Y678900D03*
X1102266Y603840D03*
X1102266Y676240D03*
X1315880Y640680D03*
X1315880Y568280D03*
X1126518Y641564D03*
X1198918Y641564D03*
X157640Y711800D03*
X157640Y639400D03*
X1340640Y573746D03*
X1413040Y573746D03*
X1340640Y736560D03*
X1413040Y736560D03*
X1412988Y687030D03*
X1340588Y687030D03*
X932058Y211166D03*
X932058Y138766D03*
X977778Y211266D03*
X977778Y138866D03*
X601500Y507960D03*
X673900Y507960D03*
X195740Y37420D03*
X195740Y109820D03*
X150020Y109820D03*
X150020Y37420D03*
X602300Y57740D03*
X602300Y130140D03*
X559120Y130140D03*
X559120Y57740D03*
X210980Y841340D03*
X210980Y768940D03*
X998860Y50120D03*
X998860Y122520D03*
X955680Y122520D03*
X955680Y50120D03*
X1315594Y667340D03*
X1315594Y739740D03*
X238280Y639786D03*
X310680Y639786D03*
X203360Y639400D03*
X203360Y711800D03*
X462440Y662260D03*
X462440Y734660D03*
X508160Y734660D03*
X508160Y662260D03*
D14*
X250604Y261580D02*
X237396Y261580D01*
X237396Y236180D02*
X250604Y236180D01*
X250604Y210780D02*
X237396Y210780D01*
X237396Y185380D02*
X250604Y185380D01*
X250604Y159980D02*
X237396Y159980D01*
X237396Y134580D02*
X250604Y134580D01*
X250604Y109180D02*
X237396Y109180D01*
X237396Y83780D02*
X250604Y83780D01*
X250604Y58380D02*
X237396Y58380D01*
X313596Y58380D02*
X326804Y58380D01*
X326804Y83780D02*
X313596Y83780D01*
X313596Y109180D02*
X326804Y109180D01*
X326804Y134580D02*
X313596Y134580D01*
X313596Y159980D02*
X326804Y159980D01*
X326804Y185380D02*
X313596Y185380D01*
X313596Y210780D02*
X326804Y210780D01*
X326804Y236180D02*
X313596Y236180D01*
X313596Y261580D02*
X326804Y261580D01*
X636336Y263866D02*
X649544Y263866D01*
X649544Y238466D02*
X636336Y238466D01*
X636336Y213066D02*
X649544Y213066D01*
X649544Y187666D02*
X636336Y187666D01*
X636336Y162266D02*
X649544Y162266D01*
X649544Y136866D02*
X636336Y136866D01*
X636336Y111466D02*
X649544Y111466D01*
X649544Y86066D02*
X636336Y86066D01*
X636336Y60666D02*
X649544Y60666D01*
X712536Y60666D02*
X725744Y60666D01*
X725744Y86066D02*
X712536Y86066D01*
X712536Y111466D02*
X725744Y111466D01*
X725744Y136866D02*
X712536Y136866D01*
X712536Y162266D02*
X725744Y162266D01*
X725744Y187666D02*
X712536Y187666D01*
X712536Y213066D02*
X725744Y213066D01*
X725744Y238466D02*
X712536Y238466D01*
X712536Y263866D02*
X725744Y263866D01*
X1035436Y259038D02*
X1048644Y259038D01*
X1048644Y233638D02*
X1035436Y233638D01*
X1035436Y208238D02*
X1048644Y208238D01*
X1048644Y182838D02*
X1035436Y182838D01*
X1035436Y157438D02*
X1048644Y157438D01*
X1048644Y132038D02*
X1035436Y132038D01*
X1035436Y106638D02*
X1048644Y106638D01*
X1048644Y81238D02*
X1035436Y81238D01*
X1035436Y55838D02*
X1048644Y55838D01*
X1111636Y55838D02*
X1124844Y55838D01*
X1124844Y81238D02*
X1111636Y81238D01*
X1111636Y106638D02*
X1124844Y106638D01*
X1124844Y132038D02*
X1111636Y132038D01*
X1111636Y157438D02*
X1124844Y157438D01*
X1124844Y182838D02*
X1111636Y182838D01*
X1111636Y208238D02*
X1124844Y208238D01*
X1124844Y233638D02*
X1111636Y233638D01*
X1111636Y259038D02*
X1124844Y259038D01*
D17*
X99220Y365720D03*
D18*
X99220Y340320D03*
X99220Y314920D03*
D17*
X571820Y365720D03*
D18*
X571820Y340320D03*
X571820Y314920D03*
D17*
X955680Y312380D03*
D18*
X955680Y286980D03*
X955680Y261580D03*
D10*
X47620Y802600D02*
X32380Y802600D01*
X32380Y777200D02*
X47620Y777200D01*
X47620Y751800D02*
X32380Y751800D01*
X32380Y726400D02*
X47620Y726400D01*
D15*
X719358Y416258D03*
X719358Y488658D03*
D19*
X244000Y236180D02*
X236380Y243800D01*
X185580Y243800D01*
X165260Y264120D01*
X165260Y274280D01*
D20*
X40000Y777200D02*
X40000Y802600D01*
D19*
X89540Y841340D01*
X210980Y841340D01*
X256060Y841340D01*
X271940Y825460D01*
X327820Y825460D01*
X344584Y842224D01*
X410116Y842224D01*
X431960Y820380D01*
X431960Y794980D01*
X434500Y797520D01*
X487840Y797520D01*
X551340Y797520D01*
X790100Y594320D02*
X790100Y535900D01*
X642940Y238466D02*
X630494Y238466D01*
X551340Y797520D02*
X594520Y840700D01*
X685960Y840700D01*
X793148Y825415D02*
X793148Y824952D01*
X800260Y817840D01*
X777863Y840700D02*
X685960Y840700D01*
X777863Y840700D02*
X793148Y825415D01*
X1147730Y874230D02*
X1176180Y845780D01*
X1257968Y833035D02*
X1257968Y832572D01*
X1265080Y825460D01*
X1245223Y845780D02*
X1176180Y845780D01*
X1245223Y845780D02*
X1257968Y833035D01*
X1148240Y515580D02*
X1407320Y515580D01*
X1437800Y546060D01*
X1437800Y636926D01*
X1393988Y680738D01*
X1430180Y812760D02*
X1417480Y825460D01*
X1265080Y825460D01*
X187430Y296450D02*
X165260Y274280D01*
X187430Y364490D02*
X188120Y365180D01*
X187430Y364490D02*
X187430Y296450D01*
X800260Y817840D02*
X856650Y874230D01*
X1147730Y874230D01*
X617159Y251801D02*
X630494Y238466D01*
X617159Y251801D02*
X617159Y284059D01*
X642940Y309840D01*
X691040Y309840D01*
X744380Y363180D01*
X820580Y363180D01*
X828200Y370800D01*
X790751Y535900D02*
X790100Y535900D01*
X828200Y498451D02*
X828200Y370800D01*
X828200Y498451D02*
X790751Y535900D01*
X1393988Y680738D02*
X1393988Y693322D01*
X1430180Y729514D02*
X1430180Y812760D01*
X1430180Y729514D02*
X1393988Y693322D01*
X1031400Y391374D02*
X978060Y391374D01*
X1026798Y233638D02*
X1042040Y233638D01*
X1026798Y233638D02*
X1011560Y218400D01*
X1011560Y195540D01*
X994824Y178804D01*
X883516Y178804D01*
X869160Y193160D01*
X869160Y329840D01*
X828200Y370800D01*
X1031400Y398740D02*
X1148240Y515580D01*
X1031400Y398740D02*
X1031400Y391374D01*
X833280Y594320D02*
X790100Y594320D01*
X833280Y594320D02*
X858680Y568920D01*
D21*
X858680Y568920D03*
D22*
X127160Y808320D02*
X106920Y808320D01*
X127160Y808320D02*
X151920Y808320D01*
X106920Y808320D02*
X89060Y790460D01*
X151920Y808320D02*
X170340Y789900D01*
D19*
X244000Y58380D02*
X264320Y58380D01*
X271940Y66000D01*
X271940Y195540D01*
X256700Y210780D01*
X244000Y210780D01*
D20*
X438100Y75100D02*
X438100Y49700D01*
X438100Y75100D02*
X438100Y100500D01*
X438100Y125900D01*
X438100Y151300D01*
X438100Y176700D01*
X438100Y202100D01*
X438100Y227500D01*
X438100Y252900D01*
X438100Y278300D01*
X838100Y75100D02*
X838100Y49700D01*
X838100Y75100D02*
X838100Y100500D01*
X838100Y125900D01*
X838100Y151300D01*
X838100Y176700D01*
X838100Y202100D01*
X838100Y227500D01*
X838100Y252900D01*
X838100Y278300D01*
D19*
X660466Y60666D02*
X642940Y60666D01*
X660466Y60666D02*
X673420Y73620D01*
X673420Y195540D01*
X655894Y213066D01*
X642940Y213066D01*
D20*
X1238100Y75100D02*
X1238100Y49700D01*
X1238100Y75100D02*
X1238100Y100500D01*
X1238100Y125900D01*
X1238100Y151300D01*
X1238100Y176700D01*
X1238100Y202100D01*
X1238100Y227500D01*
X1238100Y252900D01*
X1238100Y278300D01*
D19*
X1062358Y55838D02*
X1042040Y55838D01*
X1062358Y55838D02*
X1072520Y66000D01*
X1072520Y195540D01*
X1059822Y208238D01*
X1042040Y208238D01*
X764700Y535900D02*
X764700Y594320D01*
X327820Y800060D02*
X271940Y800060D01*
X157640Y687562D02*
X157640Y639400D01*
X270138Y800060D02*
X271940Y800060D01*
X270138Y800060D02*
X157640Y687562D01*
X334932Y807172D02*
X335395Y807172D01*
X334932Y807172D02*
X327820Y800060D01*
X335395Y807172D02*
X348857Y820634D01*
X386475Y820634D01*
X406560Y800549D02*
X406560Y794980D01*
X406560Y800549D02*
X386475Y820634D01*
D20*
X222242Y274280D02*
X190660Y274280D01*
X222242Y274280D02*
X246946Y298984D01*
D19*
X213520Y365180D02*
X380620Y365180D01*
X416720Y401280D01*
X416720Y469860D01*
X325280Y561300D01*
X226220Y561300D01*
X157640Y629880D01*
X157640Y639400D01*
X213520Y365180D02*
X214028Y364672D01*
X214028Y297648D02*
X190660Y274280D01*
X214028Y297648D02*
X214028Y364672D01*
X772320Y815300D02*
X774860Y817840D01*
X772320Y815300D02*
X685960Y815300D01*
D21*
X607220Y812760D03*
D19*
X683420Y812760D01*
X685960Y815300D01*
X1176180Y820380D02*
X1181260Y825460D01*
X1239680Y825460D01*
X1176180Y820380D02*
X1160940Y835620D01*
D21*
X729140Y584160D03*
X815762Y562562D03*
D19*
X823382Y562562D01*
X713900Y568920D02*
X515780Y568920D01*
X416720Y469860D01*
X713900Y568920D02*
X729140Y584160D01*
X729140Y614640D01*
X744380Y629880D01*
X752000Y629880D01*
X764700Y617180D01*
X764700Y594320D01*
X978060Y365974D02*
X1031400Y365974D01*
D21*
X1102520Y553680D03*
D19*
X978060Y365974D02*
X962820Y365974D01*
X858680Y470114D01*
X858680Y527264D01*
X823382Y562562D01*
X1072040Y584160D02*
X1102520Y553680D01*
X1072040Y584160D02*
X1072040Y721320D01*
X1087280Y736560D01*
X1087280Y812760D01*
X1110140Y835620D01*
X1160940Y835620D01*
X915576Y584160D02*
X858680Y527264D01*
X915576Y584160D02*
X1072040Y584160D01*
D20*
X438100Y278300D02*
X430892Y278300D01*
X410208Y298984D01*
X246946Y298984D01*
X438100Y49700D02*
X417336Y28936D01*
X273444Y28936D02*
X244000Y58380D01*
X273444Y28936D02*
X417336Y28936D01*
X608784Y26510D02*
X642940Y60666D01*
X461290Y26510D02*
X438100Y49700D01*
X461290Y26510D02*
X608784Y26510D01*
X861290Y26510D02*
X1012712Y26510D01*
X1042040Y55838D01*
X861290Y26510D02*
X838100Y49700D01*
X677096Y26510D02*
X642940Y60666D01*
X677096Y26510D02*
X814910Y26510D01*
X838100Y49700D01*
X1042040Y55838D02*
X1071368Y26510D01*
X1214910Y26510D01*
X1238100Y49700D01*
D19*
X210980Y765140D02*
X157640Y711800D01*
X210980Y765140D02*
X210980Y768940D01*
X150020Y109820D02*
X129060Y109820D01*
X39320Y199560D01*
X383954Y543774D02*
X383954Y562946D01*
X383954Y543774D02*
X391574Y536154D01*
X487840Y772120D02*
X551340Y772120D01*
X564040Y772120D01*
X971080Y843240D02*
X990120Y843240D01*
X406097Y515580D02*
X391574Y530103D01*
X391574Y536154D01*
X438799Y770850D02*
X440069Y772120D01*
X487840Y772120D01*
X438799Y770850D02*
X397670Y770850D01*
X381160Y787360D01*
X381160Y794980D01*
X39320Y511560D02*
X39320Y267930D01*
X129700Y548600D02*
X151920Y548600D01*
X172240Y528280D01*
X39320Y267930D02*
X39320Y199560D01*
X150020Y172680D02*
X150020Y109820D01*
X239428Y185380D02*
X244000Y185380D01*
X239428Y185380D02*
X234094Y190714D01*
X168054Y190714D01*
X150020Y172680D01*
X251234Y591526D02*
X203360Y639400D01*
X355374Y591526D02*
X383954Y562946D01*
X355374Y591526D02*
X251234Y591526D01*
X129700Y548600D02*
X111920Y566380D01*
X111920Y639400D01*
X76360Y548600D02*
X39320Y511560D01*
X76360Y548600D02*
X129700Y548600D01*
X820580Y809482D02*
X869528Y858430D01*
X974930Y858430D01*
X990120Y843240D01*
X820580Y809482D02*
X820580Y675600D01*
X835820Y660360D01*
X805340Y660360D02*
X652940Y660360D01*
X805340Y660360D02*
X820580Y675600D01*
X431960Y515580D02*
X406097Y515580D01*
X431960Y515580D02*
X515780Y599400D01*
X591980Y599400D01*
X652940Y660360D01*
X574106Y187666D02*
X535620Y149180D01*
X574106Y187666D02*
X642940Y187666D01*
X531180Y149180D02*
X521660Y149180D01*
X550220Y130140D02*
X559120Y130140D01*
X550220Y130140D02*
X531180Y149180D01*
X535620Y149180D01*
X630080Y706080D02*
X564040Y772120D01*
X630080Y706080D02*
X630080Y683220D01*
X652940Y660360D01*
X490540Y180300D02*
X521660Y149180D01*
X510700Y452080D02*
X510700Y484460D01*
X487200Y507960D01*
X490540Y431920D02*
X490540Y180300D01*
X490540Y431920D02*
X510700Y452080D01*
X853645Y624292D02*
X876415Y624292D01*
X835820Y642117D02*
X835820Y660360D01*
X894240Y642580D02*
X894240Y642117D01*
X853645Y624292D02*
X835820Y642117D01*
X876415Y624292D02*
X894240Y642117D01*
X1115958Y576540D02*
X1141802Y576540D01*
X1340640Y573746D02*
X1340640Y603840D01*
X1364140Y627340D01*
X1362290Y625490D01*
X1115958Y576540D02*
X1102266Y590232D01*
X1102266Y603840D01*
X1190752Y625490D02*
X1362290Y625490D01*
X1190752Y625490D02*
X1141802Y576540D01*
X1102266Y603840D02*
X1102266Y617312D01*
X1126518Y641564D01*
X960758Y159978D02*
X939546Y138766D01*
X932058Y138766D01*
X939434Y138766D02*
X955680Y122520D01*
X939434Y138766D02*
X932058Y138766D01*
X1020052Y182838D02*
X1042040Y182838D01*
X1020052Y182838D02*
X997192Y159978D01*
X960758Y159978D01*
D22*
X144727Y723397D02*
X123517Y723397D01*
X111920Y711800D01*
X144727Y723397D02*
X170340Y749010D01*
X170340Y764500D01*
X256700Y675600D02*
X271940Y675600D01*
X256700Y675600D02*
X238280Y657180D01*
X238280Y639786D01*
X212257Y702903D02*
X295437Y702903D01*
X212257Y702903D02*
X203360Y711800D01*
X295437Y702903D02*
X297340Y701000D01*
X462440Y662260D02*
X462440Y581620D01*
X416974Y536154D01*
X462440Y734660D02*
X508160Y734660D01*
X508160Y662260D02*
X508160Y643976D01*
X494788Y630604D01*
X582547Y645120D02*
X599600Y645120D01*
X599600Y657820D01*
X566403Y675067D02*
X551447Y690023D01*
X566403Y675067D02*
X566403Y661264D01*
X582547Y645120D01*
X551447Y690023D02*
X520683Y690023D01*
X508160Y677500D01*
X508160Y662260D01*
X553880Y643912D02*
X567188Y630604D01*
X553880Y643912D02*
X553880Y662260D01*
X124405Y517905D02*
X88094Y517905D01*
X124405Y517905D02*
X129700Y523200D01*
X144940Y507960D01*
X224320Y507960D01*
X244640Y528280D01*
X257340Y515580D01*
X332900Y515580D01*
X345600Y502880D01*
X345600Y500340D01*
X244000Y159980D02*
X203328Y159980D01*
X193200Y149852D01*
X1009341Y815940D02*
X1017220Y808061D01*
X1063270Y808061D01*
X1026320Y698460D02*
X1016800Y698460D01*
X1026320Y698460D02*
X1072421Y744561D01*
X1072421Y798910D02*
X1063270Y808061D01*
X1072421Y798910D02*
X1072421Y744561D01*
X897420Y812760D02*
X871380Y838800D01*
X897420Y812760D02*
X934880Y812760D01*
X957740Y789900D01*
X983301Y789900D01*
X1009341Y815940D01*
X917486Y719034D02*
X894240Y695788D01*
X894240Y682019D01*
X917486Y719034D02*
X927392Y728940D01*
X995840Y728940D01*
X1009341Y742441D01*
X1009341Y743540D01*
X1003460Y713700D02*
X1056800Y767040D01*
X1003460Y713700D02*
X939774Y713700D01*
X929599Y703525D01*
X929599Y667541D01*
X944400Y652740D01*
X924720Y792440D02*
X917100Y792440D01*
X924720Y792440D02*
X950120Y767040D01*
X1056800Y767040D01*
X940886Y743254D02*
X917100Y767040D01*
X940886Y743254D02*
X964559Y743254D01*
X944400Y698460D02*
X967260Y675600D01*
X995840Y675600D01*
X1016800Y654640D01*
X1016800Y652740D01*
X983494Y815654D02*
X1011080Y843240D01*
X983494Y815654D02*
X964559Y815654D01*
X1011080Y843240D02*
X1062520Y843240D01*
X713900Y791424D02*
X660560Y791424D01*
X559600Y507960D02*
X559600Y463500D01*
X571020Y452080D01*
X536100Y452080D01*
X640146Y165060D02*
X642940Y162266D01*
X640146Y165060D02*
X618180Y165060D01*
X602300Y149180D01*
X579440Y149180D01*
D21*
X621850Y330930D03*
D22*
X571820Y314920D02*
X571820Y262220D01*
X602300Y314920D02*
X618310Y330930D01*
X602300Y314920D02*
X571820Y314920D01*
X618310Y330930D02*
X621850Y330930D01*
X571820Y262220D02*
X531180Y221580D01*
X1107600Y723098D02*
X1173386Y723098D01*
X1173640Y723352D01*
X1173640Y649136D01*
X1126444Y601940D01*
X1209004Y591780D02*
X1270160Y591780D01*
X1209004Y591780D02*
X1198844Y601940D01*
X1270160Y591780D02*
X1288162Y573778D01*
X1288162Y568004D01*
X1123860Y676240D02*
X1102266Y676240D01*
X1123860Y676240D02*
X1126520Y678900D01*
X1196881Y680939D02*
X1196881Y731099D01*
X1196881Y680939D02*
X1198920Y678900D01*
X1196881Y731099D02*
X1179228Y748752D01*
X1173640Y748752D01*
X1210094Y652740D02*
X1198918Y641564D01*
X1303820Y652740D02*
X1315880Y640680D01*
X1303820Y652740D02*
X1210094Y652740D01*
X1315880Y568280D02*
X1315880Y562772D01*
X1300969Y547861D01*
X1228285Y547861D01*
X1215762Y560384D01*
X1215762Y568004D01*
X1315880Y740026D02*
X1315880Y767040D01*
X1315880Y740026D02*
X1315594Y739740D01*
X1315880Y868640D02*
X1369220Y868640D01*
X1413040Y603840D02*
X1413040Y573746D01*
X1413040Y603840D02*
X1389540Y627340D01*
X1376840Y640040D01*
X1376840Y721320D01*
X1392080Y736560D01*
X1413040Y736560D01*
X1369220Y759420D02*
X1369220Y767040D01*
X1369220Y759420D02*
X1392080Y736560D01*
X1453040Y538440D02*
X1407320Y492720D01*
X1453040Y538440D02*
X1453040Y646978D01*
X1412988Y687030D01*
D21*
X1089320Y429720D03*
D22*
X1152321Y492720D01*
X1407320Y492720D01*
X981110Y142198D02*
X977778Y138866D01*
X1026800Y142198D02*
X1042040Y157438D01*
X1026800Y142198D02*
X981110Y142198D01*
X1003940Y309840D02*
X1163480Y309840D01*
X1178720Y325080D01*
X1178720Y431760D01*
X1171100Y439380D01*
X1155860Y439380D01*
D21*
X1155860Y439380D03*
D22*
X1003940Y309840D02*
X955680Y261580D01*
X996320Y220940D01*
X996320Y204478D01*
X982965Y191123D01*
X952101Y191123D01*
X932058Y211166D01*
X244000Y134580D02*
X244000Y109180D01*
X196380Y109180D02*
X195740Y109820D01*
X196380Y109180D02*
X244000Y109180D01*
X195740Y37420D02*
X191300Y32980D01*
X154460Y32980D01*
X150020Y37420D01*
X195740Y37420D02*
X195740Y73620D01*
X205900Y83780D01*
X244000Y83780D01*
X328880Y49700D02*
X361900Y49700D01*
X328880Y49700D02*
X320200Y58380D01*
X328880Y75100D02*
X361900Y75100D01*
X328880Y75100D02*
X320200Y83780D01*
X328880Y100500D02*
X361900Y100500D01*
X328880Y100500D02*
X320200Y109180D01*
X328880Y125900D02*
X361900Y125900D01*
X328880Y125900D02*
X320200Y134580D01*
X328880Y151300D02*
X361900Y151300D01*
X328880Y151300D02*
X320200Y159980D01*
X328880Y176700D02*
X361900Y176700D01*
X328880Y176700D02*
X320200Y185380D01*
X328880Y202100D02*
X361900Y202100D01*
X328880Y202100D02*
X320200Y210780D01*
X328880Y227500D02*
X361900Y227500D01*
X328880Y227500D02*
X320200Y236180D01*
X328880Y252900D02*
X361900Y252900D01*
X328880Y252900D02*
X320200Y261580D01*
X324604Y281920D02*
X324497Y282027D01*
X358280Y281920D02*
X361900Y278300D01*
X358280Y281920D02*
X324604Y281920D01*
X264447Y282027D02*
X244000Y261580D01*
X264447Y282027D02*
X324497Y282027D01*
X642940Y136866D02*
X642940Y111466D01*
X609026Y136866D02*
X602300Y130140D01*
X609026Y136866D02*
X642940Y136866D01*
X602300Y57740D02*
X559120Y57740D01*
X609920Y57740D02*
X638246Y86066D01*
X609920Y57740D02*
X602300Y57740D01*
X638246Y86066D02*
X642940Y86066D01*
X719140Y58460D02*
X727900Y49700D01*
X719140Y58460D02*
X719140Y60666D01*
X727900Y49700D02*
X761900Y49700D01*
X730106Y75100D02*
X719140Y86066D01*
X730106Y75100D02*
X761900Y75100D01*
X730106Y100500D02*
X719140Y111466D01*
X730106Y100500D02*
X761900Y100500D01*
X730106Y125900D02*
X719140Y136866D01*
X730106Y125900D02*
X761900Y125900D01*
X730106Y151300D02*
X719140Y162266D01*
X730106Y151300D02*
X761900Y151300D01*
X730106Y176700D02*
X719140Y187666D01*
X730106Y176700D02*
X761900Y176700D01*
X730106Y202100D02*
X719140Y213066D01*
X730106Y202100D02*
X761900Y202100D01*
X730106Y227500D02*
X719140Y238466D01*
X730106Y227500D02*
X761900Y227500D01*
X730106Y252900D02*
X719140Y263866D01*
X730106Y252900D02*
X761900Y252900D01*
X761900Y278300D02*
X753507Y286693D01*
X665767Y286693D01*
X642940Y263866D01*
X1042040Y132038D02*
X1042040Y106638D01*
X1042040Y132038D02*
X1008378Y132038D01*
X998860Y122520D01*
X1041259Y81238D02*
X1042040Y81238D01*
X1041259Y81238D02*
X1010141Y50120D01*
X998860Y50120D01*
X955680Y50120D01*
X1118240Y55838D02*
X1124378Y49700D01*
X1161900Y49700D01*
X1124378Y75100D02*
X1118240Y81238D01*
X1124378Y75100D02*
X1161900Y75100D01*
X1124378Y100500D02*
X1118240Y106638D01*
X1124378Y100500D02*
X1161900Y100500D01*
X1124378Y125900D02*
X1118240Y132038D01*
X1124378Y125900D02*
X1161900Y125900D01*
X1124378Y151300D02*
X1118240Y157438D01*
X1124378Y151300D02*
X1161900Y151300D01*
X1124378Y176700D02*
X1118240Y182838D01*
X1124378Y176700D02*
X1161900Y176700D01*
X1124378Y202100D02*
X1118240Y208238D01*
X1124378Y202100D02*
X1161900Y202100D01*
X1124378Y227500D02*
X1118240Y233638D01*
X1124378Y227500D02*
X1161900Y227500D01*
X1124378Y252900D02*
X1118240Y259038D01*
X1124378Y252900D02*
X1161900Y252900D01*
X1061302Y278300D02*
X1042040Y259038D01*
X1061302Y278300D02*
X1161900Y278300D01*
X160225Y329475D02*
X160225Y387247D01*
X160225Y329475D02*
X164620Y325080D01*
X160225Y387247D02*
X134100Y413372D01*
X673900Y488920D02*
X673900Y507960D01*
X673900Y488920D02*
X673260Y488280D01*
X1315594Y667694D02*
X1334930Y687030D01*
X1315594Y667694D02*
X1315594Y667340D01*
X1334930Y687030D02*
X1340588Y687030D01*
X111280Y751800D02*
X40000Y751800D01*
X111280Y751800D02*
X127160Y735920D01*
X59140Y718060D02*
X40000Y726400D01*
X59140Y718060D02*
X89060Y718060D01*
D23*
X188120Y393660D03*
D22*
X218600Y393660D02*
X226220Y401280D01*
X218600Y393660D02*
X188120Y393660D01*
D23*
X226220Y401280D03*
D22*
X99220Y280430D02*
X111720Y267930D01*
X99220Y280430D02*
X99220Y314920D01*
X83980Y314920D01*
X73820Y325080D01*
X73820Y383660D01*
X99060Y408900D01*
D23*
X99060Y408900D03*
D22*
X174466Y222252D02*
X193200Y222252D01*
X151787Y287753D02*
X99220Y340320D01*
X151787Y287753D02*
X151787Y244931D01*
X174466Y222252D01*
X561020Y203160D02*
X579440Y221580D01*
X561020Y203160D02*
X521020Y203160D01*
X513400Y210780D01*
X571820Y332333D02*
X571820Y340320D01*
X513400Y273913D02*
X513400Y210780D01*
X513400Y273913D02*
X571820Y332333D01*
X935360Y253684D02*
X977778Y211266D01*
X935360Y253684D02*
X935360Y279360D01*
X942980Y286980D01*
X955680Y286980D01*
M02*
