G04 EAGLE Gerber RS-274X export*
G75*
%MOMM*%
%FSLAX34Y34*%
%LPD*%
%INSolderpaste Top*%
%IPPOS*%
%AMOC8*
5,1,8,0,0,1.08239X$1,22.5*%
G01*
G04 Define Apertures*
%ADD10R,1.968500X0.599100*%
%ADD11R,0.599100X1.968500*%
D10*
X379165Y737783D03*
X379165Y725083D03*
X379165Y712383D03*
X379165Y699683D03*
X379165Y686983D03*
X379165Y674283D03*
X379165Y661583D03*
X428633Y661583D03*
X428633Y674283D03*
X428633Y686983D03*
X428633Y699683D03*
X428633Y712383D03*
X428633Y725083D03*
X428633Y737783D03*
D11*
X246540Y474274D03*
X233840Y474274D03*
X221140Y474274D03*
X208440Y474274D03*
X195740Y474274D03*
X183040Y474274D03*
X170340Y474274D03*
X170340Y424806D03*
X183040Y424806D03*
X195740Y424806D03*
X208440Y424806D03*
X221140Y424806D03*
X233840Y424806D03*
X246540Y424806D03*
D10*
X764434Y779083D03*
X764434Y766383D03*
X764434Y753683D03*
X764434Y740983D03*
X764434Y728283D03*
X764434Y715583D03*
X764434Y702883D03*
X813902Y702883D03*
X813902Y715583D03*
X813902Y728283D03*
X813902Y740983D03*
X813902Y753683D03*
X813902Y766383D03*
X813902Y779083D03*
X752666Y492720D03*
X752666Y480020D03*
X752666Y467320D03*
X752666Y454620D03*
X752666Y441920D03*
X752666Y429220D03*
X752666Y416520D03*
X802134Y416520D03*
X802134Y429220D03*
X802134Y441920D03*
X802134Y454620D03*
X802134Y467320D03*
X802134Y480020D03*
X802134Y492720D03*
X1227646Y774660D03*
X1227646Y761960D03*
X1227646Y749260D03*
X1227646Y736560D03*
X1227646Y723860D03*
X1227646Y711160D03*
X1227646Y698460D03*
X1277114Y698460D03*
X1277114Y711160D03*
X1277114Y723860D03*
X1277114Y736560D03*
X1277114Y749260D03*
X1277114Y761960D03*
X1277114Y774660D03*
D11*
X1079660Y353686D03*
X1092360Y353686D03*
X1105060Y353686D03*
X1117760Y353686D03*
X1130460Y353686D03*
X1143160Y353686D03*
X1155860Y353686D03*
X1155860Y403154D03*
X1143160Y403154D03*
X1130460Y403154D03*
X1117760Y403154D03*
X1105060Y403154D03*
X1092360Y403154D03*
X1079660Y403154D03*
M02*
